<?xml version="1.0" encoding="UTF-8" standalone="no"?>
<!DOCTYPE svg PUBLIC "-//W3C//DTD SVG 1.1//EN"
 "http://www.w3.org/Graphics/SVG/1.1/DTD/svg11.dtd">
<!-- Generated by graphviz version 2.40.1 (20161225.0304)
 -->
<!-- Title: G Pages: 1 -->
<svg width="127pt" height="38pt"
 viewBox="0.00 0.00 127.00 38.00" xmlns="http://www.w3.org/2000/svg" xmlns:xlink="http://www.w3.org/1999/xlink">
<g id="graph0" class="graph" transform="scale(1 1) rotate(0) translate(4 34)">
<title>G</title>
<polygon fill="#ffffff" stroke="transparent" points="-4,4 -4,-34 123,-34 123,4 -4,4"/>
<!-- node4355073992 -->
<g id="node1" class="node">
<title>node4355073992</title>
<polygon fill="none" stroke="#000000" stroke-width=".5" points="119,-30 0,-30 0,0 119,0 119,-30"/>
<polygon fill="#fefecd" stroke="transparent" points="1.5,-18 1.5,-29 25.5,-29 25.5,-18 1.5,-18"/>
<polyline fill="none" stroke="#000000" points="1.5,-18 25.5,-18 25.5,-29 "/>
<text text-anchor="start" x="10.9973" y="-20.8" font-family="Helvetica,sans-Serif" font-size="9.00" fill="#444443">0</text>
<polygon fill="#fefecd" stroke="transparent" points="25.5,-18 25.5,-29 49.5,-29 49.5,-18 25.5,-18"/>
<polyline fill="none" stroke="#000000" points="25.5,-18 49.5,-18 49.5,-29 "/>
<text text-anchor="start" x="34.9973" y="-20.8" font-family="Helvetica,sans-Serif" font-size="9.00" fill="#444443">1</text>
<polygon fill="#fefecd" stroke="transparent" points="49.5,-18 49.5,-29 73.5,-29 73.5,-18 49.5,-18"/>
<polyline fill="none" stroke="#000000" points="49.5,-18 73.5,-18 73.5,-29 "/>
<text text-anchor="start" x="58.9973" y="-20.8" font-family="Helvetica,sans-Serif" font-size="9.00" fill="#444443">2</text>
<polygon fill="#fefecd" stroke="transparent" points="73.5,-18 73.5,-29 96.5,-29 96.5,-18 73.5,-18"/>
<polyline fill="none" stroke="#000000" points="73.5,-18 96.5,-18 96.5,-29 "/>
<text text-anchor="start" x="82.4973" y="-20.8" font-family="Helvetica,sans-Serif" font-size="9.00" fill="#444443">3</text>
<polygon fill="#fefecd" stroke="transparent" points="96.5,-18 96.5,-29 118.5,-29 118.5,-18 96.5,-18"/>
<polyline fill="none" stroke="#000000" points="96.5,-18 118.5,-18 "/>
<text text-anchor="start" x="104.9973" y="-20.8" font-family="Helvetica,sans-Serif" font-size="9.00" fill="#444443">4</text>
<polygon fill="#fefecd" stroke="transparent" points="1.5,-1 1.5,-18 25.5,-18 25.5,-1 1.5,-1"/>
<polyline fill="none" stroke="#000000" points="25.5,-1 25.5,-18 "/>
<text text-anchor="start" x="4.3235" y="-6.2" font-family="Helvetica,sans-Serif" font-size="11.00" fill="#444443">100</text>
<polygon fill="#fefecd" stroke="transparent" points="25.5,-1 25.5,-18 49.5,-18 49.5,-1 25.5,-1"/>
<polyline fill="none" stroke="#000000" points="49.5,-1 49.5,-18 "/>
<text text-anchor="start" x="28.3235" y="-6.2" font-family="Helvetica,sans-Serif" font-size="11.00" fill="#444443">102</text>
<polygon fill="#fefecd" stroke="transparent" points="49.5,-1 49.5,-18 73.5,-18 73.5,-1 49.5,-1"/>
<polyline fill="none" stroke="#000000" points="73.5,-1 73.5,-18 "/>
<text text-anchor="start" x="52.3235" y="-6.2" font-family="Helvetica,sans-Serif" font-size="11.00" fill="#444443">103</text>
<polygon fill="#fefecd" stroke="transparent" points="73.5,-1 73.5,-18 96.5,-18 96.5,-1 73.5,-1"/>
<polyline fill="none" stroke="#000000" points="96.5,-1 96.5,-18 "/>
<text text-anchor="start" x="76.229" y="-6.2" font-family="Helvetica,sans-Serif" font-size="11.00" fill="#444443">113</text>
<polygon fill="#fefecd" stroke="transparent" points="96.5,-1 96.5,-18 118.5,-18 118.5,-1 96.5,-1"/>
<text text-anchor="start" x="98.3235" y="-6.2" font-family="Helvetica,sans-Serif" font-size="11.00" fill="#444443">121</text>
</g>
</g>
</svg>
