<?xml version="1.0" encoding="UTF-8" standalone="no"?>
<!DOCTYPE svg PUBLIC "-//W3C//DTD SVG 1.1//EN"
 "http://www.w3.org/Graphics/SVG/1.1/DTD/svg11.dtd">
<!-- Generated by graphviz version 2.40.1 (20161225.0304)
 -->
<!-- Title: G Pages: 1 -->
<svg width="56pt" height="41pt"
 viewBox="0.00 0.00 56.00 41.00" xmlns="http://www.w3.org/2000/svg" xmlns:xlink="http://www.w3.org/1999/xlink">
<g id="graph0" class="graph" transform="scale(1 1) rotate(0) translate(4 37)">
<title>G</title>
<polygon fill="#ffffff" stroke="transparent" points="-4,4 -4,-37 52,-37 52,4 -4,4"/>
<!-- node4354692856 -->
<g id="node1" class="node">
<title>node4354692856</title>
<polygon fill="#fefecd" stroke="#444443" stroke-width=".5" points="48,-33 0,-33 0,0 48,0 48,-33"/>
<polygon fill="#fbfeb0" stroke="transparent" points="10,-17.5 10,-28.5 17,-28.5 17,-17.5 10,-17.5"/>
<polyline fill="none" stroke="#444443" points="10,-17.5 17,-17.5 17,-28.5 "/>
<text text-anchor="start" x="10.9973" y="-20.3" font-family="Helvetica,sans-Serif" font-size="9.00" fill="#444443">0</text>
<polygon fill="#fbfeb0" stroke="transparent" points="17,-17.5 17,-28.5 24,-28.5 24,-17.5 17,-17.5"/>
<polyline fill="none" stroke="#444443" points="17,-17.5 24,-17.5 24,-28.5 "/>
<text text-anchor="start" x="17.9973" y="-20.3" font-family="Helvetica,sans-Serif" font-size="9.00" fill="#444443">1</text>
<polygon fill="#fbfeb0" stroke="transparent" points="24,-17.5 24,-28.5 31,-28.5 31,-17.5 24,-17.5"/>
<polyline fill="none" stroke="#444443" points="24,-17.5 31,-17.5 31,-28.5 "/>
<text text-anchor="start" x="24.9973" y="-20.3" font-family="Helvetica,sans-Serif" font-size="9.00" fill="#444443">2</text>
<polygon fill="#fbfeb0" stroke="transparent" points="31,-17.5 31,-28.5 38,-28.5 38,-17.5 31,-17.5"/>
<polyline fill="none" stroke="#444443" points="31,-17.5 38,-17.5 "/>
<text text-anchor="start" x="31.9973" y="-20.3" font-family="Helvetica,sans-Serif" font-size="9.00" fill="#444443">3</text>
<text text-anchor="start" x="7.6636" y="-6.3" font-family="Helvetica,sans-Serif" font-size="14.00" fill="#444443">&#39;</text>
<polygon fill="#fbfeb0" stroke="transparent" points="10,-3.5 10,-17.5 17,-17.5 17,-3.5 10,-3.5"/>
<text text-anchor="start" x="10.1995" y="-8.7" font-family="Monaco" font-size="11.00" fill="#444443">M</text>
<polygon fill="#fbfeb0" stroke="transparent" points="17,-3.5 17,-17.5 24,-17.5 24,-3.5 17,-3.5"/>
<text text-anchor="start" x="17.1995" y="-8.7" font-family="Monaco" font-size="11.00" fill="#444443">a</text>
<polygon fill="#fbfeb0" stroke="transparent" points="24,-3.5 24,-17.5 31,-17.5 31,-3.5 24,-3.5"/>
<text text-anchor="start" x="24.1995" y="-8.7" font-family="Monaco" font-size="11.00" fill="#444443">r</text>
<polygon fill="#fbfeb0" stroke="transparent" points="31,-3.5 31,-17.5 38,-17.5 38,-3.5 31,-3.5"/>
<text text-anchor="start" x="31.1995" y="-8.7" font-family="Monaco" font-size="11.00" fill="#444443">y</text>
<text text-anchor="start" x="37.6636" y="-6.3" font-family="Helvetica,sans-Serif" font-size="14.00" fill="#444443">&#39;</text>
</g>
</g>
</svg>
