<?xml version="1.0" encoding="UTF-8" standalone="no"?>
<!DOCTYPE svg PUBLIC "-//W3C//DTD SVG 1.1//EN"
 "http://www.w3.org/Graphics/SVG/1.1/DTD/svg11.dtd">
<!-- Generated by graphviz version 2.40.1 (20161225.0304)
 -->
<!-- Title: G Pages: 1 -->
<svg width="202pt" height="38pt"
 viewBox="0.00 0.00 202.00 38.00" xmlns="http://www.w3.org/2000/svg" xmlns:xlink="http://www.w3.org/1999/xlink">
<g id="graph0" class="graph" transform="scale(1 1) rotate(0) translate(4 34)">
<title>G</title>
<polygon fill="#ffffff" stroke="transparent" points="-4,4 -4,-34 198,-34 198,4 -4,4"/>
<!-- node4354997576 -->
<g id="node1" class="node">
<title>node4354997576</title>
<polygon fill="none" stroke="#000000" stroke-width=".5" points="194,-30 0,-30 0,0 194,0 194,-30"/>
<polygon fill="#fefecd" stroke="transparent" points="1,-18 1,-29 34,-29 34,-18 1,-18"/>
<polyline fill="none" stroke="#000000" points="1,-18 34,-18 34,-29 "/>
<text text-anchor="start" x="14.9973" y="-20.8" font-family="Helvetica,sans-Serif" font-size="9.00" fill="#444443">0</text>
<polygon fill="#fefecd" stroke="transparent" points="34,-18 34,-29 85,-29 85,-18 34,-18"/>
<polyline fill="none" stroke="#000000" points="34,-18 85,-18 85,-29 "/>
<text text-anchor="start" x="56.9973" y="-20.8" font-family="Helvetica,sans-Serif" font-size="9.00" fill="#444443">1</text>
<polygon fill="#fefecd" stroke="transparent" points="85,-18 85,-29 142,-29 142,-18 85,-18"/>
<polyline fill="none" stroke="#000000" points="85,-18 142,-18 142,-29 "/>
<text text-anchor="start" x="110.9973" y="-20.8" font-family="Helvetica,sans-Serif" font-size="9.00" fill="#444443">2</text>
<polygon fill="#fefecd" stroke="transparent" points="142,-18 142,-29 193,-29 193,-18 142,-18"/>
<polyline fill="none" stroke="#000000" points="142,-18 193,-18 "/>
<text text-anchor="start" x="164.9973" y="-20.8" font-family="Helvetica,sans-Serif" font-size="9.00" fill="#444443">3</text>
<polygon fill="#fefecd" stroke="transparent" points="1,-1 1,-18 34,-18 34,-1 1,-1"/>
<polyline fill="none" stroke="#000000" points="34,-1 34,-18 "/>
<text text-anchor="start" x="3.7822" y="-6.2" font-family="Helvetica,sans-Serif" font-size="11.00" fill="#444443">&#39;Date&#39;</text>
<polygon fill="#fefecd" stroke="transparent" points="34,-1 34,-18 85,-18 85,-1 34,-1"/>
<polyline fill="none" stroke="#000000" points="85,-1 85,-18 "/>
<text text-anchor="start" x="36.9172" y="-6.2" font-family="Helvetica,sans-Serif" font-size="11.00" fill="#444443">&#39;Quantity&#39;</text>
<polygon fill="#fefecd" stroke="transparent" points="85,-1 85,-18 142,-18 142,-1 85,-1"/>
<polyline fill="none" stroke="#000000" points="142,-1 142,-18 "/>
<text text-anchor="start" x="87.5603" y="-6.2" font-family="Helvetica,sans-Serif" font-size="11.00" fill="#444443">&#39;Unit Price&#39;</text>
<polygon fill="#fefecd" stroke="transparent" points="142,-1 142,-18 193,-18 193,-1 142,-1"/>
<text text-anchor="start" x="143.9934" y="-6.2" font-family="Helvetica,sans-Serif" font-size="11.00" fill="#444443">&#39;Shipping&#39;</text>
</g>
</g>
</svg>
