<?xml version="1.0" encoding="UTF-8" standalone="no"?>
<!DOCTYPE svg PUBLIC "-//W3C//DTD SVG 1.1//EN"
 "http://www.w3.org/Graphics/SVG/1.1/DTD/svg11.dtd">
<!-- Generated by graphviz version 2.40.1 (20161225.0304)
 -->
<!-- Title: G Pages: 1 -->
<svg width="331pt" height="38pt"
 viewBox="0.00 0.00 331.00 38.00" xmlns="http://www.w3.org/2000/svg" xmlns:xlink="http://www.w3.org/1999/xlink">
<g id="graph0" class="graph" transform="scale(1 1) rotate(0) translate(4 34)">
<title>G</title>
<polygon fill="#ffffff" stroke="transparent" points="-4,4 -4,-34 327,-34 327,4 -4,4"/>
<!-- node4354997192 -->
<g id="node1" class="node">
<title>node4354997192</title>
<polygon fill="none" stroke="#000000" stroke-width=".5" points="323,-30 0,-30 0,0 323,0 323,-30"/>
<polygon fill="#fefecd" stroke="transparent" points="1.5,-18 1.5,-29 142.5,-29 142.5,-18 1.5,-18"/>
<polyline fill="none" stroke="#000000" points="1.5,-18 142.5,-18 142.5,-29 "/>
<text text-anchor="start" x="69.4973" y="-20.8" font-family="Helvetica,sans-Serif" font-size="9.00" fill="#444443">0</text>
<polygon fill="#fefecd" stroke="transparent" points="142.5,-18 142.5,-29 154.5,-29 154.5,-18 142.5,-18"/>
<polyline fill="none" stroke="#000000" points="142.5,-18 154.5,-18 154.5,-29 "/>
<text text-anchor="start" x="145.9973" y="-20.8" font-family="Helvetica,sans-Serif" font-size="9.00" fill="#444443">1</text>
<polygon fill="#fefecd" stroke="transparent" points="154.5,-18 154.5,-29 187.5,-29 187.5,-18 154.5,-18"/>
<polyline fill="none" stroke="#000000" points="154.5,-18 187.5,-18 187.5,-29 "/>
<text text-anchor="start" x="168.4973" y="-20.8" font-family="Helvetica,sans-Serif" font-size="9.00" fill="#444443">2</text>
<polygon fill="#fefecd" stroke="transparent" points="187.5,-18 187.5,-29 205.5,-29 205.5,-18 187.5,-18"/>
<polyline fill="none" stroke="#000000" points="187.5,-18 205.5,-18 205.5,-29 "/>
<text text-anchor="start" x="193.9973" y="-20.8" font-family="Helvetica,sans-Serif" font-size="9.00" fill="#444443">3</text>
<polygon fill="#fefecd" stroke="transparent" points="205.5,-18 205.5,-29 322.5,-29 322.5,-18 205.5,-18"/>
<polyline fill="none" stroke="#000000" points="205.5,-18 322.5,-18 "/>
<text text-anchor="start" x="261.4973" y="-20.8" font-family="Helvetica,sans-Serif" font-size="9.00" fill="#444443">4</text>
<polygon fill="#fefecd" stroke="transparent" points="1.5,-1 1.5,-18 142.5,-18 142.5,-1 1.5,-1"/>
<polyline fill="none" stroke="#000000" points="142.5,-1 142.5,-18 "/>
<text text-anchor="start" x="4.4263" y="-6.2" font-family="Helvetica,sans-Serif" font-size="11.00" fill="#444443">datetime.date(2010, 10, 13)</text>
<polygon fill="#fefecd" stroke="transparent" points="142.5,-1 142.5,-18 154.5,-18 154.5,-1 142.5,-1"/>
<polyline fill="none" stroke="#000000" points="154.5,-1 154.5,-18 "/>
<text text-anchor="start" x="145.4412" y="-6.2" font-family="Helvetica,sans-Serif" font-size="11.00" fill="#444443">6</text>
<polygon fill="#fefecd" stroke="transparent" points="154.5,-1 154.5,-18 187.5,-18 187.5,-1 154.5,-1"/>
<polyline fill="none" stroke="#000000" points="187.5,-1 187.5,-18 "/>
<text text-anchor="start" x="157.2366" y="-6.2" font-family="Helvetica,sans-Serif" font-size="11.00" fill="#444443">38.94</text>
<polygon fill="#fefecd" stroke="transparent" points="187.5,-1 187.5,-18 205.5,-18 205.5,-1 187.5,-1"/>
<polyline fill="none" stroke="#000000" points="205.5,-1 205.5,-18 "/>
<text text-anchor="start" x="190.3823" y="-6.2" font-family="Helvetica,sans-Serif" font-size="11.00" fill="#444443">35</text>
<polygon fill="#fefecd" stroke="transparent" points="205.5,-1 205.5,-18 322.5,-18 322.5,-1 205.5,-1"/>
<text text-anchor="start" x="207.1873" y="-6.2" font-family="Helvetica,sans-Serif" font-size="11.00" fill="#444443">&#39;Muhammed MacIntyre&#39;</text>
</g>
</g>
</svg>
