<?xml version="1.0" encoding="UTF-8" standalone="no"?>
<!DOCTYPE svg PUBLIC "-//W3C//DTD SVG 1.1//EN"
 "http://www.w3.org/Graphics/SVG/1.1/DTD/svg11.dtd">
<!-- Generated by graphviz version 2.40.1 (20161225.0304)
 -->
<!-- Title: G Pages: 1 -->
<svg width="164pt" height="38pt"
 viewBox="0.00 0.00 164.00 38.00" xmlns="http://www.w3.org/2000/svg" xmlns:xlink="http://www.w3.org/1999/xlink">
<g id="graph0" class="graph" transform="scale(1 1) rotate(0) translate(4 34)">
<title>G</title>
<polygon fill="#ffffff" stroke="transparent" points="-4,4 -4,-34 160,-34 160,4 -4,4"/>
<!-- node4354678472 -->
<g id="node1" class="node">
<title>node4354678472</title>
<polygon fill="none" stroke="#000000" stroke-width=".5" points="156,-30 0,-30 0,0 156,0 156,-30"/>
<polygon fill="#fefecd" stroke="transparent" points="1,-18 1,-29 13,-29 13,-18 1,-18"/>
<polyline fill="none" stroke="#000000" points="1,-18 13,-18 13,-29 "/>
<text text-anchor="start" x="4.4973" y="-20.8" font-family="Helvetica,sans-Serif" font-size="9.00" fill="#444443">0</text>
<polygon fill="#fefecd" stroke="transparent" points="13,-18 13,-29 31,-29 31,-18 13,-18"/>
<polyline fill="none" stroke="#000000" points="13,-18 31,-18 31,-29 "/>
<text text-anchor="start" x="19.4973" y="-20.8" font-family="Helvetica,sans-Serif" font-size="9.00" fill="#444443">1</text>
<polygon fill="#fefecd" stroke="transparent" points="31,-18 31,-29 49,-29 49,-18 31,-18"/>
<polyline fill="none" stroke="#000000" points="31,-18 49,-18 49,-29 "/>
<text text-anchor="start" x="37.4973" y="-20.8" font-family="Helvetica,sans-Serif" font-size="9.00" fill="#444443">2</text>
<polygon fill="#fefecd" stroke="transparent" points="49,-18 49,-29 67,-29 67,-18 49,-18"/>
<polyline fill="none" stroke="#000000" points="49,-18 67,-18 67,-29 "/>
<text text-anchor="start" x="55.4973" y="-20.8" font-family="Helvetica,sans-Serif" font-size="9.00" fill="#444443">3</text>
<polygon fill="#fefecd" stroke="transparent" points="67,-18 67,-29 85,-29 85,-18 67,-18"/>
<polyline fill="none" stroke="#000000" points="67,-18 85,-18 85,-29 "/>
<text text-anchor="start" x="73.4973" y="-20.8" font-family="Helvetica,sans-Serif" font-size="9.00" fill="#444443">4</text>
<polygon fill="#fefecd" stroke="transparent" points="85,-18 85,-29 103,-29 103,-18 85,-18"/>
<polyline fill="none" stroke="#000000" points="85,-18 103,-18 103,-29 "/>
<text text-anchor="start" x="91.4973" y="-20.8" font-family="Helvetica,sans-Serif" font-size="9.00" fill="#444443">5</text>
<polygon fill="#fefecd" stroke="transparent" points="103,-18 103,-29 121,-29 121,-18 103,-18"/>
<polyline fill="none" stroke="#000000" points="103,-18 121,-18 121,-29 "/>
<text text-anchor="start" x="109.4973" y="-20.8" font-family="Helvetica,sans-Serif" font-size="9.00" fill="#444443">6</text>
<polygon fill="#fefecd" stroke="transparent" points="121,-18 121,-29 139,-29 139,-18 121,-18"/>
<polyline fill="none" stroke="#000000" points="121,-18 139,-18 139,-29 "/>
<text text-anchor="start" x="127.4973" y="-20.8" font-family="Helvetica,sans-Serif" font-size="9.00" fill="#444443">7</text>
<polygon fill="#fefecd" stroke="transparent" points="139,-18 139,-29 155,-29 155,-18 139,-18"/>
<polyline fill="none" stroke="#000000" points="139,-18 155,-18 "/>
<text text-anchor="start" x="144.4973" y="-20.8" font-family="Helvetica,sans-Serif" font-size="9.00" fill="#444443">8</text>
<polygon fill="#fefecd" stroke="transparent" points="1,-1 1,-18 13,-18 13,-1 1,-1"/>
<polyline fill="none" stroke="#000000" points="13,-1 13,-18 "/>
<text text-anchor="start" x="3.9412" y="-6.2" font-family="Helvetica,sans-Serif" font-size="11.00" fill="#444443">6</text>
<polygon fill="#fefecd" stroke="transparent" points="13,-1 13,-18 31,-18 31,-1 13,-1"/>
<polyline fill="none" stroke="#000000" points="31,-1 31,-18 "/>
<text text-anchor="start" x="15.8823" y="-6.2" font-family="Helvetica,sans-Serif" font-size="11.00" fill="#444443">49</text>
<polygon fill="#fefecd" stroke="transparent" points="31,-1 31,-18 49,-18 49,-1 31,-1"/>
<polyline fill="none" stroke="#000000" points="49,-1 49,-18 "/>
<text text-anchor="start" x="33.8823" y="-6.2" font-family="Helvetica,sans-Serif" font-size="11.00" fill="#444443">27</text>
<polygon fill="#fefecd" stroke="transparent" points="49,-1 49,-18 67,-18 67,-1 49,-1"/>
<polyline fill="none" stroke="#000000" points="67,-1 67,-18 "/>
<text text-anchor="start" x="51.8823" y="-6.2" font-family="Helvetica,sans-Serif" font-size="11.00" fill="#444443">30</text>
<polygon fill="#fefecd" stroke="transparent" points="67,-1 67,-18 85,-18 85,-1 67,-1"/>
<polyline fill="none" stroke="#000000" points="85,-1 85,-18 "/>
<text text-anchor="start" x="69.8823" y="-6.2" font-family="Helvetica,sans-Serif" font-size="11.00" fill="#444443">19</text>
<polygon fill="#fefecd" stroke="transparent" points="85,-1 85,-18 103,-18 103,-1 85,-1"/>
<polyline fill="none" stroke="#000000" points="103,-1 103,-18 "/>
<text text-anchor="start" x="87.8823" y="-6.2" font-family="Helvetica,sans-Serif" font-size="11.00" fill="#444443">21</text>
<polygon fill="#fefecd" stroke="transparent" points="103,-1 103,-18 121,-18 121,-1 103,-1"/>
<polyline fill="none" stroke="#000000" points="121,-1 121,-18 "/>
<text text-anchor="start" x="105.8823" y="-6.2" font-family="Helvetica,sans-Serif" font-size="11.00" fill="#444443">12</text>
<polygon fill="#fefecd" stroke="transparent" points="121,-1 121,-18 139,-18 139,-1 121,-1"/>
<polyline fill="none" stroke="#000000" points="139,-1 139,-18 "/>
<text text-anchor="start" x="123.8823" y="-6.2" font-family="Helvetica,sans-Serif" font-size="11.00" fill="#444443">22</text>
<polygon fill="#fefecd" stroke="transparent" points="139,-1 139,-18 155,-18 155,-1 139,-1"/>
<text text-anchor="start" x="140.8823" y="-6.2" font-family="Helvetica,sans-Serif" font-size="11.00" fill="#444443">21</text>
</g>
</g>
</svg>
