<?xml version="1.0" encoding="UTF-8" standalone="no"?>
<!DOCTYPE svg PUBLIC "-//W3C//DTD SVG 1.1//EN"
 "http://www.w3.org/Graphics/SVG/1.1/DTD/svg11.dtd">
<!-- Generated by graphviz version 2.40.1 (20161225.0304)
 -->
<!-- Title: G Pages: 1 -->
<svg width="113pt" height="38pt"
 viewBox="0.00 0.00 113.00 38.00" xmlns="http://www.w3.org/2000/svg" xmlns:xlink="http://www.w3.org/1999/xlink">
<g id="graph0" class="graph" transform="scale(1 1) rotate(0) translate(4 34)">
<title>G</title>
<polygon fill="#ffffff" stroke="transparent" points="-4,4 -4,-34 109,-34 109,4 -4,4"/>
<!-- node4600104584 -->
<g id="node1" class="node">
<title>node4600104584</title>
<polygon fill="none" stroke="#000000" stroke-width=".5" points="105,-30 0,-30 0,0 105,0 105,-30"/>
<polygon fill="#fefecd" stroke="transparent" points="1.5,-18 1.5,-29 57.5,-29 57.5,-18 1.5,-18"/>
<polyline fill="none" stroke="#000000" points="1.5,-18 57.5,-18 57.5,-29 "/>
<text text-anchor="start" x="26.9973" y="-20.8" font-family="Helvetica,sans-Serif" font-size="9.00" fill="#444443">0</text>
<polygon fill="#fefecd" stroke="transparent" points="57.5,-18 57.5,-29 104.5,-29 104.5,-18 57.5,-18"/>
<polyline fill="none" stroke="#000000" points="57.5,-18 104.5,-18 "/>
<text text-anchor="start" x="78.4973" y="-20.8" font-family="Helvetica,sans-Serif" font-size="9.00" fill="#444443">1</text>
<polygon fill="#fefecd" stroke="transparent" points="1.5,-1 1.5,-18 57.5,-18 57.5,-1 1.5,-1"/>
<polyline fill="none" stroke="#000000" points="57.5,-1 57.5,-18 "/>
<text text-anchor="start" x="4.1646" y="-6.2" font-family="Helvetica,sans-Serif" font-size="11.00" fill="#444443">&#39;Amadeus&#39;</text>
<polygon fill="#fefecd" stroke="transparent" points="57.5,-1 57.5,-18 104.5,-18 104.5,-1 57.5,-1"/>
<text text-anchor="start" x="59.3411" y="-6.2" font-family="Helvetica,sans-Serif" font-size="11.00" fill="#444443">&#39;Witness&#39;</text>
</g>
</g>
</svg>
