<?xml version="1.0" encoding="UTF-8" standalone="no"?>
<!DOCTYPE svg PUBLIC "-//W3C//DTD SVG 1.1//EN"
 "http://www.w3.org/Graphics/SVG/1.1/DTD/svg11.dtd">
<!-- Generated by graphviz version 2.40.1 (20161225.0304)
 -->
<!-- Title: G Pages: 1 -->
<svg width="71pt" height="38pt"
 viewBox="0.00 0.00 71.00 38.00" xmlns="http://www.w3.org/2000/svg" xmlns:xlink="http://www.w3.org/1999/xlink">
<g id="graph0" class="graph" transform="scale(1 1) rotate(0) translate(4 34)">
<title>G</title>
<polygon fill="#ffffff" stroke="transparent" points="-4,4 -4,-34 67,-34 67,4 -4,4"/>
<!-- node4354796424 -->
<g id="node1" class="node">
<title>node4354796424</title>
<polygon fill="none" stroke="#000000" stroke-width=".5" points="63,-30 0,-30 0,0 63,0 63,-30"/>
<polygon fill="#fefecd" stroke="transparent" points="1.5,-18 1.5,-29 20.5,-29 20.5,-18 1.5,-18"/>
<polyline fill="none" stroke="#000000" points="1.5,-18 20.5,-18 20.5,-29 "/>
<text text-anchor="start" x="8.4973" y="-20.8" font-family="Helvetica,sans-Serif" font-size="9.00" fill="#444443">0</text>
<polygon fill="#fefecd" stroke="transparent" points="20.5,-18 20.5,-29 36.5,-29 36.5,-18 20.5,-18"/>
<polyline fill="none" stroke="#000000" points="20.5,-18 36.5,-18 36.5,-29 "/>
<text text-anchor="start" x="25.9973" y="-20.8" font-family="Helvetica,sans-Serif" font-size="9.00" fill="#444443">1</text>
<polygon fill="#fefecd" stroke="transparent" points="36.5,-18 36.5,-29 49.5,-29 49.5,-18 36.5,-18"/>
<polyline fill="none" stroke="#000000" points="36.5,-18 49.5,-18 49.5,-29 "/>
<text text-anchor="start" x="40.4973" y="-20.8" font-family="Helvetica,sans-Serif" font-size="9.00" fill="#444443">2</text>
<polygon fill="#fefecd" stroke="transparent" points="49.5,-18 49.5,-29 62.5,-29 62.5,-18 49.5,-18"/>
<polyline fill="none" stroke="#000000" points="49.5,-18 62.5,-18 "/>
<text text-anchor="start" x="53.4973" y="-20.8" font-family="Helvetica,sans-Serif" font-size="9.00" fill="#444443">3</text>
<polygon fill="#fefecd" stroke="transparent" points="1.5,-1 1.5,-18 20.5,-18 20.5,-1 1.5,-1"/>
<polyline fill="none" stroke="#000000" points="20.5,-1 20.5,-18 "/>
<text text-anchor="start" x="4.3184" y="-6.2" font-family="Helvetica,sans-Serif" font-size="11.00" fill="#444443">&#39;M&#39;</text>
<polygon fill="#fefecd" stroke="transparent" points="20.5,-1 20.5,-18 36.5,-18 36.5,-1 20.5,-1"/>
<polyline fill="none" stroke="#000000" points="36.5,-1 36.5,-18 "/>
<text text-anchor="start" x="23.3411" y="-6.2" font-family="Helvetica,sans-Serif" font-size="11.00" fill="#444443">&#39;a&#39;</text>
<polygon fill="#fefecd" stroke="transparent" points="36.5,-1 36.5,-18 49.5,-18 49.5,-1 36.5,-1"/>
<polyline fill="none" stroke="#000000" points="49.5,-1 49.5,-18 "/>
<text text-anchor="start" x="39.0684" y="-6.2" font-family="Helvetica,sans-Serif" font-size="11.00" fill="#444443">&#39;r&#39;</text>
<polygon fill="#fefecd" stroke="transparent" points="49.5,-1 49.5,-18 62.5,-18 62.5,-1 49.5,-1"/>
<text text-anchor="start" x="51.1499" y="-6.2" font-family="Helvetica,sans-Serif" font-size="11.00" fill="#444443">&#39;y&#39;</text>
</g>
</g>
</svg>
