<?xml version="1.0" encoding="UTF-8" standalone="no"?>
<!DOCTYPE svg PUBLIC "-//W3C//DTD SVG 1.1//EN"
 "http://www.w3.org/Graphics/SVG/1.1/DTD/svg11.dtd">
<!-- Generated by graphviz version 2.40.1 (20161225.0304)
 -->
<!-- Title: G Pages: 1 -->
<svg width="92pt" height="174pt"
 viewBox="0.00 0.00 92.00 174.00" xmlns="http://www.w3.org/2000/svg" xmlns:xlink="http://www.w3.org/1999/xlink">
<g id="graph0" class="graph" transform="scale(1 1) rotate(0) translate(4 170)">
<title>G</title>
<polygon fill="#ffffff" stroke="transparent" points="-4,4 -4,-170 88,-170 88,4 -4,4"/>
<!-- node4597751944 -->
<g id="node1" class="node">
<title>node4597751944</title>
<polygon fill="#cfe2d4" stroke="#444443" stroke-width=".5" points="13,-122.5 0,-122.5 0,-45.5 13,-45.5 13,-122.5"/>
<polygon fill="#cfe2d4" stroke="transparent" points="1.5,-106 1.5,-121 12.5,-121 12.5,-106 1.5,-106"/>
<polyline fill="none" stroke="#444443" points="1.5,-106 12.5,-106 "/>
<text text-anchor="start" x="4.4973" y="-110.8" font-family="Helvetica,sans-Serif" font-size="9.00" fill="#444443">0</text>
<polygon fill="#cfe2d4" stroke="transparent" points="1.5,-91 1.5,-106 12.5,-106 12.5,-91 1.5,-91"/>
<polyline fill="none" stroke="#444443" points="1.5,-91 12.5,-91 "/>
<text text-anchor="start" x="4.4973" y="-95.8" font-family="Helvetica,sans-Serif" font-size="9.00" fill="#444443">1</text>
<polygon fill="#cfe2d4" stroke="transparent" points="1.5,-76 1.5,-91 12.5,-91 12.5,-76 1.5,-76"/>
<polyline fill="none" stroke="#444443" points="1.5,-76 12.5,-76 "/>
<text text-anchor="start" x="4.4973" y="-80.8" font-family="Helvetica,sans-Serif" font-size="9.00" fill="#444443">2</text>
<polygon fill="#cfe2d4" stroke="transparent" points="1.5,-61 1.5,-76 12.5,-76 12.5,-61 1.5,-61"/>
<polyline fill="none" stroke="#444443" points="1.5,-61 12.5,-61 "/>
<text text-anchor="start" x="4.4973" y="-65.8" font-family="Helvetica,sans-Serif" font-size="9.00" fill="#444443">3</text>
<polygon fill="#cfe2d4" stroke="transparent" points="1.5,-46 1.5,-61 12.5,-61 12.5,-46 1.5,-46"/>
<text text-anchor="start" x="4.4973" y="-50.8" font-family="Helvetica,sans-Serif" font-size="9.00" fill="#444443">4</text>
</g>
<!-- node4597754824 -->
<g id="node2" class="node">
<title>node4597754824</title>
<polygon fill="none" stroke="#000000" stroke-width=".5" points="80.5,-166 45.5,-166 45.5,-136 80.5,-136 80.5,-166"/>
<polygon fill="#fefecd" stroke="transparent" points="47,-154 47,-165 65,-165 65,-154 47,-154"/>
<polyline fill="none" stroke="#000000" points="47,-154 65,-154 65,-165 "/>
<text text-anchor="start" x="53.4973" y="-156.8" font-family="Helvetica,sans-Serif" font-size="9.00" fill="#444443">0</text>
<polygon fill="#fefecd" stroke="transparent" points="65,-154 65,-165 80,-165 80,-154 65,-154"/>
<polyline fill="none" stroke="#000000" points="65,-154 80,-154 "/>
<text text-anchor="start" x="69.9973" y="-156.8" font-family="Helvetica,sans-Serif" font-size="9.00" fill="#444443">1</text>
<polygon fill="#fefecd" stroke="transparent" points="47,-137 47,-154 65,-154 65,-137 47,-137"/>
<polyline fill="none" stroke="#000000" points="65,-137 65,-154 "/>
<text text-anchor="start" x="49.8823" y="-142.2" font-family="Helvetica,sans-Serif" font-size="11.00" fill="#444443">19</text>
<polygon fill="#fefecd" stroke="transparent" points="65,-137 65,-154 80,-154 80,-137 65,-137"/>
<text text-anchor="start" x="66.7878" y="-142.2" font-family="Helvetica,sans-Serif" font-size="11.00" fill="#444443">11</text>
</g>
<!-- node4597751944&#45;&gt;node4597754824 -->
<g id="edge1" class="edge">
<title>node4597751944:0&#45;&gt;node4597754824:w</title>
<path fill="none" stroke="#444443" stroke-width=".5" d="M12.5,-114C32.8485,-114 24.5341,-145.9798 40.8519,-150.477"/>
<polygon fill="#444443" stroke="#444443" stroke-width=".5" points="40.8563,-151.8885 45,-151 41.2066,-149.1105 40.8563,-151.8885"/>
</g>
<!-- node4597753480 -->
<g id="node3" class="node">
<title>node4597753480</title>
<polygon fill="none" stroke="#000000" stroke-width=".5" points="81,-132 45,-132 45,-102 81,-102 81,-132"/>
<polygon fill="#fefecd" stroke="transparent" points="46,-120 46,-131 64,-131 64,-120 46,-120"/>
<polyline fill="none" stroke="#000000" points="46,-120 64,-120 64,-131 "/>
<text text-anchor="start" x="52.4973" y="-122.8" font-family="Helvetica,sans-Serif" font-size="9.00" fill="#444443">0</text>
<polygon fill="#fefecd" stroke="transparent" points="64,-120 64,-131 80,-131 80,-120 64,-120"/>
<polyline fill="none" stroke="#000000" points="64,-120 80,-120 "/>
<text text-anchor="start" x="69.4973" y="-122.8" font-family="Helvetica,sans-Serif" font-size="9.00" fill="#444443">1</text>
<polygon fill="#fefecd" stroke="transparent" points="46,-103 46,-120 64,-120 64,-103 46,-103"/>
<polyline fill="none" stroke="#000000" points="64,-103 64,-120 "/>
<text text-anchor="start" x="48.8823" y="-108.2" font-family="Helvetica,sans-Serif" font-size="11.00" fill="#444443">21</text>
<polygon fill="#fefecd" stroke="transparent" points="64,-103 64,-120 80,-120 80,-103 64,-103"/>
<text text-anchor="start" x="65.8823" y="-108.2" font-family="Helvetica,sans-Serif" font-size="11.00" fill="#444443">15</text>
</g>
<!-- node4597751944&#45;&gt;node4597753480 -->
<g id="edge2" class="edge">
<title>node4597751944:1&#45;&gt;node4597753480:w</title>
<path fill="none" stroke="#444443" stroke-width=".5" d="M12.5,-99C27.4639,-99 28.4366,-113.7832 40.7771,-116.5551"/>
<polygon fill="#444443" stroke="#444443" stroke-width=".5" points="40.8753,-117.9731 45,-117 41.1688,-115.1885 40.8753,-117.9731"/>
</g>
<!-- node4596931336 -->
<g id="node4" class="node">
<title>node4596931336</title>
<polygon fill="none" stroke="#000000" stroke-width=".5" points="84,-98 42,-98 42,-68 84,-68 84,-98"/>
<polygon fill="#fefecd" stroke="transparent" points="43,-86 43,-97 67,-97 67,-86 43,-86"/>
<polyline fill="none" stroke="#000000" points="43,-86 67,-86 67,-97 "/>
<text text-anchor="start" x="52.4973" y="-88.8" font-family="Helvetica,sans-Serif" font-size="9.00" fill="#444443">0</text>
<polygon fill="#fefecd" stroke="transparent" points="67,-86 67,-97 83,-97 83,-86 67,-86"/>
<polyline fill="none" stroke="#000000" points="67,-86 83,-86 "/>
<text text-anchor="start" x="72.4973" y="-88.8" font-family="Helvetica,sans-Serif" font-size="9.00" fill="#444443">1</text>
<polygon fill="#fefecd" stroke="transparent" points="43,-69 43,-86 67,-86 67,-69 43,-69"/>
<polyline fill="none" stroke="#000000" points="67,-69 67,-86 "/>
<text text-anchor="start" x="45.8235" y="-74.2" font-family="Helvetica,sans-Serif" font-size="11.00" fill="#444443">103</text>
<polygon fill="#fefecd" stroke="transparent" points="67,-69 67,-86 83,-86 83,-69 67,-69"/>
<text text-anchor="start" x="68.8823" y="-74.2" font-family="Helvetica,sans-Serif" font-size="11.00" fill="#444443">18</text>
</g>
<!-- node4597751944&#45;&gt;node4596931336 -->
<g id="edge3" class="edge">
<title>node4597751944:2&#45;&gt;node4596931336:w</title>
<path fill="none" stroke="#444443" stroke-width=".5" d="M12.5,-83C24.0747,-83 27.9856,-83 37.7641,-83"/>
<polygon fill="#444443" stroke="#444443" stroke-width=".5" points="38,-84.4001 42,-83 38,-81.6001 38,-84.4001"/>
</g>
<!-- node4597753224 -->
<g id="node5" class="node">
<title>node4597753224</title>
<polygon fill="none" stroke="#000000" stroke-width=".5" points="81,-64 45,-64 45,-34 81,-34 81,-64"/>
<polygon fill="#fefecd" stroke="transparent" points="46,-52 46,-63 64,-63 64,-52 46,-52"/>
<polyline fill="none" stroke="#000000" points="46,-52 64,-52 64,-63 "/>
<text text-anchor="start" x="52.4973" y="-54.8" font-family="Helvetica,sans-Serif" font-size="9.00" fill="#444443">0</text>
<polygon fill="#fefecd" stroke="transparent" points="64,-52 64,-63 80,-63 80,-52 64,-52"/>
<polyline fill="none" stroke="#000000" points="64,-52 80,-52 "/>
<text text-anchor="start" x="69.4973" y="-54.8" font-family="Helvetica,sans-Serif" font-size="9.00" fill="#444443">1</text>
<polygon fill="#fefecd" stroke="transparent" points="46,-35 46,-52 64,-52 64,-35 46,-35"/>
<polyline fill="none" stroke="#000000" points="64,-35 64,-52 "/>
<text text-anchor="start" x="48.8823" y="-40.2" font-family="Helvetica,sans-Serif" font-size="11.00" fill="#444443">99</text>
<polygon fill="#fefecd" stroke="transparent" points="64,-35 64,-52 80,-52 80,-35 64,-35"/>
<text text-anchor="start" x="65.8823" y="-40.2" font-family="Helvetica,sans-Serif" font-size="11.00" fill="#444443">13</text>
</g>
<!-- node4597751944&#45;&gt;node4597753224 -->
<g id="edge4" class="edge">
<title>node4597751944:3&#45;&gt;node4597753224:w</title>
<path fill="none" stroke="#444443" stroke-width=".5" d="M12.5,-68C27.6631,-68 28.2934,-52.3955 40.7316,-49.4697"/>
<polygon fill="#444443" stroke="#444443" stroke-width=".5" points="41.1771,-50.8292 45,-49 40.8708,-48.046 41.1771,-50.8292"/>
</g>
<!-- node4597752456 -->
<g id="node6" class="node">
<title>node4597752456</title>
<polygon fill="none" stroke="#000000" stroke-width=".5" points="75,-30 51,-30 51,0 75,0 75,-30"/>
<polygon fill="#fefecd" stroke="transparent" points="52,-18 52,-29 64,-29 64,-18 52,-18"/>
<polyline fill="none" stroke="#000000" points="52,-18 64,-18 64,-29 "/>
<text text-anchor="start" x="55.4973" y="-20.8" font-family="Helvetica,sans-Serif" font-size="9.00" fill="#444443">0</text>
<polygon fill="#fefecd" stroke="transparent" points="64,-18 64,-29 74,-29 74,-18 64,-18"/>
<polyline fill="none" stroke="#000000" points="64,-18 74,-18 "/>
<text text-anchor="start" x="66.4973" y="-20.8" font-family="Helvetica,sans-Serif" font-size="9.00" fill="#444443">1</text>
<polygon fill="#fefecd" stroke="transparent" points="52,-1 52,-18 64,-18 64,-1 52,-1"/>
<polyline fill="none" stroke="#000000" points="64,-1 64,-18 "/>
<text text-anchor="start" x="54.9412" y="-6.2" font-family="Helvetica,sans-Serif" font-size="11.00" fill="#444443">8</text>
<polygon fill="#fefecd" stroke="transparent" points="64,-1 64,-18 74,-18 74,-1 64,-1"/>
<text text-anchor="start" x="65.9412" y="-6.2" font-family="Helvetica,sans-Serif" font-size="11.00" fill="#444443">2</text>
</g>
<!-- node4597751944&#45;&gt;node4597752456 -->
<g id="edge5" class="edge">
<title>node4597751944:4&#45;&gt;node4597752456:w</title>
<path fill="none" stroke="#444443" stroke-width=".5" d="M12.5,-53C35.0395,-53 28.0245,-19.6016 46.8697,-15.4268"/>
<polygon fill="#444443" stroke="#444443" stroke-width=".5" points="47.1651,-16.8038 51,-15 46.8773,-14.0186 47.1651,-16.8038"/>
</g>
</g>
</svg>
