<?xml version="1.0" encoding="UTF-8" standalone="no"?>
<!DOCTYPE svg PUBLIC "-//W3C//DTD SVG 1.1//EN"
 "http://www.w3.org/Graphics/SVG/1.1/DTD/svg11.dtd">
<!-- Generated by graphviz version 2.40.1 (20161225.0304)
 -->
<!-- Title: G Pages: 1 -->
<svg width="61pt" height="58pt"
 viewBox="0.00 0.00 61.00 58.00" xmlns="http://www.w3.org/2000/svg" xmlns:xlink="http://www.w3.org/1999/xlink">
<g id="graph0" class="graph" transform="scale(1 1) rotate(0) translate(4 54)">
<title>G</title>
<polygon fill="#ffffff" stroke="transparent" points="-4,4 -4,-54 57,-54 57,4 -4,4"/>
<!-- node4597757952 -->
<g id="node1" class="node">
<title>node4597757952</title>
<polygon fill="none" stroke="#000000" stroke-width=".5" points="53,-50 0,-50 0,0 53,0 53,-50"/>
<polygon fill="#fefecd" stroke="transparent" points="1.5,-33 1.5,-49 23.5,-49 23.5,-33 1.5,-33"/>
<text text-anchor="start" x="6.9385" y="-38" font-family="Helvetica,sans-Serif" font-size="10.00" fill="#444443">99</text>
<polygon fill="#fefecd" stroke="transparent" points="23.5,-33 23.5,-49 52.5,-49 52.5,-33 23.5,-33"/>
<text text-anchor="start" x="27.7192" y="-38" font-family="Helvetica,sans-Serif" font-size="10.00" fill="#444443">parrt</text>
<polygon fill="#fefecd" stroke="transparent" points="1.5,-17 1.5,-33 23.5,-33 23.5,-17 1.5,-17"/>
<text text-anchor="start" x="4.1577" y="-22" font-family="Helvetica,sans-Serif" font-size="10.00" fill="#444443">101</text>
<polygon fill="#fefecd" stroke="transparent" points="23.5,-17 23.5,-33 52.5,-33 52.5,-17 23.5,-17"/>
<text text-anchor="start" x="32.7241" y="-22" font-family="Helvetica,sans-Serif" font-size="10.00" fill="#444443">sri</text>
<polygon fill="#fefecd" stroke="transparent" points="1.5,-1 1.5,-17 23.5,-17 23.5,-1 1.5,-1"/>
<text text-anchor="start" x="6.9385" y="-6" font-family="Helvetica,sans-Serif" font-size="10.00" fill="#444443">42</text>
<polygon fill="#fefecd" stroke="transparent" points="23.5,-1 23.5,-17 52.5,-17 52.5,-1 23.5,-1"/>
<text text-anchor="start" x="26.3276" y="-6" font-family="Helvetica,sans-Serif" font-size="10.00" fill="#444443">kayla</text>
</g>
</g>
</svg>
