<?xml version="1.0" encoding="UTF-8" standalone="no"?>
<!DOCTYPE svg PUBLIC "-//W3C//DTD SVG 1.1//EN"
 "http://www.w3.org/Graphics/SVG/1.1/DTD/svg11.dtd">
<!-- Generated by graphviz version 2.40.1 (20161225.0304)
 -->
<!-- Title: G Pages: 1 -->
<svg width="71pt" height="90pt"
 viewBox="0.00 0.00 71.00 90.00" xmlns="http://www.w3.org/2000/svg" xmlns:xlink="http://www.w3.org/1999/xlink">
<g id="graph0" class="graph" transform="scale(1 1) rotate(0) translate(4 86)">
<title>G</title>
<polygon fill="#ffffff" stroke="transparent" points="-4,4 -4,-86 67,-86 67,4 -4,4"/>
<!-- node4597801728 -->
<g id="node1" class="node">
<title>node4597801728</title>
<polygon fill="none" stroke="#000000" stroke-width=".5" points="63,-82 0,-82 0,0 63,0 63,-82"/>
<polygon fill="#fefecd" stroke="transparent" points="1.5,-65 1.5,-81 34.5,-81 34.5,-65 1.5,-65"/>
<text text-anchor="start" x="6.877" y="-70" font-family="Helvetica,sans-Serif" font-size="10.00" fill="#444443">1881</text>
<polygon fill="#fefecd" stroke="transparent" points="34.5,-65 34.5,-81 62.5,-81 62.5,-65 34.5,-65"/>
<text text-anchor="start" x="37.377" y="-70" font-family="Helvetica,sans-Serif" font-size="10.00" fill="#444443">1089</text>
<polygon fill="#fefecd" stroke="transparent" points="1.5,-49 1.5,-65 34.5,-65 34.5,-49 1.5,-49"/>
<text text-anchor="start" x="6.877" y="-54" font-family="Helvetica,sans-Serif" font-size="10.00" fill="#444443">2079</text>
<polygon fill="#fefecd" stroke="transparent" points="34.5,-49 34.5,-65 62.5,-65 62.5,-49 34.5,-49"/>
<text text-anchor="start" x="37.377" y="-54" font-family="Helvetica,sans-Serif" font-size="10.00" fill="#444443">1485</text>
<polygon fill="#fefecd" stroke="transparent" points="1.5,-33 1.5,-49 34.5,-49 34.5,-33 1.5,-33"/>
<text text-anchor="start" x="4.0962" y="-38" font-family="Helvetica,sans-Serif" font-size="10.00" fill="#444443">10197</text>
<polygon fill="#fefecd" stroke="transparent" points="34.5,-33 34.5,-49 62.5,-49 62.5,-33 34.5,-33"/>
<text text-anchor="start" x="37.377" y="-38" font-family="Helvetica,sans-Serif" font-size="10.00" fill="#444443">1782</text>
<polygon fill="#fefecd" stroke="transparent" points="1.5,-17 1.5,-33 34.5,-33 34.5,-17 1.5,-17"/>
<text text-anchor="start" x="6.877" y="-22" font-family="Helvetica,sans-Serif" font-size="10.00" fill="#444443">9801</text>
<polygon fill="#fefecd" stroke="transparent" points="34.5,-17 34.5,-33 62.5,-33 62.5,-17 34.5,-17"/>
<text text-anchor="start" x="37.377" y="-22" font-family="Helvetica,sans-Serif" font-size="10.00" fill="#444443">1287</text>
<polygon fill="#fefecd" stroke="transparent" points="1.5,-1 1.5,-17 34.5,-17 34.5,-1 1.5,-1"/>
<text text-anchor="start" x="9.6577" y="-6" font-family="Helvetica,sans-Serif" font-size="10.00" fill="#444443">792</text>
<polygon fill="#fefecd" stroke="transparent" points="34.5,-1 34.5,-17 62.5,-17 62.5,-1 34.5,-1"/>
<text text-anchor="start" x="40.1577" y="-6" font-family="Helvetica,sans-Serif" font-size="10.00" fill="#444443">198</text>
</g>
</g>
</svg>
