<?xml version="1.0" encoding="UTF-8" standalone="no"?>
<!DOCTYPE svg PUBLIC "-//W3C//DTD SVG 1.1//EN"
 "http://www.w3.org/Graphics/SVG/1.1/DTD/svg11.dtd">
<!-- Generated by graphviz version 2.40.1 (20161225.0304)
 -->
<!-- Title: G Pages: 1 -->
<svg width="49pt" height="90pt"
 viewBox="0.00 0.00 49.00 90.00" xmlns="http://www.w3.org/2000/svg" xmlns:xlink="http://www.w3.org/1999/xlink">
<g id="graph0" class="graph" transform="scale(1 1) rotate(0) translate(4 86)">
<title>G</title>
<polygon fill="#ffffff" stroke="transparent" points="-4,4 -4,-86 45,-86 45,4 -4,4"/>
<!-- node4597757712 -->
<g id="node1" class="node">
<title>node4597757712</title>
<polygon fill="none" stroke="#000000" stroke-width=".5" points="41,-82 0,-82 0,0 41,0 41,-82"/>
<polygon fill="#fefecd" stroke="transparent" points="1.5,-65 1.5,-81 23.5,-81 23.5,-65 1.5,-65"/>
<text text-anchor="start" x="6.9385" y="-70" font-family="Helvetica,sans-Serif" font-size="10.00" fill="#444443">19</text>
<polygon fill="#fefecd" stroke="transparent" points="23.5,-65 23.5,-81 40.5,-81 40.5,-65 23.5,-65"/>
<text text-anchor="start" x="26.8071" y="-70" font-family="Helvetica,sans-Serif" font-size="10.00" fill="#444443">11</text>
<polygon fill="#fefecd" stroke="transparent" points="1.5,-49 1.5,-65 23.5,-65 23.5,-49 1.5,-49"/>
<text text-anchor="start" x="6.9385" y="-54" font-family="Helvetica,sans-Serif" font-size="10.00" fill="#444443">21</text>
<polygon fill="#fefecd" stroke="transparent" points="23.5,-49 23.5,-65 40.5,-65 40.5,-49 23.5,-49"/>
<text text-anchor="start" x="26.4385" y="-54" font-family="Helvetica,sans-Serif" font-size="10.00" fill="#444443">15</text>
<polygon fill="#fefecd" stroke="transparent" points="1.5,-33 1.5,-49 23.5,-49 23.5,-33 1.5,-33"/>
<text text-anchor="start" x="4.1577" y="-38" font-family="Helvetica,sans-Serif" font-size="10.00" fill="#444443">103</text>
<polygon fill="#fefecd" stroke="transparent" points="23.5,-33 23.5,-49 40.5,-49 40.5,-33 23.5,-33"/>
<text text-anchor="start" x="26.4385" y="-38" font-family="Helvetica,sans-Serif" font-size="10.00" fill="#444443">18</text>
<polygon fill="#fefecd" stroke="transparent" points="1.5,-17 1.5,-33 23.5,-33 23.5,-17 1.5,-17"/>
<text text-anchor="start" x="6.9385" y="-22" font-family="Helvetica,sans-Serif" font-size="10.00" fill="#444443">99</text>
<polygon fill="#fefecd" stroke="transparent" points="23.5,-17 23.5,-33 40.5,-33 40.5,-17 23.5,-17"/>
<text text-anchor="start" x="26.4385" y="-22" font-family="Helvetica,sans-Serif" font-size="10.00" fill="#444443">13</text>
<polygon fill="#fefecd" stroke="transparent" points="1.5,-1 1.5,-17 23.5,-17 23.5,-1 1.5,-1"/>
<text text-anchor="start" x="9.7192" y="-6" font-family="Helvetica,sans-Serif" font-size="10.00" fill="#444443">8</text>
<polygon fill="#fefecd" stroke="transparent" points="23.5,-1 23.5,-17 40.5,-17 40.5,-1 23.5,-1"/>
<text text-anchor="start" x="29.2192" y="-6" font-family="Helvetica,sans-Serif" font-size="10.00" fill="#444443">2</text>
</g>
</g>
</svg>
