<?xml version="1.0" encoding="UTF-8" standalone="no"?>
<!DOCTYPE svg PUBLIC "-//W3C//DTD SVG 1.1//EN"
 "http://www.w3.org/Graphics/SVG/1.1/DTD/svg11.dtd">
<!-- Generated by graphviz version 2.40.1 (20161225.0304)
 -->
<!-- Title: G Pages: 1 -->
<svg width="94pt" height="42pt"
 viewBox="0.00 0.00 94.00 42.00" xmlns="http://www.w3.org/2000/svg" xmlns:xlink="http://www.w3.org/1999/xlink">
<g id="graph0" class="graph" transform="scale(1 1) rotate(0) translate(4 38)">
<title>G</title>
<polygon fill="#ffffff" stroke="transparent" points="-4,4 -4,-38 90,-38 90,4 -4,4"/>
<!-- node4597802688 -->
<g id="node1" class="node">
<title>node4597802688</title>
<polygon fill="none" stroke="#000000" stroke-width=".5" points="86,-34 0,-34 0,0 86,0 86,-34"/>
<polygon fill="#fefecd" stroke="transparent" points="1,-17 1,-33 18,-33 18,-17 1,-17"/>
<text text-anchor="start" x="3.9385" y="-22" font-family="Helvetica,sans-Serif" font-size="10.00" fill="#444443">19</text>
<polygon fill="#fefecd" stroke="transparent" points="18,-17 18,-33 35,-33 35,-17 18,-17"/>
<text text-anchor="start" x="20.9385" y="-22" font-family="Helvetica,sans-Serif" font-size="10.00" fill="#444443">21</text>
<polygon fill="#fefecd" stroke="transparent" points="35,-17 35,-33 57,-33 57,-17 35,-17"/>
<text text-anchor="start" x="37.6577" y="-22" font-family="Helvetica,sans-Serif" font-size="10.00" fill="#444443">103</text>
<polygon fill="#fefecd" stroke="transparent" points="57,-17 57,-33 74,-33 74,-17 57,-17"/>
<text text-anchor="start" x="59.9385" y="-22" font-family="Helvetica,sans-Serif" font-size="10.00" fill="#444443">99</text>
<polygon fill="#fefecd" stroke="transparent" points="74,-17 74,-33 85,-33 85,-17 74,-17"/>
<text text-anchor="start" x="76.7192" y="-22" font-family="Helvetica,sans-Serif" font-size="10.00" fill="#444443">8</text>
<polygon fill="#fefecd" stroke="transparent" points="1,-1 1,-17 18,-17 18,-1 1,-1"/>
<text text-anchor="start" x="4.3071" y="-6" font-family="Helvetica,sans-Serif" font-size="10.00" fill="#444443">11</text>
<polygon fill="#fefecd" stroke="transparent" points="18,-1 18,-17 35,-17 35,-1 18,-1"/>
<text text-anchor="start" x="20.9385" y="-6" font-family="Helvetica,sans-Serif" font-size="10.00" fill="#444443">15</text>
<polygon fill="#fefecd" stroke="transparent" points="35,-1 35,-17 57,-17 57,-1 35,-1"/>
<text text-anchor="start" x="40.4385" y="-6" font-family="Helvetica,sans-Serif" font-size="10.00" fill="#444443">18</text>
<polygon fill="#fefecd" stroke="transparent" points="57,-1 57,-17 74,-17 74,-1 57,-1"/>
<text text-anchor="start" x="59.9385" y="-6" font-family="Helvetica,sans-Serif" font-size="10.00" fill="#444443">13</text>
<polygon fill="#fefecd" stroke="transparent" points="74,-1 74,-17 85,-17 85,-1 74,-1"/>
<text text-anchor="start" x="76.7192" y="-6" font-family="Helvetica,sans-Serif" font-size="10.00" fill="#444443">2</text>
</g>
</g>
</svg>
