<?xml version="1.0" encoding="UTF-8" standalone="no"?>
<!DOCTYPE svg PUBLIC "-//W3C//DTD SVG 1.1//EN"
 "http://www.w3.org/Graphics/SVG/1.1/DTD/svg11.dtd">
<!-- Generated by graphviz version 2.40.1 (20161225.0304)
 -->
<!-- Title: G Pages: 1 -->
<svg width="155pt" height="75pt"
 viewBox="0.00 0.00 155.00 75.00" xmlns="http://www.w3.org/2000/svg" xmlns:xlink="http://www.w3.org/1999/xlink">
<g id="graph0" class="graph" transform="scale(1 1) rotate(0) translate(4 71)">
<title>G</title>
<polygon fill="#ffffff" stroke="transparent" points="-4,4 -4,-71 151,-71 151,4 -4,4"/>
<!-- node4375035400 -->
<g id="node1" class="node">
<title>node4375035400</title>
<polygon fill="#cfe2d4" stroke="#444443" stroke-width=".5" points="13,-49 0,-49 0,-17 13,-17 13,-49"/>
<polygon fill="#cfe2d4" stroke="transparent" points="1.5,-33 1.5,-48 12.5,-48 12.5,-33 1.5,-33"/>
<polyline fill="none" stroke="#444443" points="1.5,-33 12.5,-33 "/>
<text text-anchor="start" x="4.4973" y="-37.8" font-family="Helvetica,sans-Serif" font-size="9.00" fill="#444443">0</text>
<polygon fill="#cfe2d4" stroke="transparent" points="1.5,-18 1.5,-33 12.5,-33 12.5,-18 1.5,-18"/>
<text text-anchor="start" x="4.4973" y="-22.8" font-family="Helvetica,sans-Serif" font-size="9.00" fill="#444443">1</text>
</g>
<!-- node4374620360 -->
<g id="node2" class="node">
<title>node4374620360</title>
<polygon fill="none" stroke="#000000" stroke-width=".5" points="140,-67 42,-67 42,-37 140,-37 140,-67"/>
<polygon fill="#fefecd" stroke="transparent" points="43,-55 43,-66 73,-66 73,-55 43,-55"/>
<polyline fill="none" stroke="#000000" points="43,-55 73,-55 73,-66 "/>
<text text-anchor="start" x="55.4973" y="-57.8" font-family="Helvetica,sans-Serif" font-size="9.00" fill="#444443">0</text>
<polygon fill="#fefecd" stroke="transparent" points="73,-55 73,-66 129,-66 129,-55 73,-55"/>
<polyline fill="none" stroke="#000000" points="73,-55 129,-55 129,-66 "/>
<text text-anchor="start" x="98.4973" y="-57.8" font-family="Helvetica,sans-Serif" font-size="9.00" fill="#444443">1</text>
<polygon fill="#fefecd" stroke="transparent" points="129,-55 129,-66 139,-66 139,-55 129,-55"/>
<polyline fill="none" stroke="#000000" points="129,-55 139,-55 "/>
<text text-anchor="start" x="131.4973" y="-57.8" font-family="Helvetica,sans-Serif" font-size="9.00" fill="#444443">2</text>
<polygon fill="#fefecd" stroke="transparent" points="43,-38 43,-55 73,-55 73,-38 43,-38"/>
<polyline fill="none" stroke="#000000" points="73,-38 73,-55 "/>
<text text-anchor="start" x="45.7646" y="-43.2" font-family="Helvetica,sans-Serif" font-size="11.00" fill="#444443">1984</text>
<polygon fill="#fefecd" stroke="transparent" points="73,-38 73,-55 129,-55 129,-38 73,-38"/>
<polyline fill="none" stroke="#000000" points="129,-38 129,-55 "/>
<text text-anchor="start" x="75.6646" y="-43.2" font-family="Helvetica,sans-Serif" font-size="11.00" fill="#444443">&#39;Amadeus&#39;</text>
<polygon fill="#fefecd" stroke="transparent" points="129,-38 129,-55 139,-55 139,-38 129,-38"/>
<text text-anchor="start" x="130.9412" y="-43.2" font-family="Helvetica,sans-Serif" font-size="11.00" fill="#444443">1</text>
</g>
<!-- node4375035400&#45;&gt;node4374620360 -->
<g id="edge1" class="edge">
<title>node4375035400:0&#45;&gt;node4374620360:w</title>
<path fill="none" stroke="#444443" stroke-width=".5" d="M12.5,-41C24.9625,-41 27.5266,-49.7253 37.8238,-51.634"/>
<polygon fill="#444443" stroke="#444443" stroke-width=".5" points="37.893,-53.0454 42,-52 38.1375,-50.2561 37.893,-53.0454"/>
</g>
<!-- node4374621128 -->
<g id="node3" class="node">
<title>node4374621128</title>
<polygon fill="none" stroke="#000000" stroke-width=".5" points="147,-30 35,-30 35,0 147,0 147,-30"/>
<polygon fill="#fefecd" stroke="transparent" points="36,-18 36,-29 66,-29 66,-18 36,-18"/>
<polyline fill="none" stroke="#000000" points="36,-18 66,-18 66,-29 "/>
<text text-anchor="start" x="48.4973" y="-20.8" font-family="Helvetica,sans-Serif" font-size="9.00" fill="#444443">0</text>
<polygon fill="#fefecd" stroke="transparent" points="66,-18 66,-29 136,-29 136,-18 66,-18"/>
<polyline fill="none" stroke="#000000" points="66,-18 136,-18 136,-29 "/>
<text text-anchor="start" x="98.4973" y="-20.8" font-family="Helvetica,sans-Serif" font-size="9.00" fill="#444443">1</text>
<polygon fill="#fefecd" stroke="transparent" points="136,-18 136,-29 146,-29 146,-18 136,-18"/>
<polyline fill="none" stroke="#000000" points="136,-18 146,-18 "/>
<text text-anchor="start" x="138.4973" y="-20.8" font-family="Helvetica,sans-Serif" font-size="9.00" fill="#444443">2</text>
<polygon fill="#fefecd" stroke="transparent" points="36,-1 36,-18 66,-18 66,-1 36,-1"/>
<polyline fill="none" stroke="#000000" points="66,-1 66,-18 "/>
<text text-anchor="start" x="38.7646" y="-6.2" font-family="Helvetica,sans-Serif" font-size="11.00" fill="#444443">1985</text>
<polygon fill="#fefecd" stroke="transparent" points="66,-1 66,-18 136,-18 136,-1 66,-1"/>
<polyline fill="none" stroke="#000000" points="136,-1 136,-18 "/>
<text text-anchor="start" x="68.6338" y="-6.2" font-family="Helvetica,sans-Serif" font-size="11.00" fill="#444443">&#39;Out of Africa&#39;</text>
<polygon fill="#fefecd" stroke="transparent" points="136,-1 136,-18 146,-18 146,-1 136,-1"/>
<text text-anchor="start" x="137.9412" y="-6.2" font-family="Helvetica,sans-Serif" font-size="11.00" fill="#444443">1</text>
</g>
<!-- node4375035400&#45;&gt;node4374621128 -->
<g id="edge2" class="edge">
<title>node4375035400:1&#45;&gt;node4374621128:w</title>
<path fill="none" stroke="#444443" stroke-width=".5" d="M12.5,-25C21.9043,-25 23.68,-17.6147 30.9387,-15.5376"/>
<polygon fill="#444443" stroke="#444443" stroke-width=".5" points="31.2184,-16.9129 35,-15 30.8508,-14.1371 31.2184,-16.9129"/>
</g>
</g>
</svg>
