<?xml version="1.0" encoding="UTF-8" standalone="no"?>
<!DOCTYPE svg PUBLIC "-//W3C//DTD SVG 1.1//EN"
 "http://www.w3.org/Graphics/SVG/1.1/DTD/svg11.dtd">
<!-- Generated by graphviz version 2.40.1 (20161225.0304)
 -->
<!-- Title: G Pages: 1 -->
<svg width="79pt" height="75pt"
 viewBox="0.00 0.00 79.00 75.00" xmlns="http://www.w3.org/2000/svg" xmlns:xlink="http://www.w3.org/1999/xlink">
<g id="graph0" class="graph" transform="scale(1 1) rotate(0) translate(4 71)">
<title>G</title>
<polygon fill="#ffffff" stroke="transparent" points="-4,4 -4,-71 75,-71 75,4 -4,4"/>
<!-- node4342684872 -->
<g id="node1" class="node">
<title>node4342684872</title>
<polygon fill="#cfe2d4" stroke="#444443" stroke-width=".5" points="13,-49 0,-49 0,-17 13,-17 13,-49"/>
<polygon fill="#cfe2d4" stroke="transparent" points="1.5,-33 1.5,-48 12.5,-48 12.5,-33 1.5,-33"/>
<polyline fill="none" stroke="#444443" points="1.5,-33 12.5,-33 "/>
<text text-anchor="start" x="4.4973" y="-37.8" font-family="Helvetica,sans-Serif" font-size="9.00" fill="#444443">0</text>
<polygon fill="#cfe2d4" stroke="transparent" points="1.5,-18 1.5,-33 12.5,-33 12.5,-18 1.5,-18"/>
<text text-anchor="start" x="4.4973" y="-22.8" font-family="Helvetica,sans-Serif" font-size="9.00" fill="#444443">1</text>
</g>
<!-- node4374703048 -->
<g id="node2" class="node">
<title>node4374703048</title>
<polygon fill="none" stroke="#000000" stroke-width=".5" points="71,-67 35,-67 35,-37 71,-37 71,-67"/>
<polygon fill="#fefecd" stroke="transparent" points="36,-55 36,-66 48,-66 48,-55 36,-55"/>
<polyline fill="none" stroke="#000000" points="36,-55 48,-55 48,-66 "/>
<text text-anchor="start" x="39.4973" y="-57.8" font-family="Helvetica,sans-Serif" font-size="9.00" fill="#444443">0</text>
<polygon fill="#fefecd" stroke="transparent" points="48,-55 48,-66 60,-66 60,-55 48,-55"/>
<polyline fill="none" stroke="#000000" points="48,-55 60,-55 60,-66 "/>
<text text-anchor="start" x="51.4973" y="-57.8" font-family="Helvetica,sans-Serif" font-size="9.00" fill="#444443">1</text>
<polygon fill="#fefecd" stroke="transparent" points="60,-55 60,-66 70,-66 70,-55 60,-55"/>
<polyline fill="none" stroke="#000000" points="60,-55 70,-55 "/>
<text text-anchor="start" x="62.4973" y="-57.8" font-family="Helvetica,sans-Serif" font-size="9.00" fill="#444443">2</text>
<polygon fill="#fefecd" stroke="transparent" points="36,-38 36,-55 48,-55 48,-38 36,-38"/>
<polyline fill="none" stroke="#000000" points="48,-38 48,-55 "/>
<text text-anchor="start" x="38.9412" y="-43.2" font-family="Helvetica,sans-Serif" font-size="11.00" fill="#444443">1</text>
<polygon fill="#fefecd" stroke="transparent" points="48,-38 48,-55 60,-55 60,-38 48,-38"/>
<polyline fill="none" stroke="#000000" points="60,-38 60,-55 "/>
<text text-anchor="start" x="50.9412" y="-43.2" font-family="Helvetica,sans-Serif" font-size="11.00" fill="#444443">2</text>
<polygon fill="#fefecd" stroke="transparent" points="60,-38 60,-55 70,-55 70,-38 60,-38"/>
<text text-anchor="start" x="61.9412" y="-43.2" font-family="Helvetica,sans-Serif" font-size="11.00" fill="#444443">3</text>
</g>
<!-- node4342684872&#45;&gt;node4374703048 -->
<g id="edge1" class="edge">
<title>node4342684872:0&#45;&gt;node4374703048:w</title>
<path fill="none" stroke="#444443" stroke-width=".5" d="M12.5,-41C22.0658,-41 23.5866,-49.1238 30.8897,-51.4086"/>
<polygon fill="#444443" stroke="#444443" stroke-width=".5" points="30.8414,-52.816 35,-52 31.2402,-50.0445 30.8414,-52.816"/>
</g>
<!-- node4374618248 -->
<g id="node3" class="node">
<title>node4374618248</title>
<polygon fill="none" stroke="#000000" stroke-width=".5" points="71,-30 35,-30 35,0 71,0 71,-30"/>
<polygon fill="#fefecd" stroke="transparent" points="36,-18 36,-29 48,-29 48,-18 36,-18"/>
<polyline fill="none" stroke="#000000" points="36,-18 48,-18 48,-29 "/>
<text text-anchor="start" x="39.4973" y="-20.8" font-family="Helvetica,sans-Serif" font-size="9.00" fill="#444443">0</text>
<polygon fill="#fefecd" stroke="transparent" points="48,-18 48,-29 60,-29 60,-18 48,-18"/>
<polyline fill="none" stroke="#000000" points="48,-18 60,-18 60,-29 "/>
<text text-anchor="start" x="51.4973" y="-20.8" font-family="Helvetica,sans-Serif" font-size="9.00" fill="#444443">1</text>
<polygon fill="#fefecd" stroke="transparent" points="60,-18 60,-29 70,-29 70,-18 60,-18"/>
<polyline fill="none" stroke="#000000" points="60,-18 70,-18 "/>
<text text-anchor="start" x="62.4973" y="-20.8" font-family="Helvetica,sans-Serif" font-size="9.00" fill="#444443">2</text>
<polygon fill="#fefecd" stroke="transparent" points="36,-1 36,-18 48,-18 48,-1 36,-1"/>
<polyline fill="none" stroke="#000000" points="48,-1 48,-18 "/>
<text text-anchor="start" x="38.9412" y="-6.2" font-family="Helvetica,sans-Serif" font-size="11.00" fill="#444443">3</text>
<polygon fill="#fefecd" stroke="transparent" points="48,-1 48,-18 60,-18 60,-1 48,-1"/>
<polyline fill="none" stroke="#000000" points="60,-1 60,-18 "/>
<text text-anchor="start" x="50.9412" y="-6.2" font-family="Helvetica,sans-Serif" font-size="11.00" fill="#444443">4</text>
<polygon fill="#fefecd" stroke="transparent" points="60,-1 60,-18 70,-18 70,-1 60,-1"/>
<text text-anchor="start" x="61.9412" y="-6.2" font-family="Helvetica,sans-Serif" font-size="11.00" fill="#444443">5</text>
</g>
<!-- node4342684872&#45;&gt;node4374618248 -->
<g id="edge2" class="edge">
<title>node4342684872:1&#45;&gt;node4374618248:w</title>
<path fill="none" stroke="#444443" stroke-width=".5" d="M12.5,-25C21.9043,-25 23.68,-17.6147 30.9387,-15.5376"/>
<polygon fill="#444443" stroke="#444443" stroke-width=".5" points="31.2184,-16.9129 35,-15 30.8508,-14.1371 31.2184,-16.9129"/>
</g>
</g>
</svg>
