<?xml version="1.0" encoding="UTF-8" standalone="no"?>
<!DOCTYPE svg PUBLIC "-//W3C//DTD SVG 1.1//EN"
 "http://www.w3.org/Graphics/SVG/1.1/DTD/svg11.dtd">
<!-- Generated by graphviz version 2.40.1 (20161225.0304)
 -->
<!-- Title: G Pages: 1 -->
<svg width="98pt" height="55pt"
 viewBox="0.00 0.00 98.00 55.00" xmlns="http://www.w3.org/2000/svg" xmlns:xlink="http://www.w3.org/1999/xlink">
<g id="graph0" class="graph" transform="scale(1 1) rotate(0) translate(4 51)">
<title>G</title>
<polygon fill="#ffffff" stroke="transparent" points="-4,4 -4,-51 94,-51 94,4 -4,4"/>
<!-- node4509061192 -->
<g id="node1" class="node">
<title>node4509061192</title>
<polygon fill="#d9e6f5" stroke="#444443" stroke-width=".5" points="40,-47 0,-47 0,0 40,0 40,-47"/>
<polygon fill="#d9e6f5" stroke="transparent" points="2,-31.5 2,-44.5 38,-44.5 38,-31.5 2,-31.5"/>
<polyline fill="none" stroke="#444443" points="2,-31.5 38,-31.5 "/>
<text text-anchor="start" x="3.8035" y="-34.7" font-family="Times,serif" font-style="italic" font-size="11.00" fill="#444443">globals</text>
<polygon fill="#d9e6f5" stroke="transparent" points="2,-29.5 2,-31.5 38,-31.5 38,-29.5 2,-29.5"/>
<polygon fill="#d9e6f5" stroke="transparent" points="2,-16.5 2,-29.5 24,-29.5 24,-16.5 2,-16.5"/>
<polyline fill="none" stroke="#444443" points="24,-16.5 24,-29.5 "/>
<text text-anchor="start" x="2.6042" y="-19.7" font-family="Helvetica,sans-Serif" font-size="11.00" fill="#444443">you </text>
<polygon fill="#d9e6f5" stroke="transparent" points="24,-16.5 24,-29.5 38,-29.5 38,-16.5 24,-16.5"/>
<text text-anchor="start" x="24.8877" y="-19.7" font-family="Helvetica,sans-Serif" font-size="11.00" fill="#444443"> &#160;&#160;&#160;</text>
<polygon fill="#d9e6f5" stroke="transparent" points="2,-14.5 2,-16.5 38,-16.5 38,-14.5 2,-14.5"/>
<polygon fill="#d9e6f5" stroke="transparent" points="2,-1.5 2,-14.5 24,-14.5 24,-1.5 2,-1.5"/>
<polyline fill="none" stroke="#444443" points="24,-1.5 24,-14.5 "/>
<text text-anchor="start" x="4.6631" y="-4.7" font-family="Helvetica,sans-Serif" font-size="11.00" fill="#444443">me </text>
<polygon fill="#d9e6f5" stroke="transparent" points="24,-1.5 24,-14.5 38,-14.5 38,-1.5 24,-1.5"/>
<text text-anchor="start" x="24.8877" y="-4.7" font-family="Helvetica,sans-Serif" font-size="11.00" fill="#444443"> &#160;&#160;&#160;</text>
</g>
<!-- node4508962504 -->
<g id="node2" class="node">
<title>node4508962504</title>
<polygon fill="none" stroke="#000000" stroke-width=".5" points="90,-30.5 48,-30.5 48,-.5 90,-.5 90,-30.5"/>
<polygon fill="#fefecd" stroke="transparent" points="49,-18.5 49,-29.5 67,-29.5 67,-18.5 49,-18.5"/>
<polyline fill="none" stroke="#000000" points="49,-18.5 67,-18.5 67,-29.5 "/>
<text text-anchor="start" x="55.4973" y="-21.3" font-family="Helvetica,sans-Serif" font-size="9.00" fill="#444443">0</text>
<polygon fill="#fefecd" stroke="transparent" points="67,-18.5 67,-29.5 79,-29.5 79,-18.5 67,-18.5"/>
<polyline fill="none" stroke="#000000" points="67,-18.5 79,-18.5 79,-29.5 "/>
<text text-anchor="start" x="70.4973" y="-21.3" font-family="Helvetica,sans-Serif" font-size="9.00" fill="#444443">1</text>
<polygon fill="#fefecd" stroke="transparent" points="79,-18.5 79,-29.5 89,-29.5 89,-18.5 79,-18.5"/>
<polyline fill="none" stroke="#000000" points="79,-18.5 89,-18.5 "/>
<text text-anchor="start" x="81.4973" y="-21.3" font-family="Helvetica,sans-Serif" font-size="9.00" fill="#444443">2</text>
<polygon fill="#fefecd" stroke="transparent" points="49,-1.5 49,-18.5 67,-18.5 67,-1.5 49,-1.5"/>
<polyline fill="none" stroke="#000000" points="67,-1.5 67,-18.5 "/>
<text text-anchor="start" x="51.8823" y="-6.7" font-family="Helvetica,sans-Serif" font-size="11.00" fill="#444443">99</text>
<polygon fill="#fefecd" stroke="transparent" points="67,-1.5 67,-18.5 79,-18.5 79,-1.5 67,-1.5"/>
<polyline fill="none" stroke="#000000" points="79,-1.5 79,-18.5 "/>
<text text-anchor="start" x="69.9412" y="-6.7" font-family="Helvetica,sans-Serif" font-size="11.00" fill="#444443">3</text>
<polygon fill="#fefecd" stroke="transparent" points="79,-1.5 79,-18.5 89,-18.5 89,-1.5 79,-1.5"/>
<text text-anchor="start" x="80.9412" y="-6.7" font-family="Helvetica,sans-Serif" font-size="11.00" fill="#444443">5</text>
</g>
<!-- node4509061192&#45;&gt;node4508962504 -->
<g id="edge1" class="edge">
<title>node4509061192:c&#45;&gt;node4508962504</title>
<path fill="none" stroke="#444443" stroke-width=".5" d="M34.2522,-21.9009C36.5174,-21.4836 39.7736,-20.8838 43.3956,-20.2166"/>
<ellipse fill="#444443" stroke="#444443" stroke-width=".5" cx="32.5735" cy="-22.2101" rx="1.6" ry="1.6"/>
<polygon fill="#444443" stroke="#444443" stroke-width=".5" points="44.0978,-21.5109 47.778,-19.4093 43.5905,-18.7572 44.0978,-21.5109"/>
</g>
<!-- node4509061192&#45;&gt;node4508962504 -->
<g id="edge2" class="edge">
<title>node4509061192:c&#45;&gt;node4508962504</title>
<path fill="none" stroke="#444443" stroke-width=".5" d="M34.2522,-8.1847C36.5174,-8.6616 39.7736,-9.3471 43.3956,-10.1096"/>
<ellipse fill="#444443" stroke="#444443" stroke-width=".5" cx="32.5657" cy="-7.8297" rx="1.6" ry="1.6"/>
<polygon fill="#444443" stroke="#444443" stroke-width=".5" points="43.5753,-11.5781 47.778,-11.0322 44.1522,-8.8381 43.5753,-11.5781"/>
</g>
</g>
</svg>
