<?xml version="1.0" encoding="UTF-8" standalone="no"?>
<!DOCTYPE svg PUBLIC "-//W3C//DTD SVG 1.1//EN"
 "http://www.w3.org/Graphics/SVG/1.1/DTD/svg11.dtd">
<!-- Generated by graphviz version 2.40.1 (20161225.0304)
 -->
<!-- Title: G Pages: 1 -->
<svg width="92pt" height="55pt"
 viewBox="0.00 0.00 92.00 55.00" xmlns="http://www.w3.org/2000/svg" xmlns:xlink="http://www.w3.org/1999/xlink">
<g id="graph0" class="graph" transform="scale(1 1) rotate(0) translate(4 51)">
<title>G</title>
<polygon fill="#ffffff" stroke="transparent" points="-4,4 -4,-51 88,-51 88,4 -4,4"/>
<!-- node140553757475240 -->
<g id="node1" class="node">
<title>node140553757475240</title>
<polygon fill="#d9e6f5" stroke="#444443" stroke-width=".5" points="40,-47 0,-47 0,0 40,0 40,-47"/>
<polygon fill="#d9e6f5" stroke="transparent" points="2,-31.5 2,-44.5 38,-44.5 38,-31.5 2,-31.5"/>
<polyline fill="none" stroke="#444443" points="2,-31.5 38,-31.5 "/>
<text text-anchor="start" x="3.8035" y="-34.7" font-family="Times,serif" font-style="italic" font-size="11.00" fill="#444443">globals</text>
<polygon fill="#d9e6f5" stroke="transparent" points="2,-29.5 2,-31.5 38,-31.5 38,-29.5 2,-29.5"/>
<polygon fill="#d9e6f5" stroke="transparent" points="2,-16.5 2,-29.5 24,-29.5 24,-16.5 2,-16.5"/>
<polyline fill="none" stroke="#444443" points="24,-16.5 24,-29.5 "/>
<text text-anchor="start" x="2.6042" y="-19.7" font-family="Helvetica,sans-Serif" font-size="11.00" fill="#444443">you </text>
<polygon fill="#d9e6f5" stroke="transparent" points="24,-16.5 24,-29.5 38,-29.5 38,-16.5 24,-16.5"/>
<text text-anchor="start" x="24.8877" y="-19.7" font-family="Helvetica,sans-Serif" font-size="11.00" fill="#444443"> &#160;&#160;&#160;</text>
<polygon fill="#d9e6f5" stroke="transparent" points="2,-14.5 2,-16.5 38,-16.5 38,-14.5 2,-14.5"/>
<polygon fill="#d9e6f5" stroke="transparent" points="2,-1.5 2,-14.5 24,-14.5 24,-1.5 2,-1.5"/>
<polyline fill="none" stroke="#444443" points="24,-1.5 24,-14.5 "/>
<text text-anchor="start" x="4.6631" y="-4.7" font-family="Helvetica,sans-Serif" font-size="11.00" fill="#444443">me </text>
<polygon fill="#d9e6f5" stroke="transparent" points="24,-1.5 24,-14.5 38,-14.5 38,-1.5 24,-1.5"/>
<text text-anchor="start" x="24.8877" y="-4.7" font-family="Helvetica,sans-Serif" font-size="11.00" fill="#444443"> &#160;&#160;&#160;</text>
</g>
<!-- node4508962632 -->
<g id="node2" class="node">
<title>node4508962632</title>
<polygon fill="none" stroke="#000000" stroke-width=".5" points="84,-30.5 48,-30.5 48,-.5 84,-.5 84,-30.5"/>
<polygon fill="#fefecd" stroke="transparent" points="49,-18.5 49,-29.5 61,-29.5 61,-18.5 49,-18.5"/>
<polyline fill="none" stroke="#000000" points="49,-18.5 61,-18.5 61,-29.5 "/>
<text text-anchor="start" x="52.4973" y="-21.3" font-family="Helvetica,sans-Serif" font-size="9.00" fill="#444443">0</text>
<polygon fill="#fefecd" stroke="transparent" points="61,-18.5 61,-29.5 73,-29.5 73,-18.5 61,-18.5"/>
<polyline fill="none" stroke="#000000" points="61,-18.5 73,-18.5 73,-29.5 "/>
<text text-anchor="start" x="64.4973" y="-21.3" font-family="Helvetica,sans-Serif" font-size="9.00" fill="#444443">1</text>
<polygon fill="#fefecd" stroke="transparent" points="73,-18.5 73,-29.5 83,-29.5 83,-18.5 73,-18.5"/>
<polyline fill="none" stroke="#000000" points="73,-18.5 83,-18.5 "/>
<text text-anchor="start" x="75.4973" y="-21.3" font-family="Helvetica,sans-Serif" font-size="9.00" fill="#444443">2</text>
<polygon fill="#fefecd" stroke="transparent" points="49,-1.5 49,-18.5 61,-18.5 61,-1.5 49,-1.5"/>
<polyline fill="none" stroke="#000000" points="61,-1.5 61,-18.5 "/>
<text text-anchor="start" x="51.9412" y="-6.7" font-family="Helvetica,sans-Serif" font-size="11.00" fill="#444443">1</text>
<polygon fill="#fefecd" stroke="transparent" points="61,-1.5 61,-18.5 73,-18.5 73,-1.5 61,-1.5"/>
<polyline fill="none" stroke="#000000" points="73,-1.5 73,-18.5 "/>
<text text-anchor="start" x="63.9412" y="-6.7" font-family="Helvetica,sans-Serif" font-size="11.00" fill="#444443">3</text>
<polygon fill="#fefecd" stroke="transparent" points="73,-1.5 73,-18.5 83,-18.5 83,-1.5 73,-1.5"/>
<text text-anchor="start" x="74.9412" y="-6.7" font-family="Helvetica,sans-Serif" font-size="11.00" fill="#444443">5</text>
</g>
<!-- node140553757475240&#45;&gt;node4508962632 -->
<g id="edge1" class="edge">
<title>node140553757475240:c&#45;&gt;node4508962632</title>
<path fill="none" stroke="#444443" stroke-width=".5" d="M34.2848,-21.843C36.5631,-21.3874 39.8204,-20.7359 43.3886,-20.0223"/>
<ellipse fill="#444443" stroke="#444443" stroke-width=".5" cx="32.5689" cy="-22.1862" rx="1.6" ry="1.6"/>
<polygon fill="#444443" stroke="#444443" stroke-width=".5" points="44.0322,-21.3214 47.68,-19.164 43.483,-18.5757 44.0322,-21.3214"/>
</g>
<!-- node140553757475240&#45;&gt;node4508962632 -->
<g id="edge2" class="edge">
<title>node140553757475240:c&#45;&gt;node4508962632</title>
<path fill="none" stroke="#444443" stroke-width=".5" d="M34.2848,-8.2508C36.5631,-8.7716 39.8204,-9.5161 43.3886,-10.3317"/>
<ellipse fill="#444443" stroke="#444443" stroke-width=".5" cx="32.5598" cy="-7.8566" rx="1.6" ry="1.6"/>
<polygon fill="#444443" stroke="#444443" stroke-width=".5" points="43.4685,-11.786 47.68,-11.3126 44.0925,-9.0564 43.4685,-11.786"/>
</g>
</g>
</svg>
