<?xml version="1.0" encoding="UTF-8" standalone="no"?>
<!DOCTYPE svg PUBLIC "-//W3C//DTD SVG 1.1//EN"
 "http://www.w3.org/Graphics/SVG/1.1/DTD/svg11.dtd">
<!-- Generated by graphviz version 2.40.1 (20161225.0304)
 -->
<!-- Title: G Pages: 1 -->
<svg width="92pt" height="75pt"
 viewBox="0.00 0.00 92.00 75.00" xmlns="http://www.w3.org/2000/svg" xmlns:xlink="http://www.w3.org/1999/xlink">
<g id="graph0" class="graph" transform="scale(1 1) rotate(0) translate(4 71)">
<title>G</title>
<polygon fill="#ffffff" stroke="transparent" points="-4,4 -4,-71 88,-71 88,4 -4,4"/>
<!-- node140553757395624 -->
<g id="node1" class="node">
<title>node140553757395624</title>
<polygon fill="#d9e6f5" stroke="#444443" stroke-width=".5" points="40,-65.5 0,-65.5 0,-18.5 40,-18.5 40,-65.5"/>
<polygon fill="#d9e6f5" stroke="transparent" points="2,-50 2,-63 38,-63 38,-50 2,-50"/>
<polyline fill="none" stroke="#444443" points="2,-50 38,-50 "/>
<text text-anchor="start" x="3.8035" y="-53.2" font-family="Times,serif" font-style="italic" font-size="11.00" fill="#444443">globals</text>
<polygon fill="#d9e6f5" stroke="transparent" points="2,-48 2,-50 38,-50 38,-48 2,-48"/>
<polygon fill="#d9e6f5" stroke="transparent" points="2,-35 2,-48 24,-48 24,-35 2,-35"/>
<polyline fill="none" stroke="#444443" points="24,-35 24,-48 "/>
<text text-anchor="start" x="2.6042" y="-38.2" font-family="Helvetica,sans-Serif" font-size="11.00" fill="#444443">you </text>
<polygon fill="#d9e6f5" stroke="transparent" points="24,-35 24,-48 38,-48 38,-35 24,-35"/>
<text text-anchor="start" x="24.8877" y="-38.2" font-family="Helvetica,sans-Serif" font-size="11.00" fill="#444443"> &#160;&#160;&#160;</text>
<polygon fill="#d9e6f5" stroke="transparent" points="2,-33 2,-35 38,-35 38,-33 2,-33"/>
<polygon fill="#d9e6f5" stroke="transparent" points="2,-20 2,-33 24,-33 24,-20 2,-20"/>
<polyline fill="none" stroke="#444443" points="24,-20 24,-33 "/>
<text text-anchor="start" x="4.6631" y="-23.2" font-family="Helvetica,sans-Serif" font-size="11.00" fill="#444443">me </text>
<polygon fill="#d9e6f5" stroke="transparent" points="24,-20 24,-33 38,-33 38,-20 24,-20"/>
<text text-anchor="start" x="24.8877" y="-23.2" font-family="Helvetica,sans-Serif" font-size="11.00" fill="#444443"> &#160;&#160;&#160;</text>
</g>
<!-- node4508962504 -->
<g id="node2" class="node">
<title>node4508962504</title>
<polygon fill="none" stroke="#000000" stroke-width=".5" points="84,-67 48,-67 48,-37 84,-37 84,-67"/>
<polygon fill="#fefecd" stroke="transparent" points="49,-55 49,-66 61,-66 61,-55 49,-55"/>
<polyline fill="none" stroke="#000000" points="49,-55 61,-55 61,-66 "/>
<text text-anchor="start" x="52.4973" y="-57.8" font-family="Helvetica,sans-Serif" font-size="9.00" fill="#444443">0</text>
<polygon fill="#fefecd" stroke="transparent" points="61,-55 61,-66 73,-66 73,-55 61,-55"/>
<polyline fill="none" stroke="#000000" points="61,-55 73,-55 73,-66 "/>
<text text-anchor="start" x="64.4973" y="-57.8" font-family="Helvetica,sans-Serif" font-size="9.00" fill="#444443">1</text>
<polygon fill="#fefecd" stroke="transparent" points="73,-55 73,-66 83,-66 83,-55 73,-55"/>
<polyline fill="none" stroke="#000000" points="73,-55 83,-55 "/>
<text text-anchor="start" x="75.4973" y="-57.8" font-family="Helvetica,sans-Serif" font-size="9.00" fill="#444443">2</text>
<polygon fill="#fefecd" stroke="transparent" points="49,-38 49,-55 61,-55 61,-38 49,-38"/>
<polyline fill="none" stroke="#000000" points="61,-38 61,-55 "/>
<text text-anchor="start" x="51.9412" y="-43.2" font-family="Helvetica,sans-Serif" font-size="11.00" fill="#444443">1</text>
<polygon fill="#fefecd" stroke="transparent" points="61,-38 61,-55 73,-55 73,-38 61,-38"/>
<polyline fill="none" stroke="#000000" points="73,-38 73,-55 "/>
<text text-anchor="start" x="63.9412" y="-43.2" font-family="Helvetica,sans-Serif" font-size="11.00" fill="#444443">3</text>
<polygon fill="#fefecd" stroke="transparent" points="73,-38 73,-55 83,-55 83,-38 73,-38"/>
<text text-anchor="start" x="74.9412" y="-43.2" font-family="Helvetica,sans-Serif" font-size="11.00" fill="#444443">5</text>
</g>
<!-- node140553757395624&#45;&gt;node4508962504 -->
<g id="edge1" class="edge">
<title>node140553757395624:c&#45;&gt;node4508962504</title>
<path fill="none" stroke="#444443" stroke-width=".5" d="M34.2848,-42.0324C36.6621,-42.7795 40.1055,-43.8617 43.8557,-45.0404"/>
<ellipse fill="#444443" stroke="#444443" stroke-width=".5" cx="32.5264" cy="-41.4798" rx="1.6" ry="1.6"/>
<polygon fill="#444443" stroke="#444443" stroke-width=".5" points="43.4442,-46.3785 47.68,-46.2423 44.2838,-43.7073 43.4442,-46.3785"/>
</g>
<!-- node4508962440 -->
<g id="node3" class="node">
<title>node4508962440</title>
<polygon fill="none" stroke="#000000" stroke-width=".5" points="84,-30 48,-30 48,0 84,0 84,-30"/>
<polygon fill="#fefecd" stroke="transparent" points="49,-18 49,-29 61,-29 61,-18 49,-18"/>
<polyline fill="none" stroke="#000000" points="49,-18 61,-18 61,-29 "/>
<text text-anchor="start" x="52.4973" y="-20.8" font-family="Helvetica,sans-Serif" font-size="9.00" fill="#444443">0</text>
<polygon fill="#fefecd" stroke="transparent" points="61,-18 61,-29 73,-29 73,-18 61,-18"/>
<polyline fill="none" stroke="#000000" points="61,-18 73,-18 73,-29 "/>
<text text-anchor="start" x="64.4973" y="-20.8" font-family="Helvetica,sans-Serif" font-size="9.00" fill="#444443">1</text>
<polygon fill="#fefecd" stroke="transparent" points="73,-18 73,-29 83,-29 83,-18 73,-18"/>
<polyline fill="none" stroke="#000000" points="73,-18 83,-18 "/>
<text text-anchor="start" x="75.4973" y="-20.8" font-family="Helvetica,sans-Serif" font-size="9.00" fill="#444443">2</text>
<polygon fill="#fefecd" stroke="transparent" points="49,-1 49,-18 61,-18 61,-1 49,-1"/>
<polyline fill="none" stroke="#000000" points="61,-1 61,-18 "/>
<text text-anchor="start" x="51.9412" y="-6.2" font-family="Helvetica,sans-Serif" font-size="11.00" fill="#444443">1</text>
<polygon fill="#fefecd" stroke="transparent" points="61,-1 61,-18 73,-18 73,-1 61,-1"/>
<polyline fill="none" stroke="#000000" points="73,-1 73,-18 "/>
<text text-anchor="start" x="63.9412" y="-6.2" font-family="Helvetica,sans-Serif" font-size="11.00" fill="#444443">3</text>
<polygon fill="#fefecd" stroke="transparent" points="73,-1 73,-18 83,-18 83,-1 73,-1"/>
<text text-anchor="start" x="74.9412" y="-6.2" font-family="Helvetica,sans-Serif" font-size="11.00" fill="#444443">5</text>
</g>
<!-- node140553757395624&#45;&gt;node4508962440 -->
<g id="edge2" class="edge">
<title>node140553757395624:c&#45;&gt;node4508962440</title>
<path fill="none" stroke="#444443" stroke-width=".5" d="M34.2848,-24.9676C36.6621,-24.2205 40.1055,-23.1383 43.8557,-21.9596"/>
<ellipse fill="#444443" stroke="#444443" stroke-width=".5" cx="32.5264" cy="-25.5202" rx="1.6" ry="1.6"/>
<polygon fill="#444443" stroke="#444443" stroke-width=".5" points="44.2838,-23.2927 47.68,-20.7577 43.4442,-20.6215 44.2838,-23.2927"/>
</g>
</g>
</svg>
