<?xml version="1.0" encoding="UTF-8" standalone="no"?>
<!DOCTYPE svg PUBLIC "-//W3C//DTD SVG 1.1//EN"
 "http://www.w3.org/Graphics/SVG/1.1/DTD/svg11.dtd">
<!-- Generated by graphviz version 2.40.1 (20161225.0304)
 -->
<!-- Title: G Pages: 1 -->
<svg width="46pt" height="55pt"
 viewBox="0.00 0.00 46.00 55.00" xmlns="http://www.w3.org/2000/svg" xmlns:xlink="http://www.w3.org/1999/xlink">
<g id="graph0" class="graph" transform="scale(1 1) rotate(0) translate(4 51)">
<title>G</title>
<polygon fill="#ffffff" stroke="transparent" points="-4,4 -4,-51 42,-51 42,4 -4,4"/>
<!-- node4509156840 -->
<g id="node1" class="node">
<title>node4509156840</title>
<polygon fill="#d9e6f5" stroke="#444443" stroke-width=".5" points="38,-47 0,-47 0,0 38,0 38,-47"/>
<polygon fill="#d9e6f5" stroke="transparent" points="2,-31.5 2,-44.5 36,-44.5 36,-31.5 2,-31.5"/>
<polyline fill="none" stroke="#444443" points="2,-31.5 36,-31.5 "/>
<text text-anchor="start" x="2.8035" y="-34.7" font-family="Times,serif" font-style="italic" font-size="11.00" fill="#444443">globals</text>
<polygon fill="#d9e6f5" stroke="transparent" points="2,-29.5 2,-31.5 36,-31.5 36,-29.5 2,-29.5"/>
<polygon fill="#d9e6f5" stroke="transparent" points="2,-16.5 2,-29.5 18,-29.5 18,-16.5 2,-16.5"/>
<polyline fill="none" stroke="#444443" points="18,-16.5 18,-29.5 "/>
<text text-anchor="start" x="8.4438" y="-19.7" font-family="Helvetica,sans-Serif" font-size="11.00" fill="#444443">x </text>
<polygon fill="#d9e6f5" stroke="transparent" points="21,-16.5 21,-29.5 36,-29.5 36,-16.5 21,-16.5"/>
<text text-anchor="start" x="22" y="-19.7" font-family="Helvetica,sans-Serif" font-size="11.00" fill="#444443"> 7</text>
<polygon fill="#d9e6f5" stroke="transparent" points="2,-14.5 2,-16.5 36,-16.5 36,-14.5 2,-14.5"/>
<polygon fill="#d9e6f5" stroke="transparent" points="2,-1.5 2,-14.5 18,-14.5 18,-1.5 2,-1.5"/>
<polyline fill="none" stroke="#444443" points="18,-1.5 18,-14.5 "/>
<text text-anchor="start" x="8.4438" y="-4.7" font-family="Helvetica,sans-Serif" font-size="11.00" fill="#444443">y </text>
<polygon fill="#d9e6f5" stroke="transparent" points="21,-1.5 21,-14.5 36,-14.5 36,-1.5 21,-1.5"/>
<text text-anchor="start" x="22" y="-4.7" font-family="Helvetica,sans-Serif" font-size="11.00" fill="#444443"> 7</text>
</g>
</g>
</svg>
