<?xml version="1.0" encoding="UTF-8" standalone="no"?>
<!DOCTYPE svg PUBLIC "-//W3C//DTD SVG 1.1//EN"
 "http://www.w3.org/Graphics/SVG/1.1/DTD/svg11.dtd">
<!-- Generated by graphviz version 2.40.1 (20161225.0304)
 -->
<!-- Title: G Pages: 1 -->
<svg width="99pt" height="84pt"
 viewBox="0.00 0.00 99.00 84.00" xmlns="http://www.w3.org/2000/svg" xmlns:xlink="http://www.w3.org/1999/xlink">
<g id="graph0" class="graph" transform="scale(1 1) rotate(0) translate(4 80)">
<title>G</title>
<polygon fill="#ffffff" stroke="transparent" points="-4,4 -4,-80 95,-80 95,4 -4,4"/>
<!-- node4508966360 -->
<g id="node1" class="node">
<title>node4508966360</title>
<polygon fill="#d9e6f5" stroke="#444443" stroke-width=".5" points="38,-70.5 0,-70.5 0,-23.5 38,-23.5 38,-70.5"/>
<polygon fill="#d9e6f5" stroke="transparent" points="2,-55 2,-68 36,-68 36,-55 2,-55"/>
<polyline fill="none" stroke="#444443" points="2,-55 36,-55 "/>
<text text-anchor="start" x="2.8035" y="-58.2" font-family="Times,serif" font-style="italic" font-size="11.00" fill="#444443">globals</text>
<polygon fill="#d9e6f5" stroke="transparent" points="2,-53 2,-55 36,-55 36,-53 2,-53"/>
<polygon fill="#d9e6f5" stroke="transparent" points="2,-40 2,-53 18,-53 18,-40 2,-40"/>
<polyline fill="none" stroke="#444443" points="18,-40 18,-53 "/>
<text text-anchor="start" x="6.6069" y="-43.2" font-family="Helvetica,sans-Serif" font-size="11.00" fill="#444443">X </text>
<polygon fill="#d9e6f5" stroke="transparent" points="20,-40 20,-53 36,-53 36,-40 20,-40"/>
<text text-anchor="start" x="21" y="-43.2" font-family="Helvetica,sans-Serif" font-size="11.00" fill="#444443"> &#160;&#160;&#160;</text>
<polygon fill="#d9e6f5" stroke="transparent" points="2,-38 2,-40 36,-40 36,-38 2,-38"/>
<polygon fill="#d9e6f5" stroke="transparent" points="2,-25 2,-38 18,-38 18,-25 2,-25"/>
<polyline fill="none" stroke="#444443" points="18,-25 18,-38 "/>
<text text-anchor="start" x="6.8003" y="-28.2" font-family="Helvetica,sans-Serif" font-size="11.00" fill="#444443">Y </text>
<polygon fill="#d9e6f5" stroke="transparent" points="20,-25 20,-38 36,-38 36,-25 20,-25"/>
<text text-anchor="start" x="21" y="-28.2" font-family="Helvetica,sans-Serif" font-size="11.00" fill="#444443"> &#160;&#160;&#160;</text>
</g>
<!-- node4508961416 -->
<g id="node2" class="node">
<title>node4508961416</title>
<polygon fill="#cfe2d4" stroke="#444443" stroke-width=".5" points="59,-74 46,-74 46,-42 59,-42 59,-74"/>
<polygon fill="#cfe2d4" stroke="transparent" points="47.5,-58 47.5,-73 58.5,-73 58.5,-58 47.5,-58"/>
<polyline fill="none" stroke="#444443" points="47.5,-58 58.5,-58 "/>
<text text-anchor="start" x="50.4973" y="-62.8" font-family="Helvetica,sans-Serif" font-size="9.00" fill="#444443">0</text>
<polygon fill="#cfe2d4" stroke="transparent" points="47.5,-43 47.5,-58 58.5,-58 58.5,-43 47.5,-43"/>
<text text-anchor="start" x="50.4973" y="-47.8" font-family="Helvetica,sans-Serif" font-size="9.00" fill="#444443">1</text>
</g>
<!-- node4508966360&#45;&gt;node4508961416 -->
<g id="edge5" class="edge">
<title>node4508966360:c&#45;&gt;node4508961416</title>
<path fill="none" stroke="#444443" stroke-width=".5" d="M30.9188,-47.4296C33.6566,-48.7706 37.9199,-50.8587 41.9365,-52.826"/>
<ellipse fill="#444443" stroke="#444443" stroke-width=".5" cx="29.4369" cy="-46.7038" rx="1.6" ry="1.6"/>
<polygon fill="#444443" stroke="#444443" stroke-width=".5" points="41.5972,-54.2187 45.8053,-54.7209 42.8288,-51.7041 41.5972,-54.2187"/>
</g>
<!-- node4507679688 -->
<g id="node5" class="node">
<title>node4507679688</title>
<polygon fill="#cfe2d4" stroke="#444443" stroke-width=".5" points="59,-35 46,-35 46,-3 59,-3 59,-35"/>
<polygon fill="#cfe2d4" stroke="transparent" points="47.5,-19 47.5,-34 58.5,-34 58.5,-19 47.5,-19"/>
<polyline fill="none" stroke="#444443" points="47.5,-19 58.5,-19 "/>
<text text-anchor="start" x="50.4973" y="-23.8" font-family="Helvetica,sans-Serif" font-size="9.00" fill="#444443">0</text>
<polygon fill="#cfe2d4" stroke="transparent" points="47.5,-4 47.5,-19 58.5,-19 58.5,-4 47.5,-4"/>
<text text-anchor="start" x="50.4973" y="-8.8" font-family="Helvetica,sans-Serif" font-size="9.00" fill="#444443">1</text>
</g>
<!-- node4508966360&#45;&gt;node4507679688 -->
<g id="edge6" class="edge">
<title>node4508966360:c&#45;&gt;node4507679688</title>
<path fill="none" stroke="#444443" stroke-width=".5" d="M30.9188,-29.5704C33.6566,-28.2294 37.9199,-26.1413 41.9365,-24.174"/>
<ellipse fill="#444443" stroke="#444443" stroke-width=".5" cx="29.4369" cy="-30.2962" rx="1.6" ry="1.6"/>
<polygon fill="#444443" stroke="#444443" stroke-width=".5" points="42.8288,-25.2959 45.8053,-22.2791 41.5972,-22.7813 42.8288,-25.2959"/>
</g>
<!-- node4508897096 -->
<g id="node3" class="node">
<title>node4508897096</title>
<polygon fill="none" stroke="#000000" stroke-width=".5" points="91,-76 67,-76 67,-46 91,-46 91,-76"/>
<polygon fill="#fefecd" stroke="transparent" points="68,-64 68,-75 80,-75 80,-64 68,-64"/>
<polyline fill="none" stroke="#000000" points="68,-64 80,-64 80,-75 "/>
<text text-anchor="start" x="71.4973" y="-66.8" font-family="Helvetica,sans-Serif" font-size="9.00" fill="#444443">0</text>
<polygon fill="#fefecd" stroke="transparent" points="80,-64 80,-75 90,-75 90,-64 80,-64"/>
<polyline fill="none" stroke="#000000" points="80,-64 90,-64 "/>
<text text-anchor="start" x="82.4973" y="-66.8" font-family="Helvetica,sans-Serif" font-size="9.00" fill="#444443">1</text>
<polygon fill="#fefecd" stroke="transparent" points="68,-47 68,-64 80,-64 80,-47 68,-47"/>
<polyline fill="none" stroke="#000000" points="80,-47 80,-64 "/>
<text text-anchor="start" x="70.9412" y="-52.2" font-family="Helvetica,sans-Serif" font-size="11.00" fill="#444443">1</text>
<polygon fill="#fefecd" stroke="transparent" points="80,-47 80,-64 90,-64 90,-47 80,-47"/>
<text text-anchor="start" x="81.9412" y="-52.2" font-family="Helvetica,sans-Serif" font-size="11.00" fill="#444443">2</text>
</g>
<!-- node4508961416&#45;&gt;node4508897096 -->
<g id="edge1" class="edge">
<title>node4508961416:0&#45;&gt;node4508897096:w</title>
<path fill="none" stroke="#444443" stroke-width=".5" d="M58.5,-66C60.9654,-66 61.9599,-64.418 63.1382,-63.0337"/>
<polygon fill="#444443" stroke="#444443" stroke-width=".5" points="64.1131,-64.1026 67,-61 62.8084,-61.6252 64.1131,-64.1026"/>
</g>
<!-- node4509115272 -->
<g id="node4" class="node">
<title>node4509115272</title>
<polygon fill="none" stroke="#000000" stroke-width=".5" points="91,-30 67,-30 67,0 91,0 91,-30"/>
<polygon fill="#fefecd" stroke="transparent" points="68,-18 68,-29 80,-29 80,-18 68,-18"/>
<polyline fill="none" stroke="#000000" points="68,-18 80,-18 80,-29 "/>
<text text-anchor="start" x="71.4973" y="-20.8" font-family="Helvetica,sans-Serif" font-size="9.00" fill="#444443">0</text>
<polygon fill="#fefecd" stroke="transparent" points="80,-18 80,-29 90,-29 90,-18 80,-18"/>
<polyline fill="none" stroke="#000000" points="80,-18 90,-18 "/>
<text text-anchor="start" x="82.4973" y="-20.8" font-family="Helvetica,sans-Serif" font-size="9.00" fill="#444443">1</text>
<polygon fill="#fefecd" stroke="transparent" points="68,-1 68,-18 80,-18 80,-1 68,-1"/>
<polyline fill="none" stroke="#000000" points="80,-1 80,-18 "/>
<text text-anchor="start" x="70.9412" y="-6.2" font-family="Helvetica,sans-Serif" font-size="11.00" fill="#444443">3</text>
<polygon fill="#fefecd" stroke="transparent" points="80,-1 80,-18 90,-18 90,-1 80,-1"/>
<text text-anchor="start" x="81.9412" y="-6.2" font-family="Helvetica,sans-Serif" font-size="11.00" fill="#444443">4</text>
</g>
<!-- node4508961416&#45;&gt;node4509115272 -->
<g id="edge2" class="edge">
<title>node4508961416:1&#45;&gt;node4509115272:w</title>
<path fill="none" stroke="#444443" stroke-width=".5" d="M53.5,-43C53.5,-39.6964 57.1789,-40.7563 59,-38 63.8475,-30.6631 58.9542,-20.0651 62.754,-16.3487"/>
<polygon fill="#444443" stroke="#444443" stroke-width=".5" points="63.6116,-17.5453 67,-15 62.7638,-14.8767 63.6116,-17.5453"/>
</g>
<!-- node4507679688&#45;&gt;node4508897096 -->
<g id="edge3" class="edge">
<title>node4507679688:0&#45;&gt;node4508897096:w</title>
<path fill="none" stroke="#444443" stroke-width=".5" d="M53.5,-34C53.5,-37.3036 57.1596,-36.2565 59,-39 63.7093,-46.0201 59.1789,-56.156 62.8949,-59.7101"/>
<polygon fill="#444443" stroke="#444443" stroke-width=".5" points="62.7642,-61.1365 67,-61 63.6036,-58.4653 62.7642,-61.1365"/>
</g>
<!-- node4507679688&#45;&gt;node4509115272 -->
<g id="edge4" class="edge">
<title>node4507679688:1&#45;&gt;node4509115272:w</title>
<path fill="none" stroke="#444443" stroke-width=".5" d="M58.5,-11C60.8485,-11 61.9234,-12.2656 63.1574,-13.373"/>
<polygon fill="#444443" stroke="#444443" stroke-width=".5" points="62.7707,-14.7296 67,-15 63.8624,-12.1512 62.7707,-14.7296"/>
</g>
</g>
</svg>
