<?xml version="1.0" encoding="UTF-8" standalone="no"?>
<!DOCTYPE svg PUBLIC "-//W3C//DTD SVG 1.1//EN"
 "http://www.w3.org/Graphics/SVG/1.1/DTD/svg11.dtd">
<!-- Generated by graphviz version 2.40.1 (20161225.0304)
 -->
<!-- Title: G Pages: 1 -->
<svg width="46pt" height="95pt"
 viewBox="0.00 0.00 46.00 94.50" xmlns="http://www.w3.org/2000/svg" xmlns:xlink="http://www.w3.org/1999/xlink">
<g id="graph0" class="graph" transform="scale(1 1) rotate(0) translate(4 90.5)">
<title>G</title>
<polygon fill="#ffffff" stroke="transparent" points="-4,4 -4,-90.5 42,-90.5 42,4 -4,4"/>
<!-- node4400719816 -->
<g id="node1" class="node">
<title>node4400719816</title>
<polygon fill="#d9e6f5" stroke="#444443" stroke-width=".5" points="38,-86.5 0,-86.5 0,-54.5 38,-54.5 38,-86.5"/>
<polygon fill="#d9e6f5" stroke="transparent" points="2,-71.5 2,-84.5 36,-84.5 36,-71.5 2,-71.5"/>
<polyline fill="none" stroke="#444443" points="2,-71.5 36,-71.5 "/>
<text text-anchor="start" x="2.8035" y="-74.7" font-family="Times,serif" font-style="italic" font-size="11.00" fill="#444443">globals</text>
<polygon fill="#d9e6f5" stroke="transparent" points="2,-69.5 2,-71.5 36,-71.5 36,-69.5 2,-69.5"/>
<polygon fill="#d9e6f5" stroke="transparent" points="2,-56.5 2,-69.5 15,-69.5 15,-56.5 2,-56.5"/>
<polyline fill="none" stroke="#444443" points="15,-56.5 15,-69.5 "/>
<text text-anchor="start" x="5.4438" y="-59.7" font-family="Helvetica,sans-Serif" font-size="11.00" fill="#444443">z </text>
<polygon fill="#d9e6f5" stroke="transparent" points="17,-56.5 17,-69.5 36,-69.5 36,-56.5 17,-56.5"/>
<text text-anchor="start" x="18" y="-59.7" font-family="Helvetica,sans-Serif" font-size="11.00" fill="#444443"> 99</text>
</g>
<!-- node140650211574408 -->
<g id="node2" class="node">
<title>node140650211574408</title>
<polygon fill="#d9e6f5" stroke="#444443" stroke-width=".5" points="35,-47 3,-47 3,0 35,0 35,-47"/>
<polygon fill="#d9e6f5" stroke="transparent" points="5,-31.5 5,-44.5 33,-44.5 33,-31.5 5,-31.5"/>
<polyline fill="none" stroke="#444443" points="5,-31.5 33,-31.5 "/>
<text text-anchor="start" x="17.4719" y="-34.7" font-family="Times,serif" font-style="italic" font-size="11.00" fill="#444443">f</text>
<polygon fill="#d9e6f5" stroke="transparent" points="5,-29.5 5,-31.5 33,-31.5 33,-29.5 5,-29.5"/>
<polygon fill="#d9e6f5" stroke="transparent" points="5,-16.5 5,-29.5 16,-29.5 16,-16.5 5,-16.5"/>
<polyline fill="none" stroke="#444443" points="16,-16.5 16,-29.5 "/>
<text text-anchor="start" x="7.3677" y="-19.7" font-family="Times,serif" font-style="italic" font-size="11.00" fill="#444443">x </text>
<polygon fill="#d9e6f5" stroke="transparent" points="16,-16.5 16,-29.5 33,-29.5 33,-16.5 16,-16.5"/>
<text text-anchor="start" x="16.8542" y="-19.7" font-family="Helvetica,sans-Serif" font-size="11.00" fill="#444443"> 33</text>
<polygon fill="#d9e6f5" stroke="transparent" points="5,-14.5 5,-16.5 33,-16.5 33,-14.5 5,-14.5"/>
<polygon fill="#d9e6f5" stroke="transparent" points="5,-1.5 5,-14.5 16,-14.5 16,-1.5 5,-1.5"/>
<polyline fill="none" stroke="#444443" points="16,-1.5 16,-14.5 "/>
<text text-anchor="start" x="5.9131" y="-4.7" font-family="Helvetica,sans-Serif" font-size="11.00" fill="#444443">q </text>
<polygon fill="#d9e6f5" stroke="transparent" points="16,-1.5 16,-14.5 33,-14.5 33,-1.5 16,-1.5"/>
<text text-anchor="start" x="17" y="-4.7" font-family="Helvetica,sans-Serif" font-size="11.00" fill="#444443"> 0</text>
</g>
<!-- node4400719816&#45;&gt;node140650211574408 -->
</g>
</svg>
