<?xml version="1.0" encoding="UTF-8" standalone="no"?>
<!DOCTYPE svg PUBLIC "-//W3C//DTD SVG 1.1//EN"
 "http://www.w3.org/Graphics/SVG/1.1/DTD/svg11.dtd">
<!-- Generated by graphviz version 2.40.1 (20161225.0304)
 -->
<!-- Title: G Pages: 1 -->
<svg width="245pt" height="77pt"
 viewBox="0.00 0.00 245.00 77.00" xmlns="http://www.w3.org/2000/svg" xmlns:xlink="http://www.w3.org/1999/xlink">
<g id="graph0" class="graph" transform="scale(1 1) rotate(0) translate(4 73)">
<title>G</title>
<polygon fill="#ffffff" stroke="transparent" points="-4,4 -4,-73 241,-73 241,4 -4,4"/>
<!-- node4399237384 -->
<g id="node1" class="node">
<title>node4399237384</title>
<polygon fill="#d9e6f5" stroke="#444443" stroke-width=".5" points="73,-69 0,-69 0,-7 73,-7 73,-69"/>
<polygon fill="#d9e6f5" stroke="transparent" points="2.5,-54 2.5,-67 71.5,-67 71.5,-54 2.5,-54"/>
<polyline fill="none" stroke="#444443" points="2.5,-54 71.5,-54 "/>
<text text-anchor="start" x="20.8035" y="-57.2" font-family="Times,serif" font-style="italic" font-size="11.00" fill="#444443">globals</text>
<polygon fill="#d9e6f5" stroke="transparent" points="2.5,-52 2.5,-54 71.5,-54 71.5,-52 2.5,-52"/>
<polygon fill="#d9e6f5" stroke="transparent" points="2.5,-39 2.5,-52 48.5,-52 48.5,-39 2.5,-39"/>
<polyline fill="none" stroke="#444443" points="48.5,-39 48.5,-52 "/>
<text text-anchor="start" x="23.6631" y="-42.2" font-family="Helvetica,sans-Serif" font-size="11.00" fill="#444443">sum </text>
<polygon fill="#d9e6f5" stroke="transparent" points="48.5,-39 48.5,-52 71.5,-52 71.5,-39 48.5,-39"/>
<text text-anchor="start" x="49.2954" y="-42.2" font-family="Helvetica,sans-Serif" font-size="11.00" fill="#444443"> 207</text>
<polygon fill="#d9e6f5" stroke="transparent" points="2.5,-37 2.5,-39 71.5,-39 71.5,-37 2.5,-37"/>
<polygon fill="#d9e6f5" stroke="transparent" points="2.5,-24 2.5,-37 48.5,-37 48.5,-24 2.5,-24"/>
<polyline fill="none" stroke="#444443" points="48.5,-24 48.5,-37 "/>
<text text-anchor="start" x="38.3262" y="-27.2" font-family="Helvetica,sans-Serif" font-size="11.00" fill="#444443">q </text>
<polygon fill="#d9e6f5" stroke="transparent" points="48.5,-24 48.5,-37 71.5,-37 71.5,-24 48.5,-24"/>
<text text-anchor="start" x="49.5" y="-27.2" font-family="Helvetica,sans-Serif" font-size="11.00" fill="#444443"> 21</text>
<polygon fill="#d9e6f5" stroke="transparent" points="2.5,-22 2.5,-24 71.5,-24 71.5,-22 2.5,-22"/>
<polygon fill="#d9e6f5" stroke="transparent" points="2.5,-9 2.5,-22 48.5,-22 48.5,-9 2.5,-9"/>
<polyline fill="none" stroke="#444443" points="48.5,-9 48.5,-22 "/>
<text text-anchor="start" x="3.4893" y="-12.2" font-family="Helvetica,sans-Serif" font-size="11.00" fill="#444443">Quantity </text>
<polygon fill="#d9e6f5" stroke="transparent" points="48.5,-9 48.5,-22 71.5,-22 71.5,-9 48.5,-9"/>
<text text-anchor="start" x="49.5" y="-12.2" font-family="Helvetica,sans-Serif" font-size="11.00" fill="#444443"> &#160;&#160;&#160;</text>
</g>
<!-- node4399267208 -->
<g id="node2" class="node">
<title>node4399267208</title>
<polygon fill="none" stroke="#000000" stroke-width=".5" points="237,-30 81,-30 81,0 237,0 237,-30"/>
<polygon fill="#fefecd" stroke="transparent" points="82,-18 82,-29 94,-29 94,-18 82,-18"/>
<polyline fill="none" stroke="#000000" points="82,-18 94,-18 94,-29 "/>
<text text-anchor="start" x="85.4973" y="-20.8" font-family="Helvetica,sans-Serif" font-size="9.00" fill="#444443">0</text>
<polygon fill="#fefecd" stroke="transparent" points="94,-18 94,-29 112,-29 112,-18 94,-18"/>
<polyline fill="none" stroke="#000000" points="94,-18 112,-18 112,-29 "/>
<text text-anchor="start" x="100.4973" y="-20.8" font-family="Helvetica,sans-Serif" font-size="9.00" fill="#444443">1</text>
<polygon fill="#fefecd" stroke="transparent" points="112,-18 112,-29 130,-29 130,-18 112,-18"/>
<polyline fill="none" stroke="#000000" points="112,-18 130,-18 130,-29 "/>
<text text-anchor="start" x="118.4973" y="-20.8" font-family="Helvetica,sans-Serif" font-size="9.00" fill="#444443">2</text>
<polygon fill="#fefecd" stroke="transparent" points="130,-18 130,-29 148,-29 148,-18 130,-18"/>
<polyline fill="none" stroke="#000000" points="130,-18 148,-18 148,-29 "/>
<text text-anchor="start" x="136.4973" y="-20.8" font-family="Helvetica,sans-Serif" font-size="9.00" fill="#444443">3</text>
<polygon fill="#fefecd" stroke="transparent" points="148,-18 148,-29 166,-29 166,-18 148,-18"/>
<polyline fill="none" stroke="#000000" points="148,-18 166,-18 166,-29 "/>
<text text-anchor="start" x="154.4973" y="-20.8" font-family="Helvetica,sans-Serif" font-size="9.00" fill="#444443">4</text>
<polygon fill="#fefecd" stroke="transparent" points="166,-18 166,-29 184,-29 184,-18 166,-18"/>
<polyline fill="none" stroke="#000000" points="166,-18 184,-18 184,-29 "/>
<text text-anchor="start" x="172.4973" y="-20.8" font-family="Helvetica,sans-Serif" font-size="9.00" fill="#444443">5</text>
<polygon fill="#fefecd" stroke="transparent" points="184,-18 184,-29 202,-29 202,-18 184,-18"/>
<polyline fill="none" stroke="#000000" points="184,-18 202,-18 202,-29 "/>
<text text-anchor="start" x="190.4973" y="-20.8" font-family="Helvetica,sans-Serif" font-size="9.00" fill="#444443">6</text>
<polygon fill="#fefecd" stroke="transparent" points="202,-18 202,-29 220,-29 220,-18 202,-18"/>
<polyline fill="none" stroke="#000000" points="202,-18 220,-18 220,-29 "/>
<text text-anchor="start" x="208.4973" y="-20.8" font-family="Helvetica,sans-Serif" font-size="9.00" fill="#444443">7</text>
<polygon fill="#fefecd" stroke="transparent" points="220,-18 220,-29 236,-29 236,-18 220,-18"/>
<polyline fill="none" stroke="#000000" points="220,-18 236,-18 "/>
<text text-anchor="start" x="225.4973" y="-20.8" font-family="Helvetica,sans-Serif" font-size="9.00" fill="#444443">8</text>
<polygon fill="#fefecd" stroke="transparent" points="82,-1 82,-18 94,-18 94,-1 82,-1"/>
<polyline fill="none" stroke="#000000" points="94,-1 94,-18 "/>
<text text-anchor="start" x="84.9412" y="-6.2" font-family="Helvetica,sans-Serif" font-size="11.00" fill="#444443">6</text>
<polygon fill="#fefecd" stroke="transparent" points="94,-1 94,-18 112,-18 112,-1 94,-1"/>
<polyline fill="none" stroke="#000000" points="112,-1 112,-18 "/>
<text text-anchor="start" x="96.8823" y="-6.2" font-family="Helvetica,sans-Serif" font-size="11.00" fill="#444443">49</text>
<polygon fill="#fefecd" stroke="transparent" points="112,-1 112,-18 130,-18 130,-1 112,-1"/>
<polyline fill="none" stroke="#000000" points="130,-1 130,-18 "/>
<text text-anchor="start" x="114.8823" y="-6.2" font-family="Helvetica,sans-Serif" font-size="11.00" fill="#444443">27</text>
<polygon fill="#fefecd" stroke="transparent" points="130,-1 130,-18 148,-18 148,-1 130,-1"/>
<polyline fill="none" stroke="#000000" points="148,-1 148,-18 "/>
<text text-anchor="start" x="132.8823" y="-6.2" font-family="Helvetica,sans-Serif" font-size="11.00" fill="#444443">30</text>
<polygon fill="#fefecd" stroke="transparent" points="148,-1 148,-18 166,-18 166,-1 148,-1"/>
<polyline fill="none" stroke="#000000" points="166,-1 166,-18 "/>
<text text-anchor="start" x="150.8823" y="-6.2" font-family="Helvetica,sans-Serif" font-size="11.00" fill="#444443">19</text>
<polygon fill="#fefecd" stroke="transparent" points="166,-1 166,-18 184,-18 184,-1 166,-1"/>
<polyline fill="none" stroke="#000000" points="184,-1 184,-18 "/>
<text text-anchor="start" x="168.8823" y="-6.2" font-family="Helvetica,sans-Serif" font-size="11.00" fill="#444443">21</text>
<polygon fill="#fefecd" stroke="transparent" points="184,-1 184,-18 202,-18 202,-1 184,-1"/>
<polyline fill="none" stroke="#000000" points="202,-1 202,-18 "/>
<text text-anchor="start" x="186.8823" y="-6.2" font-family="Helvetica,sans-Serif" font-size="11.00" fill="#444443">12</text>
<polygon fill="#fefecd" stroke="transparent" points="202,-1 202,-18 220,-18 220,-1 202,-1"/>
<polyline fill="none" stroke="#000000" points="220,-1 220,-18 "/>
<text text-anchor="start" x="204.8823" y="-6.2" font-family="Helvetica,sans-Serif" font-size="11.00" fill="#444443">22</text>
<polygon fill="#fefecd" stroke="transparent" points="220,-1 220,-18 236,-18 236,-1 220,-1"/>
<text text-anchor="start" x="221.8823" y="-6.2" font-family="Helvetica,sans-Serif" font-size="11.00" fill="#444443">21</text>
</g>
<!-- node4399237384&#45;&gt;node4399267208 -->
<g id="edge1" class="edge">
<title>node4399237384:c&#45;&gt;node4399267208</title>
<path fill="none" stroke="#444443" stroke-width=".5" d="M63.8054,-15C66.6716,-15 71.2389,-15 76.8585,-15"/>
<ellipse fill="#444443" stroke="#444443" stroke-width=".5" cx="62.1" cy="-15" rx="1.6" ry="1.6"/>
<polygon fill="#444443" stroke="#444443" stroke-width=".5" points="76.9093,-16.4001 80.9093,-15 76.9092,-13.6001 76.9093,-16.4001"/>
</g>
</g>
</svg>
