<?xml version="1.0" encoding="UTF-8" standalone="no"?>
<!DOCTYPE svg PUBLIC "-//W3C//DTD SVG 1.1//EN"
 "http://www.w3.org/Graphics/SVG/1.1/DTD/svg11.dtd">
<!-- Generated by graphviz version 2.40.1 (20161225.0304)
 -->
<!-- Title: G Pages: 1 -->
<svg width="46pt" height="134pt"
 viewBox="0.00 0.00 46.00 134.00" xmlns="http://www.w3.org/2000/svg" xmlns:xlink="http://www.w3.org/1999/xlink">
<g id="graph0" class="graph" transform="scale(1 1) rotate(0) translate(4 130)">
<title>G</title>
<polygon fill="#ffffff" stroke="transparent" points="-4,4 -4,-130 42,-130 42,4 -4,4"/>
<!-- node4400719816 -->
<g id="node1" class="node">
<title>node4400719816</title>
<polygon fill="#d9e6f5" stroke="#444443" stroke-width=".5" points="38,-126 0,-126 0,-94 38,-94 38,-126"/>
<polygon fill="#d9e6f5" stroke="transparent" points="2,-111 2,-124 36,-124 36,-111 2,-111"/>
<polyline fill="none" stroke="#444443" points="2,-111 36,-111 "/>
<text text-anchor="start" x="2.8035" y="-114.2" font-family="Times,serif" font-style="italic" font-size="11.00" fill="#444443">globals</text>
<polygon fill="#d9e6f5" stroke="transparent" points="2,-109 2,-111 36,-111 36,-109 2,-109"/>
<polygon fill="#d9e6f5" stroke="transparent" points="2,-96 2,-109 15,-109 15,-96 2,-96"/>
<polyline fill="none" stroke="#444443" points="15,-96 15,-109 "/>
<text text-anchor="start" x="5.4438" y="-99.2" font-family="Helvetica,sans-Serif" font-size="11.00" fill="#444443">z </text>
<polygon fill="#d9e6f5" stroke="transparent" points="17,-96 17,-109 36,-109 36,-96 17,-96"/>
<text text-anchor="start" x="18" y="-99.2" font-family="Helvetica,sans-Serif" font-size="11.00" fill="#444443"> 99</text>
</g>
<!-- node140650211574408 -->
<g id="node2" class="node">
<title>node140650211574408</title>
<polygon fill="#d9e6f5" stroke="#444443" stroke-width=".5" points="35,-86.5 3,-86.5 3,-39.5 35,-39.5 35,-86.5"/>
<polygon fill="#d9e6f5" stroke="transparent" points="5,-71 5,-84 33,-84 33,-71 5,-71"/>
<polyline fill="none" stroke="#444443" points="5,-71 33,-71 "/>
<text text-anchor="start" x="17.4719" y="-74.2" font-family="Times,serif" font-style="italic" font-size="11.00" fill="#444443">f</text>
<polygon fill="#d9e6f5" stroke="transparent" points="5,-69 5,-71 33,-71 33,-69 5,-69"/>
<polygon fill="#d9e6f5" stroke="transparent" points="5,-56 5,-69 16,-69 16,-56 5,-56"/>
<polyline fill="none" stroke="#444443" points="16,-56 16,-69 "/>
<text text-anchor="start" x="7.3677" y="-59.2" font-family="Times,serif" font-style="italic" font-size="11.00" fill="#444443">x </text>
<polygon fill="#d9e6f5" stroke="transparent" points="16,-56 16,-69 33,-69 33,-56 16,-56"/>
<text text-anchor="start" x="16.8542" y="-59.2" font-family="Helvetica,sans-Serif" font-size="11.00" fill="#444443"> 33</text>
<polygon fill="#d9e6f5" stroke="transparent" points="5,-54 5,-56 33,-56 33,-54 5,-54"/>
<polygon fill="#d9e6f5" stroke="transparent" points="5,-41 5,-54 16,-54 16,-41 5,-41"/>
<polyline fill="none" stroke="#444443" points="16,-41 16,-54 "/>
<text text-anchor="start" x="5.9131" y="-44.2" font-family="Helvetica,sans-Serif" font-size="11.00" fill="#444443">q </text>
<polygon fill="#d9e6f5" stroke="transparent" points="16,-41 16,-54 33,-54 33,-41 16,-41"/>
<text text-anchor="start" x="17" y="-44.2" font-family="Helvetica,sans-Serif" font-size="11.00" fill="#444443"> 0</text>
</g>
<!-- node4400719816&#45;&gt;node140650211574408 -->
<!-- node140650212456888 -->
<g id="node3" class="node">
<title>node140650212456888</title>
<polygon fill="#d9e6f5" stroke="#444443" stroke-width=".5" points="34,-32 4,-32 4,0 34,0 34,-32"/>
<polygon fill="#d9e6f5" stroke="transparent" points="6,-17 6,-30 32,-30 32,-17 6,-17"/>
<polyline fill="none" stroke="#444443" points="6,-17 32,-17 "/>
<text text-anchor="start" x="16.25" y="-20.2" font-family="Times,serif" font-style="italic" font-size="11.00" fill="#444443">g</text>
<polygon fill="#d9e6f5" stroke="transparent" points="6,-15 6,-17 32,-17 32,-15 6,-15"/>
<polygon fill="#d9e6f5" stroke="transparent" points="6,-2 6,-15 15,-15 15,-2 6,-2"/>
<polyline fill="none" stroke="#444443" points="15,-2 15,-15 "/>
<text text-anchor="start" x="6.6838" y="-5.2" font-family="Times,serif" font-style="italic" font-size="11.00" fill="#444443">y </text>
<polygon fill="#d9e6f5" stroke="transparent" points="15,-2 15,-15 32,-15 32,-2 15,-2"/>
<text text-anchor="start" x="15.8542" y="-5.2" font-family="Helvetica,sans-Serif" font-size="11.00" fill="#444443"> 33</text>
</g>
<!-- node140650211574408&#45;&gt;node140650212456888 -->
</g>
</svg>
