<?xml version="1.0" encoding="UTF-8" standalone="no"?>
<!DOCTYPE svg PUBLIC "-//W3C//DTD SVG 1.1//EN"
 "http://www.w3.org/Graphics/SVG/1.1/DTD/svg11.dtd">
<!-- Generated by graphviz version 2.40.1 (20161225.0304)
 -->
<!-- Title: G Pages: 1 -->
<svg width="236pt" height="95pt"
 viewBox="0.00 0.00 236.00 94.50" xmlns="http://www.w3.org/2000/svg" xmlns:xlink="http://www.w3.org/1999/xlink">
<g id="graph0" class="graph" transform="scale(1 1) rotate(0) translate(4 90.5)">
<title>G</title>
<polygon fill="#ffffff" stroke="transparent" points="-4,4 -4,-90.5 232,-90.5 232,4 -4,4"/>
<!-- node4400734760 -->
<g id="node1" class="node">
<title>node4400734760</title>
<polygon fill="#d9e6f5" stroke="#444443" stroke-width=".5" points="64,-86.5 0,-86.5 0,-54.5 64,-54.5 64,-86.5"/>
<polygon fill="#d9e6f5" stroke="transparent" points="2,-71.5 2,-84.5 62,-84.5 62,-71.5 2,-71.5"/>
<polyline fill="none" stroke="#444443" points="2,-71.5 62,-71.5 "/>
<text text-anchor="start" x="15.8035" y="-74.7" font-family="Times,serif" font-style="italic" font-size="11.00" fill="#444443">globals</text>
<polygon fill="#d9e6f5" stroke="transparent" points="2,-69.5 2,-71.5 62,-71.5 62,-69.5 2,-69.5"/>
<polygon fill="#d9e6f5" stroke="transparent" points="2,-56.5 2,-69.5 48,-69.5 48,-56.5 2,-56.5"/>
<polyline fill="none" stroke="#444443" points="48,-56.5 48,-69.5 "/>
<text text-anchor="start" x="2.9893" y="-59.7" font-family="Helvetica,sans-Serif" font-size="11.00" fill="#444443">Quantity </text>
<polygon fill="#d9e6f5" stroke="transparent" points="48,-56.5 48,-69.5 62,-69.5 62,-56.5 48,-56.5"/>
<text text-anchor="start" x="48.8877" y="-59.7" font-family="Helvetica,sans-Serif" font-size="11.00" fill="#444443"> &#160;&#160;&#160;</text>
</g>
<!-- node4400737640 -->
<g id="node2" class="node">
<title>node4400737640</title>
<polygon fill="#d9e6f5" stroke="#444443" stroke-width=".5" points="53,-47 11,-47 11,0 53,0 53,-47"/>
<polygon fill="#d9e6f5" stroke="transparent" points="13,-31.5 13,-44.5 51,-44.5 51,-31.5 13,-31.5"/>
<polyline fill="none" stroke="#444443" points="13,-31.5 51,-31.5 "/>
<text text-anchor="start" x="23.1377" y="-34.7" font-family="Times,serif" font-style="italic" font-size="11.00" fill="#444443">sum</text>
<polygon fill="#d9e6f5" stroke="transparent" points="13,-29.5 13,-31.5 51,-31.5 51,-29.5 13,-29.5"/>
<polygon fill="#d9e6f5" stroke="transparent" points="13,-16.5 13,-29.5 37,-29.5 37,-16.5 13,-16.5"/>
<polyline fill="none" stroke="#444443" points="37,-16.5 37,-29.5 "/>
<text text-anchor="start" x="27.4438" y="-19.7" font-family="Helvetica,sans-Serif" font-size="11.00" fill="#444443">s </text>
<polygon fill="#d9e6f5" stroke="transparent" points="37,-16.5 37,-29.5 51,-29.5 51,-16.5 37,-16.5"/>
<text text-anchor="start" x="38" y="-19.7" font-family="Helvetica,sans-Serif" font-size="11.00" fill="#444443"> 0</text>
<polygon fill="#d9e6f5" stroke="transparent" points="13,-14.5 13,-16.5 51,-16.5 51,-14.5 13,-14.5"/>
<polygon fill="#d9e6f5" stroke="transparent" points="13,-1.5 13,-14.5 37,-14.5 37,-1.5 13,-1.5"/>
<polyline fill="none" stroke="#444443" points="37,-1.5 37,-14.5 "/>
<text text-anchor="start" x="13.8469" y="-4.7" font-family="Times,serif" font-style="italic" font-size="11.00" fill="#444443">data </text>
<polygon fill="#d9e6f5" stroke="transparent" points="37,-1.5 37,-14.5 51,-14.5 51,-1.5 37,-1.5"/>
<text text-anchor="start" x="37.8877" y="-4.7" font-family="Helvetica,sans-Serif" font-size="11.00" fill="#444443"> &#160;&#160;&#160;</text>
</g>
<!-- node4400734760&#45;&gt;node4400737640 -->
<!-- node4399617416 -->
<g id="node3" class="node">
<title>node4399617416</title>
<polygon fill="none" stroke="#000000" stroke-width=".5" points="228,-49.5 72,-49.5 72,-19.5 228,-19.5 228,-49.5"/>
<polygon fill="#fefecd" stroke="transparent" points="73,-37.5 73,-48.5 85,-48.5 85,-37.5 73,-37.5"/>
<polyline fill="none" stroke="#000000" points="73,-37.5 85,-37.5 85,-48.5 "/>
<text text-anchor="start" x="76.4973" y="-40.3" font-family="Helvetica,sans-Serif" font-size="9.00" fill="#444443">0</text>
<polygon fill="#fefecd" stroke="transparent" points="85,-37.5 85,-48.5 103,-48.5 103,-37.5 85,-37.5"/>
<polyline fill="none" stroke="#000000" points="85,-37.5 103,-37.5 103,-48.5 "/>
<text text-anchor="start" x="91.4973" y="-40.3" font-family="Helvetica,sans-Serif" font-size="9.00" fill="#444443">1</text>
<polygon fill="#fefecd" stroke="transparent" points="103,-37.5 103,-48.5 121,-48.5 121,-37.5 103,-37.5"/>
<polyline fill="none" stroke="#000000" points="103,-37.5 121,-37.5 121,-48.5 "/>
<text text-anchor="start" x="109.4973" y="-40.3" font-family="Helvetica,sans-Serif" font-size="9.00" fill="#444443">2</text>
<polygon fill="#fefecd" stroke="transparent" points="121,-37.5 121,-48.5 139,-48.5 139,-37.5 121,-37.5"/>
<polyline fill="none" stroke="#000000" points="121,-37.5 139,-37.5 139,-48.5 "/>
<text text-anchor="start" x="127.4973" y="-40.3" font-family="Helvetica,sans-Serif" font-size="9.00" fill="#444443">3</text>
<polygon fill="#fefecd" stroke="transparent" points="139,-37.5 139,-48.5 157,-48.5 157,-37.5 139,-37.5"/>
<polyline fill="none" stroke="#000000" points="139,-37.5 157,-37.5 157,-48.5 "/>
<text text-anchor="start" x="145.4973" y="-40.3" font-family="Helvetica,sans-Serif" font-size="9.00" fill="#444443">4</text>
<polygon fill="#fefecd" stroke="transparent" points="157,-37.5 157,-48.5 175,-48.5 175,-37.5 157,-37.5"/>
<polyline fill="none" stroke="#000000" points="157,-37.5 175,-37.5 175,-48.5 "/>
<text text-anchor="start" x="163.4973" y="-40.3" font-family="Helvetica,sans-Serif" font-size="9.00" fill="#444443">5</text>
<polygon fill="#fefecd" stroke="transparent" points="175,-37.5 175,-48.5 193,-48.5 193,-37.5 175,-37.5"/>
<polyline fill="none" stroke="#000000" points="175,-37.5 193,-37.5 193,-48.5 "/>
<text text-anchor="start" x="181.4973" y="-40.3" font-family="Helvetica,sans-Serif" font-size="9.00" fill="#444443">6</text>
<polygon fill="#fefecd" stroke="transparent" points="193,-37.5 193,-48.5 211,-48.5 211,-37.5 193,-37.5"/>
<polyline fill="none" stroke="#000000" points="193,-37.5 211,-37.5 211,-48.5 "/>
<text text-anchor="start" x="199.4973" y="-40.3" font-family="Helvetica,sans-Serif" font-size="9.00" fill="#444443">7</text>
<polygon fill="#fefecd" stroke="transparent" points="211,-37.5 211,-48.5 227,-48.5 227,-37.5 211,-37.5"/>
<polyline fill="none" stroke="#000000" points="211,-37.5 227,-37.5 "/>
<text text-anchor="start" x="216.4973" y="-40.3" font-family="Helvetica,sans-Serif" font-size="9.00" fill="#444443">8</text>
<polygon fill="#fefecd" stroke="transparent" points="73,-20.5 73,-37.5 85,-37.5 85,-20.5 73,-20.5"/>
<polyline fill="none" stroke="#000000" points="85,-20.5 85,-37.5 "/>
<text text-anchor="start" x="75.9412" y="-25.7" font-family="Helvetica,sans-Serif" font-size="11.00" fill="#444443">6</text>
<polygon fill="#fefecd" stroke="transparent" points="85,-20.5 85,-37.5 103,-37.5 103,-20.5 85,-20.5"/>
<polyline fill="none" stroke="#000000" points="103,-20.5 103,-37.5 "/>
<text text-anchor="start" x="87.8823" y="-25.7" font-family="Helvetica,sans-Serif" font-size="11.00" fill="#444443">49</text>
<polygon fill="#fefecd" stroke="transparent" points="103,-20.5 103,-37.5 121,-37.5 121,-20.5 103,-20.5"/>
<polyline fill="none" stroke="#000000" points="121,-20.5 121,-37.5 "/>
<text text-anchor="start" x="105.8823" y="-25.7" font-family="Helvetica,sans-Serif" font-size="11.00" fill="#444443">27</text>
<polygon fill="#fefecd" stroke="transparent" points="121,-20.5 121,-37.5 139,-37.5 139,-20.5 121,-20.5"/>
<polyline fill="none" stroke="#000000" points="139,-20.5 139,-37.5 "/>
<text text-anchor="start" x="123.8823" y="-25.7" font-family="Helvetica,sans-Serif" font-size="11.00" fill="#444443">30</text>
<polygon fill="#fefecd" stroke="transparent" points="139,-20.5 139,-37.5 157,-37.5 157,-20.5 139,-20.5"/>
<polyline fill="none" stroke="#000000" points="157,-20.5 157,-37.5 "/>
<text text-anchor="start" x="141.8823" y="-25.7" font-family="Helvetica,sans-Serif" font-size="11.00" fill="#444443">19</text>
<polygon fill="#fefecd" stroke="transparent" points="157,-20.5 157,-37.5 175,-37.5 175,-20.5 157,-20.5"/>
<polyline fill="none" stroke="#000000" points="175,-20.5 175,-37.5 "/>
<text text-anchor="start" x="159.8823" y="-25.7" font-family="Helvetica,sans-Serif" font-size="11.00" fill="#444443">21</text>
<polygon fill="#fefecd" stroke="transparent" points="175,-20.5 175,-37.5 193,-37.5 193,-20.5 175,-20.5"/>
<polyline fill="none" stroke="#000000" points="193,-20.5 193,-37.5 "/>
<text text-anchor="start" x="177.8823" y="-25.7" font-family="Helvetica,sans-Serif" font-size="11.00" fill="#444443">12</text>
<polygon fill="#fefecd" stroke="transparent" points="193,-20.5 193,-37.5 211,-37.5 211,-20.5 193,-20.5"/>
<polyline fill="none" stroke="#000000" points="211,-20.5 211,-37.5 "/>
<text text-anchor="start" x="195.8823" y="-25.7" font-family="Helvetica,sans-Serif" font-size="11.00" fill="#444443">22</text>
<polygon fill="#fefecd" stroke="transparent" points="211,-20.5 211,-37.5 227,-37.5 227,-20.5 211,-20.5"/>
<text text-anchor="start" x="212.8823" y="-25.7" font-family="Helvetica,sans-Serif" font-size="11.00" fill="#444443">21</text>
</g>
<!-- node4400734760&#45;&gt;node4399617416 -->
<g id="edge2" class="edge">
<title>node4400734760:c&#45;&gt;node4399617416</title>
<path fill="none" stroke="#444443" stroke-width=".5" d="M58.265,-61.5377C64.5573,-59.6831 79.1384,-55.3855 94.866,-50.75"/>
<ellipse fill="#444443" stroke="#444443" stroke-width=".5" cx="56.5347" cy="-62.0476" rx="1.6" ry="1.6"/>
<polygon fill="#444443" stroke="#444443" stroke-width=".5" points="95.4439,-52.0393 98.8849,-49.5655 94.6523,-49.3535 95.4439,-52.0393"/>
</g>
<!-- node4400737640&#45;&gt;node4399617416 -->
<g id="edge3" class="edge">
<title>node4400737640:c&#45;&gt;node4399617416</title>
<path fill="none" stroke="#444443" stroke-width=".5" d="M47.4722,-8.3844C54.2281,-10.1053 69.9943,-14.1212 87.1881,-18.5007"/>
<ellipse fill="#444443" stroke="#444443" stroke-width=".5" cx="45.5505" cy="-7.895" rx="1.6" ry="1.6"/>
<polygon fill="#444443" stroke="#444443" stroke-width=".5" points="86.8886,-19.8691 91.1104,-19.4998 87.5798,-17.1557 86.8886,-19.8691"/>
</g>
</g>
</svg>
