<?xml version="1.0" encoding="UTF-8" standalone="no"?>
<!DOCTYPE svg PUBLIC "-//W3C//DTD SVG 1.1//EN"
 "http://www.w3.org/Graphics/SVG/1.1/DTD/svg11.dtd">
<!-- Generated by graphviz version 2.40.1 (20161225.0304)
 -->
<!-- Title: G Pages: 1 -->
<svg width="236pt" height="63pt"
 viewBox="0.00 0.00 236.00 62.50" xmlns="http://www.w3.org/2000/svg" xmlns:xlink="http://www.w3.org/1999/xlink">
<g id="graph0" class="graph" transform="scale(1 1) rotate(0) translate(4 58.5)">
<title>G</title>
<polygon fill="#ffffff" stroke="transparent" points="-4,4 -4,-58.5 232,-58.5 232,4 -4,4"/>
<!-- node4400737640 -->
<g id="node1" class="node">
<title>node4400737640</title>
<polygon fill="#d9e6f5" stroke="#444443" stroke-width=".5" points="64,-54.5 0,-54.5 0,-7.5 64,-7.5 64,-54.5"/>
<polygon fill="#d9e6f5" stroke="transparent" points="2,-39 2,-52 62,-52 62,-39 2,-39"/>
<polyline fill="none" stroke="#444443" points="2,-39 62,-39 "/>
<text text-anchor="start" x="15.8035" y="-42.2" font-family="Times,serif" font-style="italic" font-size="11.00" fill="#444443">globals</text>
<polygon fill="#d9e6f5" stroke="transparent" points="2,-37 2,-39 62,-39 62,-37 2,-37"/>
<polygon fill="#d9e6f5" stroke="transparent" points="2,-24 2,-37 48,-37 48,-24 2,-24"/>
<polyline fill="none" stroke="#444443" points="48,-24 48,-37 "/>
<text text-anchor="start" x="23.1631" y="-27.2" font-family="Helvetica,sans-Serif" font-size="11.00" fill="#444443">sum </text>
<polygon fill="#d9e6f5" stroke="transparent" points="48,-24 48,-37 62,-37 62,-24 48,-24"/>
<text text-anchor="start" x="49" y="-27.2" font-family="Helvetica,sans-Serif" font-size="11.00" fill="#444443"> 0</text>
<polygon fill="#d9e6f5" stroke="transparent" points="2,-22 2,-24 62,-24 62,-22 2,-22"/>
<polygon fill="#d9e6f5" stroke="transparent" points="2,-9 2,-22 48,-22 48,-9 2,-9"/>
<polyline fill="none" stroke="#444443" points="48,-9 48,-22 "/>
<text text-anchor="start" x="2.9893" y="-12.2" font-family="Helvetica,sans-Serif" font-size="11.00" fill="#444443">Quantity </text>
<polygon fill="#d9e6f5" stroke="transparent" points="48,-9 48,-22 62,-22 62,-9 48,-9"/>
<text text-anchor="start" x="48.8877" y="-12.2" font-family="Helvetica,sans-Serif" font-size="11.00" fill="#444443"> &#160;&#160;&#160;</text>
</g>
<!-- node4399267208 -->
<g id="node2" class="node">
<title>node4399267208</title>
<polygon fill="none" stroke="#000000" stroke-width=".5" points="228,-30 72,-30 72,0 228,0 228,-30"/>
<polygon fill="#fefecd" stroke="transparent" points="73,-18 73,-29 85,-29 85,-18 73,-18"/>
<polyline fill="none" stroke="#000000" points="73,-18 85,-18 85,-29 "/>
<text text-anchor="start" x="76.4973" y="-20.8" font-family="Helvetica,sans-Serif" font-size="9.00" fill="#444443">0</text>
<polygon fill="#fefecd" stroke="transparent" points="85,-18 85,-29 103,-29 103,-18 85,-18"/>
<polyline fill="none" stroke="#000000" points="85,-18 103,-18 103,-29 "/>
<text text-anchor="start" x="91.4973" y="-20.8" font-family="Helvetica,sans-Serif" font-size="9.00" fill="#444443">1</text>
<polygon fill="#fefecd" stroke="transparent" points="103,-18 103,-29 121,-29 121,-18 103,-18"/>
<polyline fill="none" stroke="#000000" points="103,-18 121,-18 121,-29 "/>
<text text-anchor="start" x="109.4973" y="-20.8" font-family="Helvetica,sans-Serif" font-size="9.00" fill="#444443">2</text>
<polygon fill="#fefecd" stroke="transparent" points="121,-18 121,-29 139,-29 139,-18 121,-18"/>
<polyline fill="none" stroke="#000000" points="121,-18 139,-18 139,-29 "/>
<text text-anchor="start" x="127.4973" y="-20.8" font-family="Helvetica,sans-Serif" font-size="9.00" fill="#444443">3</text>
<polygon fill="#fefecd" stroke="transparent" points="139,-18 139,-29 157,-29 157,-18 139,-18"/>
<polyline fill="none" stroke="#000000" points="139,-18 157,-18 157,-29 "/>
<text text-anchor="start" x="145.4973" y="-20.8" font-family="Helvetica,sans-Serif" font-size="9.00" fill="#444443">4</text>
<polygon fill="#fefecd" stroke="transparent" points="157,-18 157,-29 175,-29 175,-18 157,-18"/>
<polyline fill="none" stroke="#000000" points="157,-18 175,-18 175,-29 "/>
<text text-anchor="start" x="163.4973" y="-20.8" font-family="Helvetica,sans-Serif" font-size="9.00" fill="#444443">5</text>
<polygon fill="#fefecd" stroke="transparent" points="175,-18 175,-29 193,-29 193,-18 175,-18"/>
<polyline fill="none" stroke="#000000" points="175,-18 193,-18 193,-29 "/>
<text text-anchor="start" x="181.4973" y="-20.8" font-family="Helvetica,sans-Serif" font-size="9.00" fill="#444443">6</text>
<polygon fill="#fefecd" stroke="transparent" points="193,-18 193,-29 211,-29 211,-18 193,-18"/>
<polyline fill="none" stroke="#000000" points="193,-18 211,-18 211,-29 "/>
<text text-anchor="start" x="199.4973" y="-20.8" font-family="Helvetica,sans-Serif" font-size="9.00" fill="#444443">7</text>
<polygon fill="#fefecd" stroke="transparent" points="211,-18 211,-29 227,-29 227,-18 211,-18"/>
<polyline fill="none" stroke="#000000" points="211,-18 227,-18 "/>
<text text-anchor="start" x="216.4973" y="-20.8" font-family="Helvetica,sans-Serif" font-size="9.00" fill="#444443">8</text>
<polygon fill="#fefecd" stroke="transparent" points="73,-1 73,-18 85,-18 85,-1 73,-1"/>
<polyline fill="none" stroke="#000000" points="85,-1 85,-18 "/>
<text text-anchor="start" x="75.9412" y="-6.2" font-family="Helvetica,sans-Serif" font-size="11.00" fill="#444443">6</text>
<polygon fill="#fefecd" stroke="transparent" points="85,-1 85,-18 103,-18 103,-1 85,-1"/>
<polyline fill="none" stroke="#000000" points="103,-1 103,-18 "/>
<text text-anchor="start" x="87.8823" y="-6.2" font-family="Helvetica,sans-Serif" font-size="11.00" fill="#444443">49</text>
<polygon fill="#fefecd" stroke="transparent" points="103,-1 103,-18 121,-18 121,-1 103,-1"/>
<polyline fill="none" stroke="#000000" points="121,-1 121,-18 "/>
<text text-anchor="start" x="105.8823" y="-6.2" font-family="Helvetica,sans-Serif" font-size="11.00" fill="#444443">27</text>
<polygon fill="#fefecd" stroke="transparent" points="121,-1 121,-18 139,-18 139,-1 121,-1"/>
<polyline fill="none" stroke="#000000" points="139,-1 139,-18 "/>
<text text-anchor="start" x="123.8823" y="-6.2" font-family="Helvetica,sans-Serif" font-size="11.00" fill="#444443">30</text>
<polygon fill="#fefecd" stroke="transparent" points="139,-1 139,-18 157,-18 157,-1 139,-1"/>
<polyline fill="none" stroke="#000000" points="157,-1 157,-18 "/>
<text text-anchor="start" x="141.8823" y="-6.2" font-family="Helvetica,sans-Serif" font-size="11.00" fill="#444443">19</text>
<polygon fill="#fefecd" stroke="transparent" points="157,-1 157,-18 175,-18 175,-1 157,-1"/>
<polyline fill="none" stroke="#000000" points="175,-1 175,-18 "/>
<text text-anchor="start" x="159.8823" y="-6.2" font-family="Helvetica,sans-Serif" font-size="11.00" fill="#444443">21</text>
<polygon fill="#fefecd" stroke="transparent" points="175,-1 175,-18 193,-18 193,-1 175,-1"/>
<polyline fill="none" stroke="#000000" points="193,-1 193,-18 "/>
<text text-anchor="start" x="177.8823" y="-6.2" font-family="Helvetica,sans-Serif" font-size="11.00" fill="#444443">12</text>
<polygon fill="#fefecd" stroke="transparent" points="193,-1 193,-18 211,-18 211,-1 193,-1"/>
<polyline fill="none" stroke="#000000" points="211,-1 211,-18 "/>
<text text-anchor="start" x="195.8823" y="-6.2" font-family="Helvetica,sans-Serif" font-size="11.00" fill="#444443">22</text>
<polygon fill="#fefecd" stroke="transparent" points="211,-1 211,-18 227,-18 227,-1 211,-1"/>
<text text-anchor="start" x="212.8823" y="-6.2" font-family="Helvetica,sans-Serif" font-size="11.00" fill="#444443">21</text>
</g>
<!-- node4400737640&#45;&gt;node4399267208 -->
<g id="edge1" class="edge">
<title>node4400737640:c&#45;&gt;node4399267208</title>
<path fill="none" stroke="#444443" stroke-width=".5" d="M58.6514,-15C60.8986,-15 64.0844,-15 67.9296,-15"/>
<ellipse fill="#444443" stroke="#444443" stroke-width=".5" cx="56.6" cy="-15" rx="1.6" ry="1.6"/>
<polygon fill="#444443" stroke="#444443" stroke-width=".5" points="67.9841,-16.4001 71.9841,-15 67.9841,-13.6001 67.9841,-16.4001"/>
</g>
</g>
</svg>
