<?xml version="1.0" encoding="UTF-8" standalone="no"?>
<!DOCTYPE svg PUBLIC "-//W3C//DTD SVG 1.1//EN"
 "http://www.w3.org/Graphics/SVG/1.1/DTD/svg11.dtd">
<!-- Generated by graphviz version 2.40.1 (20161225.0304)
 -->
<!-- Title: G Pages: 1 -->
<svg width="242pt" height="79pt"
 viewBox="0.00 0.00 242.00 79.00" xmlns="http://www.w3.org/2000/svg" xmlns:xlink="http://www.w3.org/1999/xlink">
<g id="graph0" class="graph" transform="scale(1 1) rotate(0) translate(4 75)">
<title>G</title>
<polygon fill="#ffffff" stroke="transparent" points="-4,4 -4,-75 238,-75 238,4 -4,4"/>
<!-- node140650212471832 -->
<g id="node1" class="node">
<title>node140650212471832</title>
<polygon fill="#d9e6f5" stroke="#444443" stroke-width=".5" points="64,-71 0,-71 0,-39 64,-39 64,-71"/>
<polygon fill="#d9e6f5" stroke="transparent" points="2,-56 2,-69 62,-69 62,-56 2,-56"/>
<polyline fill="none" stroke="#444443" points="2,-56 62,-56 "/>
<text text-anchor="start" x="15.8035" y="-59.2" font-family="Times,serif" font-style="italic" font-size="11.00" fill="#444443">globals</text>
<polygon fill="#d9e6f5" stroke="transparent" points="2,-54 2,-56 62,-56 62,-54 2,-54"/>
<polygon fill="#d9e6f5" stroke="transparent" points="2,-41 2,-54 48,-54 48,-41 2,-41"/>
<polyline fill="none" stroke="#444443" points="48,-41 48,-54 "/>
<text text-anchor="start" x="2.9893" y="-44.2" font-family="Helvetica,sans-Serif" font-size="11.00" fill="#444443">Quantity </text>
<polygon fill="#d9e6f5" stroke="transparent" points="48,-41 48,-54 62,-54 62,-41 48,-41"/>
<text text-anchor="start" x="48.8877" y="-44.2" font-family="Helvetica,sans-Serif" font-size="11.00" fill="#444443"> &#160;&#160;&#160;</text>
</g>
<!-- node140650230221336 -->
<g id="node2" class="node">
<title>node140650230221336</title>
<polygon fill="#d9e6f5" stroke="#444443" stroke-width=".5" points="53,-32 11,-32 11,0 53,0 53,-32"/>
<polygon fill="#d9e6f5" stroke="transparent" points="13,-17 13,-30 51,-30 51,-17 13,-17"/>
<polyline fill="none" stroke="#444443" points="13,-17 51,-17 "/>
<text text-anchor="start" x="14.8877" y="-20.2" font-family="Times,serif" font-style="italic" font-size="11.00" fill="#444443">badsum</text>
<polygon fill="#d9e6f5" stroke="transparent" points="13,-15 13,-17 51,-17 51,-15 13,-15"/>
<polygon fill="#d9e6f5" stroke="transparent" points="13,-2 13,-15 37,-15 37,-2 13,-2"/>
<polyline fill="none" stroke="#444443" points="37,-2 37,-15 "/>
<text text-anchor="start" x="13.8469" y="-5.2" font-family="Times,serif" font-style="italic" font-size="11.00" fill="#444443">data </text>
<polygon fill="#d9e6f5" stroke="transparent" points="37,-2 37,-15 51,-15 51,-2 37,-2"/>
<text text-anchor="start" x="37.8877" y="-5.2" font-family="Helvetica,sans-Serif" font-size="11.00" fill="#444443"> &#160;&#160;&#160;</text>
</g>
<!-- node140650212471832&#45;&gt;node140650230221336 -->
<!-- node4400838280 -->
<g id="node3" class="node">
<title>node4400838280</title>
<polygon fill="none" stroke="#000000" stroke-width=".5" points="234,-42 72,-42 72,-12 234,-12 234,-42"/>
<polygon fill="#fefecd" stroke="transparent" points="73,-30 73,-41 91,-41 91,-30 73,-30"/>
<polyline fill="none" stroke="#000000" points="73,-30 91,-30 91,-41 "/>
<text text-anchor="start" x="79.4973" y="-32.8" font-family="Helvetica,sans-Serif" font-size="9.00" fill="#444443">0</text>
<polygon fill="#fefecd" stroke="transparent" points="91,-30 91,-41 109,-41 109,-30 91,-30"/>
<polyline fill="none" stroke="#000000" points="91,-30 109,-30 109,-41 "/>
<text text-anchor="start" x="97.4973" y="-32.8" font-family="Helvetica,sans-Serif" font-size="9.00" fill="#444443">1</text>
<polygon fill="#fefecd" stroke="transparent" points="109,-30 109,-41 127,-41 127,-30 109,-30"/>
<polyline fill="none" stroke="#000000" points="109,-30 127,-30 127,-41 "/>
<text text-anchor="start" x="115.4973" y="-32.8" font-family="Helvetica,sans-Serif" font-size="9.00" fill="#444443">2</text>
<polygon fill="#fefecd" stroke="transparent" points="127,-30 127,-41 145,-41 145,-30 127,-30"/>
<polyline fill="none" stroke="#000000" points="127,-30 145,-30 145,-41 "/>
<text text-anchor="start" x="133.4973" y="-32.8" font-family="Helvetica,sans-Serif" font-size="9.00" fill="#444443">3</text>
<polygon fill="#fefecd" stroke="transparent" points="145,-30 145,-41 163,-41 163,-30 145,-30"/>
<polyline fill="none" stroke="#000000" points="145,-30 163,-30 163,-41 "/>
<text text-anchor="start" x="151.4973" y="-32.8" font-family="Helvetica,sans-Serif" font-size="9.00" fill="#444443">4</text>
<polygon fill="#fefecd" stroke="transparent" points="163,-30 163,-41 181,-41 181,-30 163,-30"/>
<polyline fill="none" stroke="#000000" points="163,-30 181,-30 181,-41 "/>
<text text-anchor="start" x="169.4973" y="-32.8" font-family="Helvetica,sans-Serif" font-size="9.00" fill="#444443">5</text>
<polygon fill="#fefecd" stroke="transparent" points="181,-30 181,-41 199,-41 199,-30 181,-30"/>
<polyline fill="none" stroke="#000000" points="181,-30 199,-30 199,-41 "/>
<text text-anchor="start" x="187.4973" y="-32.8" font-family="Helvetica,sans-Serif" font-size="9.00" fill="#444443">6</text>
<polygon fill="#fefecd" stroke="transparent" points="199,-30 199,-41 217,-41 217,-30 199,-30"/>
<polyline fill="none" stroke="#000000" points="199,-30 217,-30 217,-41 "/>
<text text-anchor="start" x="205.4973" y="-32.8" font-family="Helvetica,sans-Serif" font-size="9.00" fill="#444443">7</text>
<polygon fill="#fefecd" stroke="transparent" points="217,-30 217,-41 233,-41 233,-30 217,-30"/>
<polyline fill="none" stroke="#000000" points="217,-30 233,-30 "/>
<text text-anchor="start" x="222.4973" y="-32.8" font-family="Helvetica,sans-Serif" font-size="9.00" fill="#444443">8</text>
<polygon fill="#fefecd" stroke="transparent" points="73,-13 73,-30 91,-30 91,-13 73,-13"/>
<polyline fill="none" stroke="#000000" points="91,-13 91,-30 "/>
<text text-anchor="start" x="75.8823" y="-18.2" font-family="Helvetica,sans-Serif" font-size="11.00" fill="#444443">99</text>
<polygon fill="#fefecd" stroke="transparent" points="91,-13 91,-30 109,-30 109,-13 91,-13"/>
<polyline fill="none" stroke="#000000" points="109,-13 109,-30 "/>
<text text-anchor="start" x="93.8823" y="-18.2" font-family="Helvetica,sans-Serif" font-size="11.00" fill="#444443">49</text>
<polygon fill="#fefecd" stroke="transparent" points="109,-13 109,-30 127,-30 127,-13 109,-13"/>
<polyline fill="none" stroke="#000000" points="127,-13 127,-30 "/>
<text text-anchor="start" x="111.8823" y="-18.2" font-family="Helvetica,sans-Serif" font-size="11.00" fill="#444443">27</text>
<polygon fill="#fefecd" stroke="transparent" points="127,-13 127,-30 145,-30 145,-13 127,-13"/>
<polyline fill="none" stroke="#000000" points="145,-13 145,-30 "/>
<text text-anchor="start" x="129.8823" y="-18.2" font-family="Helvetica,sans-Serif" font-size="11.00" fill="#444443">30</text>
<polygon fill="#fefecd" stroke="transparent" points="145,-13 145,-30 163,-30 163,-13 145,-13"/>
<polyline fill="none" stroke="#000000" points="163,-13 163,-30 "/>
<text text-anchor="start" x="147.8823" y="-18.2" font-family="Helvetica,sans-Serif" font-size="11.00" fill="#444443">19</text>
<polygon fill="#fefecd" stroke="transparent" points="163,-13 163,-30 181,-30 181,-13 163,-13"/>
<polyline fill="none" stroke="#000000" points="181,-13 181,-30 "/>
<text text-anchor="start" x="165.8823" y="-18.2" font-family="Helvetica,sans-Serif" font-size="11.00" fill="#444443">21</text>
<polygon fill="#fefecd" stroke="transparent" points="181,-13 181,-30 199,-30 199,-13 181,-13"/>
<polyline fill="none" stroke="#000000" points="199,-13 199,-30 "/>
<text text-anchor="start" x="183.8823" y="-18.2" font-family="Helvetica,sans-Serif" font-size="11.00" fill="#444443">12</text>
<polygon fill="#fefecd" stroke="transparent" points="199,-13 199,-30 217,-30 217,-13 199,-13"/>
<polyline fill="none" stroke="#000000" points="217,-13 217,-30 "/>
<text text-anchor="start" x="201.8823" y="-18.2" font-family="Helvetica,sans-Serif" font-size="11.00" fill="#444443">22</text>
<polygon fill="#fefecd" stroke="transparent" points="217,-13 217,-30 233,-30 233,-13 217,-13"/>
<text text-anchor="start" x="218.8823" y="-18.2" font-family="Helvetica,sans-Serif" font-size="11.00" fill="#444443">21</text>
</g>
<!-- node140650212471832&#45;&gt;node4400838280 -->
<g id="edge2" class="edge">
<title>node140650212471832:c&#45;&gt;node4400838280</title>
<path fill="none" stroke="#444443" stroke-width=".5" d="M58.4197,-46.3021C61.9436,-45.5829 67.9473,-44.3577 75.2762,-42.862"/>
<ellipse fill="#444443" stroke="#444443" stroke-width=".5" cx="56.5677" cy="-46.68" rx="1.6" ry="1.6"/>
<polygon fill="#444443" stroke="#444443" stroke-width=".5" points="75.8375,-44.1764 79.4767,-42.0047 75.2776,-41.4329 75.8375,-44.1764"/>
</g>
<!-- node140650230221336&#45;&gt;node4400838280 -->
<g id="edge3" class="edge">
<title>node140650230221336:c&#45;&gt;node4400838280</title>
<path fill="none" stroke="#444443" stroke-width=".5" d="M47.24,-8.5648C51.2444,-9.2628 58.6598,-10.5554 67.7795,-12.1451"/>
<ellipse fill="#444443" stroke="#444443" stroke-width=".5" cx="45.5762" cy="-8.2748" rx="1.6" ry="1.6"/>
<polygon fill="#444443" stroke="#444443" stroke-width=".5" points="67.6063,-13.5359 71.7873,-12.8437 68.0872,-10.7775 67.6063,-13.5359"/>
</g>
</g>
</svg>
