<?xml version="1.0" encoding="UTF-8" standalone="no"?>
<!DOCTYPE svg PUBLIC "-//W3C//DTD SVG 1.1//EN"
 "http://www.w3.org/Graphics/SVG/1.1/DTD/svg11.dtd">
<!-- Generated by graphviz version 2.40.1 (20161225.0304)
 -->
<!-- Title: G Pages: 1 -->
<svg width="46pt" height="40pt"
 viewBox="0.00 0.00 46.00 40.00" xmlns="http://www.w3.org/2000/svg" xmlns:xlink="http://www.w3.org/1999/xlink">
<g id="graph0" class="graph" transform="scale(1 1) rotate(0) translate(4 36)">
<title>G</title>
<polygon fill="#ffffff" stroke="transparent" points="-4,4 -4,-36 42,-36 42,4 -4,4"/>
<!-- node4400722448 -->
<g id="node1" class="node">
<title>node4400722448</title>
<polygon fill="#d9e6f5" stroke="#444443" stroke-width=".5" points="38,-32 0,-32 0,0 38,0 38,-32"/>
<polygon fill="#d9e6f5" stroke="transparent" points="2,-17 2,-30 36,-30 36,-17 2,-17"/>
<polyline fill="none" stroke="#444443" points="2,-17 36,-17 "/>
<text text-anchor="start" x="2.8035" y="-20.2" font-family="Times,serif" font-style="italic" font-size="11.00" fill="#444443">globals</text>
<polygon fill="#d9e6f5" stroke="transparent" points="2,-15 2,-17 36,-17 36,-15 2,-15"/>
<polygon fill="#d9e6f5" stroke="transparent" points="2,-2 2,-15 15,-15 15,-2 2,-2"/>
<polyline fill="none" stroke="#444443" points="15,-2 15,-15 "/>
<text text-anchor="start" x="5.4438" y="-5.2" font-family="Helvetica,sans-Serif" font-size="11.00" fill="#444443">z </text>
<polygon fill="#d9e6f5" stroke="transparent" points="17,-2 17,-15 36,-15 36,-2 17,-2"/>
<text text-anchor="start" x="18" y="-5.2" font-family="Helvetica,sans-Serif" font-size="11.00" fill="#444443"> 99</text>
</g>
</g>
</svg>
