<?xml version="1.0" encoding="UTF-8" standalone="no"?>
<!DOCTYPE svg PUBLIC "-//W3C//DTD SVG 1.1//EN"
 "http://www.w3.org/Graphics/SVG/1.1/DTD/svg11.dtd">
<!-- Generated by graphviz version 2.40.1 (20161225.0304)
 -->
<!-- Title: G Pages: 1 -->
<svg width="111pt" height="55pt"
 viewBox="0.00 0.00 111.00 55.00" xmlns="http://www.w3.org/2000/svg" xmlns:xlink="http://www.w3.org/1999/xlink">
<g id="graph0" class="graph" transform="scale(1 1) rotate(0) translate(4 51)">
<title>G</title>
<polygon fill="#ffffff" stroke="transparent" points="-4,4 -4,-51 107,-51 107,4 -4,4"/>
<!-- node4660207568 -->
<g id="node1" class="node">
<title>node4660207568</title>
<polygon fill="#fefecd" stroke="#444443" stroke-width=".5" points="103,-47 0,-47 0,0 103,0 103,-47"/>
<polygon fill="#fefecd" stroke="transparent" points="2.5,-31.5 2.5,-44.5 101.5,-44.5 101.5,-31.5 2.5,-31.5"/>
<polyline fill="none" stroke="#444443" points="2.5,-31.5 101.5,-31.5 "/>
<text text-anchor="start" x="40.6992" y="-34.7" font-family="Times,serif" font-style="italic" font-size="11.00" fill="#444443">Book</text>
<polygon fill="#fefecd" stroke="transparent" points="2.5,-29.5 2.5,-31.5 101.5,-31.5 101.5,-29.5 2.5,-29.5"/>
<polygon fill="#fefecd" stroke="transparent" points="2.5,-16.5 2.5,-29.5 38.5,-29.5 38.5,-16.5 2.5,-16.5"/>
<polyline fill="none" stroke="#444443" points="38.5,-16.5 38.5,-29.5 "/>
<text text-anchor="start" x="17.3262" y="-19.7" font-family="Helvetica,sans-Serif" font-size="11.00" fill="#444443">title </text>
<polygon fill="#fefecd" stroke="transparent" points="38.5,-16.5 38.5,-29.5 101.5,-29.5 101.5,-16.5 38.5,-16.5"/>
<text text-anchor="start" x="39.5" y="-19.7" font-family="Helvetica,sans-Serif" font-size="11.00" fill="#444443"> &#39;Gridlinked&#39;</text>
<polygon fill="#fefecd" stroke="transparent" points="2.5,-14.5 2.5,-16.5 101.5,-16.5 101.5,-14.5 2.5,-14.5"/>
<polygon fill="#fefecd" stroke="transparent" points="2.5,-1.5 2.5,-14.5 38.5,-14.5 38.5,-1.5 2.5,-1.5"/>
<polyline fill="none" stroke="#444443" points="38.5,-1.5 38.5,-14.5 "/>
<text text-anchor="start" x="3.377" y="-4.7" font-family="Helvetica,sans-Serif" font-size="11.00" fill="#444443">author </text>
<polygon fill="#fefecd" stroke="transparent" points="38.5,-1.5 38.5,-14.5 101.5,-14.5 101.5,-1.5 38.5,-1.5"/>
<text text-anchor="start" x="39.4653" y="-4.7" font-family="Helvetica,sans-Serif" font-size="11.00" fill="#444443"> &#39;Neal Asher&#39;</text>
</g>
</g>
</svg>
