<?xml version="1.0" encoding="UTF-8" standalone="no"?>
<!DOCTYPE svg PUBLIC "-//W3C//DTD SVG 1.1//EN"
 "http://www.w3.org/Graphics/SVG/1.1/DTD/svg11.dtd">
<!-- Generated by graphviz version 2.40.1 (20161225.0304)
 -->
<!-- Title: G Pages: 1 -->
<svg width="86pt" height="40pt"
 viewBox="0.00 0.00 86.00 40.00" xmlns="http://www.w3.org/2000/svg" xmlns:xlink="http://www.w3.org/1999/xlink">
<g id="graph0" class="graph" transform="scale(1 1) rotate(0) translate(4 36)">
<title>G</title>
<polygon fill="#ffffff" stroke="transparent" points="-4,4 -4,-36 82,-36 82,4 -4,4"/>
<!-- node4659646248 -->
<g id="node1" class="node">
<title>node4659646248</title>
<polygon fill="#fefecd" stroke="#444443" stroke-width=".5" points="78,-32 0,-32 0,0 78,0 78,-32"/>
<polygon fill="#fefecd" stroke="transparent" points="2,-17 2,-30 76,-30 76,-17 2,-17"/>
<polyline fill="none" stroke="#444443" points="2,-17 76,-17 "/>
<text text-anchor="start" x="20.98" y="-20.2" font-family="Times,serif" font-style="italic" font-size="11.00" fill="#444443">Account</text>
<polygon fill="#fefecd" stroke="transparent" points="2,-15 2,-17 76,-17 76,-15 2,-15"/>
<polygon fill="#fefecd" stroke="transparent" points="2,-2 2,-15 45,-15 45,-2 2,-2"/>
<polyline fill="none" stroke="#444443" points="45,-2 45,-15 "/>
<text text-anchor="start" x="2.7058" y="-5.2" font-family="Helvetica,sans-Serif" font-size="11.00" fill="#444443">balance </text>
<polygon fill="#fefecd" stroke="transparent" points="45,-2 45,-15 76,-15 76,-2 45,-2"/>
<text text-anchor="start" x="45.614" y="-5.2" font-family="Helvetica,sans-Serif" font-size="11.00" fill="#444443"> 115.0</text>
</g>
</g>
</svg>
