<?xml version="1.0" encoding="UTF-8" standalone="no"?>
<!DOCTYPE svg PUBLIC "-//W3C//DTD SVG 1.1//EN"
 "http://www.w3.org/Graphics/SVG/1.1/DTD/svg11.dtd">
<!-- Generated by graphviz version 2.40.1 (20161225.0304)
 -->
<!-- Title: G Pages: 1 -->
<svg width="235pt" height="139pt"
 viewBox="0.00 0.00 234.74 139.00" xmlns="http://www.w3.org/2000/svg" xmlns:xlink="http://www.w3.org/1999/xlink">
<g id="graph0" class="graph" transform="scale(1 1) rotate(0) translate(4 135)">
<title>G</title>
<polygon fill="#ffffff" stroke="transparent" points="-4,4 -4,-135 230.7432,-135 230.7432,4 -4,4"/>
<!-- node4660237000 -->
<g id="node1" class="node">
<title>node4660237000</title>
<polygon fill="#cfe2d4" stroke="#444443" stroke-width=".5" points="13,-81 0,-81 0,-49 13,-49 13,-81"/>
<polygon fill="#cfe2d4" stroke="transparent" points="1.5,-65 1.5,-80 12.5,-80 12.5,-65 1.5,-65"/>
<polyline fill="none" stroke="#444443" points="1.5,-65 12.5,-65 "/>
<text text-anchor="start" x="4.4973" y="-69.8" font-family="Helvetica,sans-Serif" font-size="9.00" fill="#444443">0</text>
<polygon fill="#cfe2d4" stroke="transparent" points="1.5,-50 1.5,-65 12.5,-65 12.5,-50 1.5,-50"/>
<text text-anchor="start" x="4.4973" y="-54.8" font-family="Helvetica,sans-Serif" font-size="9.00" fill="#444443">1</text>
</g>
<!-- node4660207288 -->
<g id="node2" class="node">
<title>node4660207288</title>
<polygon fill="#fefecd" stroke="#444443" stroke-width=".5" points="157.5,-131 43.5,-131 43.5,-69 157.5,-69 157.5,-131"/>
<polygon fill="#fefecd" stroke="transparent" points="45.5,-116 45.5,-129 155.5,-129 155.5,-116 45.5,-116"/>
<polyline fill="none" stroke="#444443" points="45.5,-116 155.5,-116 "/>
<text text-anchor="start" x="89.1992" y="-119.2" font-family="Times,serif" font-style="italic" font-size="11.00" fill="#444443">Book</text>
<polygon fill="#fefecd" stroke="transparent" points="45.5,-114 45.5,-116 155.5,-116 155.5,-114 45.5,-114"/>
<polygon fill="#fefecd" stroke="transparent" points="45.5,-101 45.5,-114 92.5,-114 92.5,-101 45.5,-101"/>
<polyline fill="none" stroke="#444443" points="92.5,-101 92.5,-114 "/>
<text text-anchor="start" x="71.3262" y="-104.2" font-family="Helvetica,sans-Serif" font-size="11.00" fill="#444443">title </text>
<polygon fill="#fefecd" stroke="transparent" points="92.5,-101 92.5,-114 155.5,-114 155.5,-101 92.5,-101"/>
<text text-anchor="start" x="93.5" y="-104.2" font-family="Helvetica,sans-Serif" font-size="11.00" fill="#444443"> &#39;Gridlinked&#39;</text>
<polygon fill="#fefecd" stroke="transparent" points="45.5,-99 45.5,-101 155.5,-101 155.5,-99 45.5,-99"/>
<polygon fill="#fefecd" stroke="transparent" points="45.5,-86 45.5,-99 92.5,-99 92.5,-86 45.5,-86"/>
<polyline fill="none" stroke="#444443" points="92.5,-86 92.5,-99 "/>
<text text-anchor="start" x="57.2539" y="-89.2" font-family="Helvetica,sans-Serif" font-size="11.00" fill="#444443">author </text>
<polygon fill="#fefecd" stroke="transparent" points="92.5,-86 92.5,-99 155.5,-99 155.5,-86 92.5,-86"/>
<text text-anchor="start" x="93.4653" y="-89.2" font-family="Helvetica,sans-Serif" font-size="11.00" fill="#444443"> &#39;Neal Asher&#39;</text>
<polygon fill="#fefecd" stroke="transparent" points="45.5,-84 45.5,-86 155.5,-86 155.5,-84 45.5,-84"/>
<polygon fill="#fefecd" stroke="transparent" points="45.5,-71 45.5,-84 92.5,-84 92.5,-71 45.5,-71"/>
<polyline fill="none" stroke="#444443" points="92.5,-71 92.5,-84 "/>
<text text-anchor="start" x="46.377" y="-74.2" font-family="Helvetica,sans-Serif" font-size="11.00" fill="#444443">chapters </text>
<polygon fill="#fefecd" stroke="transparent" points="92.5,-71 92.5,-84 155.5,-84 155.5,-71 92.5,-71"/>
<text text-anchor="start" x="93.5" y="-74.2" font-family="Helvetica,sans-Serif" font-size="11.00" fill="#444443"> &#160;&#160;&#160;</text>
</g>
<!-- node4660237000&#45;&gt;node4660207288 -->
<g id="edge1" class="edge">
<title>node4660237000:0&#45;&gt;node4660207288:w</title>
<path fill="none" stroke="#444443" stroke-width=".5" d="M12.5,-73C29.2008,-73 26.0057,-95.5588 39.2869,-99.4361"/>
<polygon fill="#444443" stroke="#444443" stroke-width=".5" points="39.3496,-100.8569 43.5,-100 39.7211,-98.0816 39.3496,-100.8569"/>
</g>
<!-- node4660207176 -->
<g id="node4" class="node">
<title>node4660207176</title>
<polygon fill="#fefecd" stroke="#444443" stroke-width=".5" points="166,-62 35,-62 35,0 166,0 166,-62"/>
<polygon fill="#fefecd" stroke="transparent" points="37.5,-47 37.5,-60 164.5,-60 164.5,-47 37.5,-47"/>
<polyline fill="none" stroke="#444443" points="37.5,-47 164.5,-47 "/>
<text text-anchor="start" x="89.6992" y="-50.2" font-family="Times,serif" font-style="italic" font-size="11.00" fill="#444443">Book</text>
<polygon fill="#fefecd" stroke="transparent" points="37.5,-45 37.5,-47 164.5,-47 164.5,-45 37.5,-45"/>
<polygon fill="#fefecd" stroke="transparent" points="37.5,-32 37.5,-45 84.5,-45 84.5,-32 37.5,-32"/>
<polyline fill="none" stroke="#444443" points="84.5,-32 84.5,-45 "/>
<text text-anchor="start" x="63.3262" y="-35.2" font-family="Helvetica,sans-Serif" font-size="11.00" fill="#444443">title </text>
<polygon fill="#fefecd" stroke="transparent" points="84.5,-32 84.5,-45 164.5,-45 164.5,-32 84.5,-32"/>
<text text-anchor="start" x="85.5" y="-35.2" font-family="Helvetica,sans-Serif" font-size="11.00" fill="#444443"> &#39;David Brin&#39;</text>
<polygon fill="#fefecd" stroke="transparent" points="37.5,-30 37.5,-32 164.5,-32 164.5,-30 37.5,-30"/>
<polygon fill="#fefecd" stroke="transparent" points="37.5,-17 37.5,-30 84.5,-30 84.5,-17 37.5,-17"/>
<polyline fill="none" stroke="#444443" points="84.5,-17 84.5,-30 "/>
<text text-anchor="start" x="49.2539" y="-20.2" font-family="Helvetica,sans-Serif" font-size="11.00" fill="#444443">author </text>
<polygon fill="#fefecd" stroke="transparent" points="84.5,-17 84.5,-30 164.5,-30 164.5,-17 84.5,-17"/>
<text text-anchor="start" x="85.1057" y="-20.2" font-family="Helvetica,sans-Serif" font-size="11.00" fill="#444443"> &#39;Startide Rising&#39;</text>
<polygon fill="#fefecd" stroke="transparent" points="37.5,-15 37.5,-17 164.5,-17 164.5,-15 37.5,-15"/>
<polygon fill="#fefecd" stroke="transparent" points="37.5,-2 37.5,-15 84.5,-15 84.5,-2 37.5,-2"/>
<polyline fill="none" stroke="#444443" points="84.5,-2 84.5,-15 "/>
<text text-anchor="start" x="38.377" y="-5.2" font-family="Helvetica,sans-Serif" font-size="11.00" fill="#444443">chapters </text>
<polygon fill="#fefecd" stroke="transparent" points="84.5,-2 84.5,-15 164.5,-15 164.5,-2 84.5,-2"/>
<text text-anchor="start" x="85.5" y="-5.2" font-family="Helvetica,sans-Serif" font-size="11.00" fill="#444443"> &#160;&#160;&#160;</text>
</g>
<!-- node4660237000&#45;&gt;node4660207176 -->
<g id="edge2" class="edge">
<title>node4660237000:1&#45;&gt;node4660207176:w</title>
<path fill="none" stroke="#444443" stroke-width=".5" d="M12.5,-57C26.2297,-57 21.1154,-36.0131 31.0174,-31.7501"/>
<polygon fill="#444443" stroke="#444443" stroke-width=".5" points="31.3283,-33.1162 35,-31 30.81,-30.3646 31.3283,-33.1162"/>
</g>
<!-- node4660184264 -->
<g id="node3" class="node">
<title>node4660184264</title>
<text text-anchor="start" x="190" y="-74.3" font-family="Times,serif" font-style="italic" font-size="9.00" fill="#444443">empty list</text>
</g>
<!-- node4660207288&#45;&gt;node4660184264 -->
<g id="edge3" class="edge">
<title>node4660207288:c&#45;&gt;node4660184264</title>
<path fill="none" stroke="#444443" stroke-width=".5" d="M127.9439,-77C137.293,-77 163.7753,-77 183.6093,-77"/>
<ellipse fill="#444443" stroke="#444443" stroke-width=".5" cx="126.1" cy="-77" rx="1.6" ry="1.6"/>
<polygon fill="#444443" stroke="#444443" stroke-width=".5" points="183.7322,-78.4001 187.7322,-77 183.7321,-75.6001 183.7322,-78.4001"/>
</g>
<!-- node4660186312 -->
<g id="node5" class="node">
<title>node4660186312</title>
<text text-anchor="start" x="190" y="-5.3" font-family="Times,serif" font-style="italic" font-size="9.00" fill="#444443">empty list</text>
</g>
<!-- node4660207176&#45;&gt;node4660186312 -->
<g id="edge4" class="edge">
<title>node4660207176:c&#45;&gt;node4660186312</title>
<path fill="none" stroke="#444443" stroke-width=".5" d="M127.9439,-8C137.293,-8 163.7753,-8 183.6093,-8"/>
<ellipse fill="#444443" stroke="#444443" stroke-width=".5" cx="126.1" cy="-8" rx="1.6" ry="1.6"/>
<polygon fill="#444443" stroke="#444443" stroke-width=".5" points="183.7322,-9.4001 187.7322,-8 183.7321,-6.6001 183.7322,-9.4001"/>
</g>
</g>
</svg>
