<?xml version="1.0" encoding="UTF-8" standalone="no"?>
<!DOCTYPE svg PUBLIC "-//W3C//DTD SVG 1.1//EN"
 "http://www.w3.org/Graphics/SVG/1.1/DTD/svg11.dtd">
<!-- Generated by graphviz version 2.40.1 (20161225.0304)
 -->
<!-- Title: G Pages: 1 -->
<svg width="184pt" height="75pt"
 viewBox="0.00 0.00 184.00 75.00" xmlns="http://www.w3.org/2000/svg" xmlns:xlink="http://www.w3.org/1999/xlink">
<g id="graph0" class="graph" transform="scale(1 1) rotate(0) translate(4 71)">
<title>G</title>
<polygon fill="#ffffff" stroke="transparent" points="-4,4 -4,-71 180,-71 180,4 -4,4"/>
<!-- node4660184264 -->
<g id="node1" class="node">
<title>node4660184264</title>
<polygon fill="#cfe2d4" stroke="#444443" stroke-width=".5" points="13,-49 0,-49 0,-17 13,-17 13,-49"/>
<polygon fill="#cfe2d4" stroke="transparent" points="1.5,-33 1.5,-48 12.5,-48 12.5,-33 1.5,-33"/>
<polyline fill="none" stroke="#444443" points="1.5,-33 12.5,-33 "/>
<text text-anchor="start" x="4.4973" y="-37.8" font-family="Helvetica,sans-Serif" font-size="9.00" fill="#444443">0</text>
<polygon fill="#cfe2d4" stroke="transparent" points="1.5,-18 1.5,-33 12.5,-33 12.5,-18 1.5,-18"/>
<text text-anchor="start" x="4.4973" y="-22.8" font-family="Helvetica,sans-Serif" font-size="9.00" fill="#444443">1</text>
</g>
<!-- node4659494024 -->
<g id="node2" class="node">
<title>node4659494024</title>
<polygon fill="none" stroke="#000000" stroke-width=".5" points="167,-67 44,-67 44,-37 167,-37 167,-67"/>
<polygon fill="#fefecd" stroke="transparent" points="45.5,-55 45.5,-66 104.5,-66 104.5,-55 45.5,-55"/>
<polyline fill="none" stroke="#000000" points="45.5,-55 104.5,-55 104.5,-66 "/>
<text text-anchor="start" x="72.4973" y="-57.8" font-family="Helvetica,sans-Serif" font-size="9.00" fill="#444443">0</text>
<polygon fill="#fefecd" stroke="transparent" points="104.5,-55 104.5,-66 166.5,-66 166.5,-55 104.5,-55"/>
<polyline fill="none" stroke="#000000" points="104.5,-55 166.5,-55 "/>
<text text-anchor="start" x="132.9973" y="-57.8" font-family="Helvetica,sans-Serif" font-size="9.00" fill="#444443">1</text>
<polygon fill="#fefecd" stroke="transparent" points="45.5,-38 45.5,-55 104.5,-55 104.5,-38 45.5,-38"/>
<polyline fill="none" stroke="#000000" points="104.5,-38 104.5,-55 "/>
<text text-anchor="start" x="48.1392" y="-43.2" font-family="Helvetica,sans-Serif" font-size="11.00" fill="#444443">&#39;Gridlinked&#39;</text>
<polygon fill="#fefecd" stroke="transparent" points="104.5,-38 104.5,-55 166.5,-55 166.5,-38 104.5,-38"/>
<text text-anchor="start" x="106.4934" y="-43.2" font-family="Helvetica,sans-Serif" font-size="11.00" fill="#444443">&#39;Neal Asher&#39;</text>
</g>
<!-- node4660184264&#45;&gt;node4659494024 -->
<g id="edge1" class="edge">
<title>node4660184264:0&#45;&gt;node4659494024:w</title>
<path fill="none" stroke="#444443" stroke-width=".5" d="M12.5,-41C25.6347,-41 28.3902,-49.8791 39.4166,-51.6827"/>
<polygon fill="#444443" stroke="#444443" stroke-width=".5" points="39.4035,-53.0858 43.5,-52 39.6205,-50.2942 39.4035,-53.0858"/>
</g>
<!-- node4659494280 -->
<g id="node3" class="node">
<title>node4659494280</title>
<polygon fill="none" stroke="#000000" stroke-width=".5" points="176,-30 35,-30 35,0 176,0 176,-30"/>
<polygon fill="#fefecd" stroke="transparent" points="36.5,-18 36.5,-29 117.5,-29 117.5,-18 36.5,-18"/>
<polyline fill="none" stroke="#000000" points="36.5,-18 117.5,-18 117.5,-29 "/>
<text text-anchor="start" x="74.4973" y="-20.8" font-family="Helvetica,sans-Serif" font-size="9.00" fill="#444443">0</text>
<polygon fill="#fefecd" stroke="transparent" points="117.5,-18 117.5,-29 175.5,-29 175.5,-18 117.5,-18"/>
<polyline fill="none" stroke="#000000" points="117.5,-18 175.5,-18 "/>
<text text-anchor="start" x="143.9973" y="-20.8" font-family="Helvetica,sans-Serif" font-size="9.00" fill="#444443">1</text>
<polygon fill="#fefecd" stroke="transparent" points="36.5,-1 36.5,-18 117.5,-18 117.5,-1 36.5,-1"/>
<polyline fill="none" stroke="#000000" points="117.5,-1 117.5,-18 "/>
<text text-anchor="start" x="39.1338" y="-6.2" font-family="Helvetica,sans-Serif" font-size="11.00" fill="#444443">&#39;Startide Rising&#39;</text>
<polygon fill="#fefecd" stroke="transparent" points="117.5,-1 117.5,-18 175.5,-18 175.5,-1 117.5,-1"/>
<text text-anchor="start" x="119.0295" y="-6.2" font-family="Helvetica,sans-Serif" font-size="11.00" fill="#444443">&#39;David Brin&#39;</text>
</g>
<!-- node4660184264&#45;&gt;node4659494280 -->
<g id="edge2" class="edge">
<title>node4660184264:1&#45;&gt;node4659494280:w</title>
<path fill="none" stroke="#444443" stroke-width=".5" d="M12.5,-25C21.9043,-25 23.68,-17.6147 30.9387,-15.5376"/>
<polygon fill="#444443" stroke="#444443" stroke-width=".5" points="31.2184,-16.9129 35,-15 30.8508,-14.1371 31.2184,-16.9129"/>
</g>
</g>
</svg>
