<?xml version="1.0" encoding="UTF-8" standalone="no"?>
<!DOCTYPE svg PUBLIC "-//W3C//DTD SVG 1.1//EN"
 "http://www.w3.org/Graphics/SVG/1.1/DTD/svg11.dtd">
<!-- Generated by graphviz version 2.40.1 (20161225.0304)
 -->
<!-- Title: G Pages: 1 -->
<svg width="97pt" height="55pt"
 viewBox="0.00 0.00 97.00 55.00" xmlns="http://www.w3.org/2000/svg" xmlns:xlink="http://www.w3.org/1999/xlink">
<g id="graph0" class="graph" transform="scale(1 1) rotate(0) translate(4 51)">
<title>G</title>
<polygon fill="#ffffff" stroke="transparent" points="-4,4 -4,-51 93,-51 93,4 -4,4"/>
<!-- node4660203760 -->
<g id="node1" class="node">
<title>node4660203760</title>
<polygon fill="#fefecd" stroke="#444443" stroke-width=".5" points="89,-47 0,-47 0,0 89,0 89,-47"/>
<polygon fill="#fefecd" stroke="transparent" points="2.5,-31.5 2.5,-44.5 87.5,-44.5 87.5,-31.5 2.5,-31.5"/>
<polyline fill="none" stroke="#444443" points="2.5,-31.5 87.5,-31.5 "/>
<text text-anchor="start" x="3.3525" y="-34.7" font-family="Times,serif" font-style="italic" font-size="11.00" fill="#444443">InterestingAccount</text>
<polygon fill="#fefecd" stroke="transparent" points="2.5,-29.5 2.5,-31.5 87.5,-31.5 87.5,-29.5 2.5,-29.5"/>
<polygon fill="#fefecd" stroke="transparent" points="2.5,-16.5 2.5,-29.5 50.5,-29.5 50.5,-16.5 2.5,-16.5"/>
<polyline fill="none" stroke="#444443" points="50.5,-16.5 50.5,-29.5 "/>
<text text-anchor="start" x="7.9116" y="-19.7" font-family="Helvetica,sans-Serif" font-size="11.00" fill="#444443">balance </text>
<polygon fill="#fefecd" stroke="transparent" points="53.5,-16.5 53.5,-29.5 87.5,-29.5 87.5,-16.5 53.5,-16.5"/>
<text text-anchor="start" x="54.5" y="-19.7" font-family="Helvetica,sans-Serif" font-size="11.00" fill="#444443"> 115.0</text>
<polygon fill="#fefecd" stroke="transparent" points="2.5,-14.5 2.5,-16.5 87.5,-16.5 87.5,-14.5 2.5,-14.5"/>
<polygon fill="#fefecd" stroke="transparent" points="2.5,-1.5 2.5,-14.5 50.5,-14.5 50.5,-1.5 2.5,-1.5"/>
<polyline fill="none" stroke="#444443" points="50.5,-1.5 50.5,-14.5 "/>
<text text-anchor="start" x="27.4893" y="-4.7" font-family="Helvetica,sans-Serif" font-size="11.00" fill="#444443">rate </text>
<polygon fill="#fefecd" stroke="transparent" points="53.5,-1.5 53.5,-14.5 87.5,-14.5 87.5,-1.5 53.5,-1.5"/>
<text text-anchor="start" x="54.5" y="-4.7" font-family="Helvetica,sans-Serif" font-size="11.00" fill="#444443"> 0.15</text>
</g>
</g>
</svg>
