<?xml version="1.0" encoding="UTF-8" standalone="no"?>
<!DOCTYPE svg PUBLIC "-//W3C//DTD SVG 1.1//EN"
 "http://www.w3.org/Graphics/SVG/1.1/DTD/svg11.dtd">
<!-- Generated by graphviz version 2.40.1 (20161225.0304)
 -->
<!-- Title: G Pages: 1 -->
<svg width="308pt" height="26pt"
 viewBox="0.00 0.00 308.00 26.00" xmlns="http://www.w3.org/2000/svg" xmlns:xlink="http://www.w3.org/1999/xlink">
<g id="graph0" class="graph" transform="scale(1 1) rotate(0) translate(4 22)">
<title>G</title>
<polygon fill="#ffffff" stroke="transparent" points="-4,4 -4,-22 304,-22 304,4 -4,4"/>
<!-- node4589648272 -->
<g id="node1" class="node">
<title>node4589648272</title>
<polygon fill="none" stroke="#000000" stroke-width=".5" points="300,-18 0,-18 0,0 300,0 300,-18"/>
<polygon fill="#fefecd" stroke="transparent" points="1,-1 1,-17 32,-17 32,-1 1,-1"/>
<text text-anchor="start" x="3.9878" y="-6" font-family="Helvetica,sans-Serif" font-size="10.00" fill="#444443">0.605</text>
<polygon fill="#fefecd" stroke="transparent" points="32,-1 32,-17 51,-17 51,-1 32,-1"/>
<text text-anchor="start" x="34.5493" y="-6" font-family="Helvetica,sans-Serif" font-size="10.00" fill="#444443">0.6</text>
<polygon fill="#fefecd" stroke="transparent" points="51,-1 51,-17 82,-17 82,-1 51,-1"/>
<text text-anchor="start" x="53.9878" y="-6" font-family="Helvetica,sans-Serif" font-size="10.00" fill="#444443">0.594</text>
<polygon fill="#fefecd" stroke="transparent" points="82,-1 82,-17 113,-17 113,-1 82,-1"/>
<text text-anchor="start" x="84.9878" y="-6" font-family="Helvetica,sans-Serif" font-size="10.00" fill="#444443">0.592</text>
<polygon fill="#fefecd" stroke="transparent" points="113,-1 113,-17 132,-17 132,-1 113,-1"/>
<text text-anchor="start" x="115.5493" y="-6" font-family="Helvetica,sans-Serif" font-size="10.00" fill="#444443">0.6</text>
<polygon fill="#fefecd" stroke="transparent" points="132,-1 132,-17 144,-17 144,-1 132,-1"/>
<text text-anchor="start" x="133.8325" y="-6" font-family="Helvetica,sans-Serif" font-size="10.00" fill="#444443">...</text>
<polygon fill="#fefecd" stroke="transparent" points="144,-1 144,-17 175,-17 175,-1 144,-1"/>
<text text-anchor="start" x="146.9878" y="-6" font-family="Helvetica,sans-Serif" font-size="10.00" fill="#444443">2.009</text>
<polygon fill="#fefecd" stroke="transparent" points="175,-1 175,-17 206,-17 206,-1 175,-1"/>
<text text-anchor="start" x="177.9878" y="-6" font-family="Helvetica,sans-Serif" font-size="10.00" fill="#444443">2.041</text>
<polygon fill="#fefecd" stroke="transparent" points="206,-1 206,-17 237,-17 237,-1 206,-1"/>
<text text-anchor="start" x="208.9878" y="-6" font-family="Helvetica,sans-Serif" font-size="10.00" fill="#444443">1.939</text>
<polygon fill="#fefecd" stroke="transparent" points="237,-1 237,-17 268,-17 268,-1 237,-1"/>
<text text-anchor="start" x="239.9878" y="-6" font-family="Helvetica,sans-Serif" font-size="10.00" fill="#444443">1.898</text>
<polygon fill="#fefecd" stroke="transparent" points="268,-1 268,-17 299,-17 299,-1 268,-1"/>
<text text-anchor="start" x="270.9878" y="-6" font-family="Helvetica,sans-Serif" font-size="10.00" fill="#444443">1.891</text>
</g>
</g>
</svg>
