<?xml version="1.0" encoding="UTF-8" standalone="no"?>
<!DOCTYPE svg PUBLIC "-//W3C//DTD SVG 1.1//EN"
 "http://www.w3.org/Graphics/SVG/1.1/DTD/svg11.dtd">
<!-- Generated by graphviz version 2.40.1 (20161225.0304)
 -->
<!-- Title: G Pages: 1 -->
<svg width="97pt" height="105pt"
 viewBox="0.00 0.00 97.00 105.00" xmlns="http://www.w3.org/2000/svg" xmlns:xlink="http://www.w3.org/1999/xlink">
<g id="graph0" class="graph" transform="scale(1 1) rotate(0) translate(4 101)">
<title>G</title>
<polygon fill="#ffffff" stroke="transparent" points="-4,4 -4,-101 93,-101 93,4 -4,4"/>
<!-- node4716907400 -->
<g id="node1" class="node">
<title>node4716907400</title>
<polygon fill="#d9e6f5" stroke="#444443" stroke-width=".5" points="89,-97 0,-97 0,-35 89,-35 89,-97"/>
<polygon fill="#d9e6f5" stroke="transparent" points="2.5,-82 2.5,-95 87.5,-95 87.5,-82 2.5,-82"/>
<polyline fill="none" stroke="#444443" points="2.5,-82 87.5,-82 "/>
<text text-anchor="start" x="28.8035" y="-85.2" font-family="Times,serif" font-style="italic" font-size="11.00" fill="#444443">globals</text>
<polygon fill="#d9e6f5" stroke="transparent" points="2.5,-80 2.5,-82 87.5,-82 87.5,-80 2.5,-80"/>
<polygon fill="#d9e6f5" stroke="transparent" points="2.5,-67 2.5,-80 21.5,-80 21.5,-67 2.5,-67"/>
<polyline fill="none" stroke="#444443" points="21.5,-67 21.5,-80 "/>
<text text-anchor="start" x="11.3262" y="-70.2" font-family="Helvetica,sans-Serif" font-size="11.00" fill="#444443">a </text>
<polygon fill="#d9e6f5" stroke="transparent" points="21.5,-67 21.5,-80 87.5,-80 87.5,-67 21.5,-67"/>
<text text-anchor="start" x="22.5" y="-70.2" font-family="Helvetica,sans-Serif" font-size="11.00" fill="#444443"> 16807</text>
<polygon fill="#d9e6f5" stroke="transparent" points="2.5,-65 2.5,-67 87.5,-67 87.5,-65 2.5,-65"/>
<polygon fill="#d9e6f5" stroke="transparent" points="2.5,-52 2.5,-65 21.5,-65 21.5,-52 2.5,-52"/>
<polyline fill="none" stroke="#444443" points="21.5,-52 21.5,-65 "/>
<text text-anchor="start" x="8.2808" y="-55.2" font-family="Helvetica,sans-Serif" font-size="11.00" fill="#444443">m </text>
<polygon fill="#d9e6f5" stroke="transparent" points="21.5,-52 21.5,-65 87.5,-65 87.5,-52 21.5,-52"/>
<text text-anchor="start" x="22.3835" y="-55.2" font-family="Helvetica,sans-Serif" font-size="11.00" fill="#444443"> 2147483647</text>
<polygon fill="#d9e6f5" stroke="transparent" points="2.5,-50 2.5,-52 87.5,-52 87.5,-50 2.5,-50"/>
<polygon fill="#d9e6f5" stroke="transparent" points="2.5,-37 2.5,-50 21.5,-50 21.5,-37 2.5,-37"/>
<polyline fill="none" stroke="#444443" points="21.5,-37 21.5,-50 "/>
<text text-anchor="start" x="3.4412" y="-40.2" font-family="Helvetica,sans-Serif" font-size="11.00" fill="#444443">x_i </text>
<polygon fill="#d9e6f5" stroke="transparent" points="21.5,-37 21.5,-50 87.5,-50 87.5,-37 21.5,-37"/>
<text text-anchor="start" x="22.5" y="-40.2" font-family="Helvetica,sans-Serif" font-size="11.00" fill="#444443"> 11193462</text>
</g>
<!-- node4716906920 -->
<g id="node2" class="node">
<title>node4716906920</title>
<polygon fill="#d9e6f5" stroke="#444443" stroke-width=".5" points="63.5,-28 25.5,-28 25.5,0 63.5,0 63.5,-28"/>
<polygon fill="#d9e6f5" stroke="transparent" points="27.5,-13 27.5,-26 61.5,-26 61.5,-13 27.5,-13"/>
<polyline fill="none" stroke="#444443" points="27.5,-13 61.5,-13 "/>
<text text-anchor="start" x="28.3035" y="-16.2" font-family="Times,serif" font-style="italic" font-size="11.00" fill="#444443">runif01</text>
<polygon fill="#d9e6f5" stroke="transparent" points="27.5,-11 27.5,-13 61.5,-13 61.5,-11 27.5,-11"/>
<text text-anchor="start" x="32.7488" y="-3.8" font-family="Helvetica,sans-Serif" font-size="9.00" fill="#444443"> ... </text>
</g>
<!-- node4716907400&#45;&gt;node4716906920 -->
</g>
</svg>
