<?xml version="1.0" encoding="utf-8" standalone="no"?>
<!DOCTYPE svg PUBLIC "-//W3C//DTD SVG 1.1//EN"
  "http://www.w3.org/Graphics/SVG/1.1/DTD/svg11.dtd">
<!-- Created with matplotlib (http://matplotlib.org/) -->
<svg height="288pt" version="1.1" viewBox="0 0 432 288" width="432pt" xmlns="http://www.w3.org/2000/svg" xmlns:xlink="http://www.w3.org/1999/xlink">
 <defs>
  <style type="text/css">
*{stroke-linecap:butt;stroke-linejoin:round;}
  </style>
 </defs>
 <g id="figure_1">
  <g id="patch_1">
   <path d="M 0 288 
L 432 288 
L 432 0 
L 0 0 
z
" style="fill:#ffffff;"/>
  </g>
  <g id="axes_1">
   <g id="patch_2">
    <path d="M 32.55 260.2 
L 417.7 260.2 
L 417.7 14.3 
L 32.55 14.3 
z
" style="fill:#ffffff;"/>
   </g>
   <g id="PathCollection_1">
    <defs>
     <path d="M 0 1.118034 
C 0.296506 1.118034 0.580908 1.000231 0.790569 0.790569 
C 1.000231 0.580908 1.118034 0.296506 1.118034 0 
C 1.118034 -0.296506 1.000231 -0.580908 0.790569 -0.790569 
C 0.580908 -1.000231 0.296506 -1.118034 0 -1.118034 
C -0.296506 -1.118034 -0.580908 -1.000231 -0.790569 -0.790569 
C -1.000231 -0.580908 -1.118034 -0.296506 -1.118034 0 
C -1.118034 0.296506 -1.000231 0.580908 -0.790569 0.790569 
C -0.580908 1.000231 -0.296506 1.118034 0 1.118034 
z
" id="m870ff65e3d" style="stroke:#8b0000;"/>
    </defs>
    <g clip-path="url(#p4af469911a)">
     <use style="fill:#8b0000;stroke:#8b0000;" x="232.974382" xlink:href="#m870ff65e3d" y="140.962741"/>
     <use style="fill:#8b0000;stroke:#8b0000;" x="235.37048" xlink:href="#m870ff65e3d" y="142.667395"/>
     <use style="fill:#8b0000;stroke:#8b0000;" x="237.959438" xlink:href="#m870ff65e3d" y="144.650036"/>
     <use style="fill:#8b0000;stroke:#8b0000;" x="240.73575" xlink:href="#m870ff65e3d" y="146.920434"/>
     <use style="fill:#8b0000;stroke:#8b0000;" x="243.687967" xlink:href="#m870ff65e3d" y="149.475738"/>
     <use style="fill:#8b0000;stroke:#8b0000;" x="246.798155" xlink:href="#m870ff65e3d" y="152.297521"/>
     <use style="fill:#8b0000;stroke:#8b0000;" x="250.041787" xlink:href="#m870ff65e3d" y="155.350113"/>
     <use style="fill:#8b0000;stroke:#8b0000;" x="253.388215" xlink:href="#m870ff65e3d" y="158.58093"/>
     <use style="fill:#8b0000;stroke:#8b0000;" x="256.801779" xlink:href="#m870ff65e3d" y="161.923228"/>
     <use style="fill:#8b0000;stroke:#8b0000;" x="260.243499" xlink:href="#m870ff65e3d" y="165.301162"/>
     <use style="fill:#8b0000;stroke:#8b0000;" x="263.673207" xlink:href="#m870ff65e3d" y="168.63645"/>
     <use style="fill:#8b0000;stroke:#8b0000;" x="267.051828" xlink:href="#m870ff65e3d" y="171.855444"/>
     <use style="fill:#8b0000;stroke:#8b0000;" x="270.343523" xlink:href="#m870ff65e3d" y="174.8953"/>
     <use style="fill:#8b0000;stroke:#8b0000;" x="273.517404" xlink:href="#m870ff65e3d" y="177.708203"/>
     <use style="fill:#8b0000;stroke:#8b0000;" x="276.548645" xlink:href="#m870ff65e3d" y="180.263172"/>
     <use style="fill:#8b0000;stroke:#8b0000;" x="279.418944" xlink:href="#m870ff65e3d" y="182.545573"/>
     <use style="fill:#8b0000;stroke:#8b0000;" x="282.116387" xlink:href="#m870ff65e3d" y="184.554931"/>
     <use style="fill:#8b0000;stroke:#8b0000;" x="284.634862" xlink:href="#m870ff65e3d" y="186.30178"/>
     <use style="fill:#8b0000;stroke:#8b0000;" x="286.9732" xlink:href="#m870ff65e3d" y="187.804294"/>
     <use style="fill:#8b0000;stroke:#8b0000;" x="289.134194" xlink:href="#m870ff65e3d" y="189.085183"/>
     <use style="fill:#8b0000;stroke:#8b0000;" x="291.123626" xlink:href="#m870ff65e3d" y="190.169157"/>
     <use style="fill:#8b0000;stroke:#8b0000;" x="292.949386" xlink:href="#m870ff65e3d" y="191.081039"/>
     <use style="fill:#8b0000;stroke:#8b0000;" x="294.620724" xlink:href="#m870ff65e3d" y="191.844497"/>
     <use style="fill:#8b0000;stroke:#8b0000;" x="296.147645" xlink:href="#m870ff65e3d" y="192.481278"/>
     <use style="fill:#8b0000;stroke:#8b0000;" x="297.540445" xlink:href="#m870ff65e3d" y="193.010838"/>
     <use style="fill:#8b0000;stroke:#8b0000;" x="298.80937" xlink:href="#m870ff65e3d" y="193.450236"/>
     <use style="fill:#8b0000;stroke:#8b0000;" x="299.964379" xlink:href="#m870ff65e3d" y="193.8142"/>
     <use style="fill:#8b0000;stroke:#8b0000;" x="301.014984" xlink:href="#m870ff65e3d" y="194.115303"/>
     <use style="fill:#8b0000;stroke:#8b0000;" x="301.970153" xlink:href="#m870ff65e3d" y="194.364178"/>
     <use style="fill:#8b0000;stroke:#8b0000;" x="302.838258" xlink:href="#m870ff65e3d" y="194.569758"/>
     <use style="fill:#8b0000;stroke:#8b0000;" x="303.62706" xlink:href="#m870ff65e3d" y="194.739509"/>
     <use style="fill:#8b0000;stroke:#8b0000;" x="304.343708" xlink:href="#m870ff65e3d" y="194.879647"/>
     <use style="fill:#8b0000;stroke:#8b0000;" x="304.994763" xlink:href="#m870ff65e3d" y="194.995328"/>
     <use style="fill:#8b0000;stroke:#8b0000;" x="305.586226" xlink:href="#m870ff65e3d" y="195.090822"/>
     <use style="fill:#8b0000;stroke:#8b0000;" x="306.123568" xlink:href="#m870ff65e3d" y="195.169662"/>
     <use style="fill:#8b0000;stroke:#8b0000;" x="306.611774" xlink:href="#m870ff65e3d" y="195.234761"/>
     <use style="fill:#8b0000;stroke:#8b0000;" x="307.055374" xlink:href="#m870ff65e3d" y="195.288526"/>
     <use style="fill:#8b0000;stroke:#8b0000;" x="307.458483" xlink:href="#m870ff65e3d" y="195.33294"/>
     <use style="fill:#8b0000;stroke:#8b0000;" x="307.824836" xlink:href="#m870ff65e3d" y="195.369638"/>
     <use style="fill:#8b0000;stroke:#8b0000;" x="308.157824" xlink:href="#m870ff65e3d" y="195.39997"/>
     <use style="fill:#8b0000;stroke:#8b0000;" x="308.460519" xlink:href="#m870ff65e3d" y="195.425045"/>
     <use style="fill:#8b0000;stroke:#8b0000;" x="308.735709" xlink:href="#m870ff65e3d" y="195.445781"/>
     <use style="fill:#8b0000;stroke:#8b0000;" x="308.985922" xlink:href="#m870ff65e3d" y="195.462933"/>
     <use style="fill:#8b0000;stroke:#8b0000;" x="309.213449" xlink:href="#m870ff65e3d" y="195.477124"/>
     <use style="fill:#8b0000;stroke:#8b0000;" x="309.420368" xlink:href="#m870ff65e3d" y="195.488869"/>
     <use style="fill:#8b0000;stroke:#8b0000;" x="309.608566" xlink:href="#m870ff65e3d" y="195.498591"/>
     <use style="fill:#8b0000;stroke:#8b0000;" x="309.779752" xlink:href="#m870ff65e3d" y="195.506642"/>
     <use style="fill:#8b0000;stroke:#8b0000;" x="309.935479" xlink:href="#m870ff65e3d" y="195.513309"/>
     <use style="fill:#8b0000;stroke:#8b0000;" x="310.077153" xlink:href="#m870ff65e3d" y="195.518833"/>
     <use style="fill:#8b0000;stroke:#8b0000;" x="310.206053" xlink:href="#m870ff65e3d" y="195.52341"/>
     <use style="fill:#8b0000;stroke:#8b0000;" x="310.32334" xlink:href="#m870ff65e3d" y="195.527203"/>
     <use style="fill:#8b0000;stroke:#8b0000;" x="310.430067" xlink:href="#m870ff65e3d" y="195.530348"/>
     <use style="fill:#8b0000;stroke:#8b0000;" x="310.527192" xlink:href="#m870ff65e3d" y="195.532955"/>
     <use style="fill:#8b0000;stroke:#8b0000;" x="310.615582" xlink:href="#m870ff65e3d" y="195.535118"/>
     <use style="fill:#8b0000;stroke:#8b0000;" x="310.696028" xlink:href="#m870ff65e3d" y="195.536913"/>
     <use style="fill:#8b0000;stroke:#8b0000;" x="310.769249" xlink:href="#m870ff65e3d" y="195.538401"/>
     <use style="fill:#8b0000;stroke:#8b0000;" x="310.835894" xlink:href="#m870ff65e3d" y="195.539637"/>
     <use style="fill:#8b0000;stroke:#8b0000;" x="310.896559" xlink:href="#m870ff65e3d" y="195.540663"/>
     <use style="fill:#8b0000;stroke:#8b0000;" x="310.951781" xlink:href="#m870ff65e3d" y="195.541515"/>
     <use style="fill:#8b0000;stroke:#8b0000;" x="311.002051" xlink:href="#m870ff65e3d" y="195.542223"/>
     <use style="fill:#8b0000;stroke:#8b0000;" x="311.047814" xlink:href="#m870ff65e3d" y="195.542811"/>
     <use style="fill:#8b0000;stroke:#8b0000;" x="311.089476" xlink:href="#m870ff65e3d" y="195.5433"/>
     <use style="fill:#8b0000;stroke:#8b0000;" x="311.127405" xlink:href="#m870ff65e3d" y="195.543706"/>
     <use style="fill:#8b0000;stroke:#8b0000;" x="311.161936" xlink:href="#m870ff65e3d" y="195.544044"/>
     <use style="fill:#8b0000;stroke:#8b0000;" x="311.193375" xlink:href="#m870ff65e3d" y="195.544326"/>
     <use style="fill:#8b0000;stroke:#8b0000;" x="311.221999" xlink:href="#m870ff65e3d" y="195.54456"/>
     <use style="fill:#8b0000;stroke:#8b0000;" x="311.248061" xlink:href="#m870ff65e3d" y="195.544755"/>
     <use style="fill:#8b0000;stroke:#8b0000;" x="311.27179" xlink:href="#m870ff65e3d" y="195.544917"/>
     <use style="fill:#8b0000;stroke:#8b0000;" x="311.293396" xlink:href="#m870ff65e3d" y="195.545053"/>
     <use style="fill:#8b0000;stroke:#8b0000;" x="311.313069" xlink:href="#m870ff65e3d" y="195.545166"/>
     <use style="fill:#8b0000;stroke:#8b0000;" x="311.330982" xlink:href="#m870ff65e3d" y="195.54526"/>
     <use style="fill:#8b0000;stroke:#8b0000;" x="311.347292" xlink:href="#m870ff65e3d" y="195.545338"/>
     <use style="fill:#8b0000;stroke:#8b0000;" x="311.362144" xlink:href="#m870ff65e3d" y="195.545404"/>
     <use style="fill:#8b0000;stroke:#8b0000;" x="311.375667" xlink:href="#m870ff65e3d" y="195.545459"/>
     <use style="fill:#8b0000;stroke:#8b0000;" x="311.387982" xlink:href="#m870ff65e3d" y="195.545505"/>
     <use style="fill:#8b0000;stroke:#8b0000;" x="311.399195" xlink:href="#m870ff65e3d" y="195.545543"/>
     <use style="fill:#8b0000;stroke:#8b0000;" x="311.409406" xlink:href="#m870ff65e3d" y="195.545576"/>
     <use style="fill:#8b0000;stroke:#8b0000;" x="311.418704" xlink:href="#m870ff65e3d" y="195.545603"/>
     <use style="fill:#8b0000;stroke:#8b0000;" x="311.42717" xlink:href="#m870ff65e3d" y="195.545626"/>
     <use style="fill:#8b0000;stroke:#8b0000;" x="311.43488" xlink:href="#m870ff65e3d" y="195.545645"/>
     <use style="fill:#8b0000;stroke:#8b0000;" x="311.441901" xlink:href="#m870ff65e3d" y="195.545661"/>
     <use style="fill:#8b0000;stroke:#8b0000;" x="311.448294" xlink:href="#m870ff65e3d" y="195.545674"/>
     <use style="fill:#8b0000;stroke:#8b0000;" x="311.454116" xlink:href="#m870ff65e3d" y="195.545686"/>
     <use style="fill:#8b0000;stroke:#8b0000;" x="311.459418" xlink:href="#m870ff65e3d" y="195.545695"/>
     <use style="fill:#8b0000;stroke:#8b0000;" x="311.464245" xlink:href="#m870ff65e3d" y="195.545703"/>
     <use style="fill:#8b0000;stroke:#8b0000;" x="311.468642" xlink:href="#m870ff65e3d" y="195.54571"/>
     <use style="fill:#8b0000;stroke:#8b0000;" x="311.472645" xlink:href="#m870ff65e3d" y="195.545716"/>
     <use style="fill:#8b0000;stroke:#8b0000;" x="311.476291" xlink:href="#m870ff65e3d" y="195.545721"/>
     <use style="fill:#8b0000;stroke:#8b0000;" x="311.479611" xlink:href="#m870ff65e3d" y="195.545725"/>
     <use style="fill:#8b0000;stroke:#8b0000;" x="311.482634" xlink:href="#m870ff65e3d" y="195.545729"/>
     <use style="fill:#8b0000;stroke:#8b0000;" x="311.485387" xlink:href="#m870ff65e3d" y="195.545732"/>
     <use style="fill:#8b0000;stroke:#8b0000;" x="311.487894" xlink:href="#m870ff65e3d" y="195.545735"/>
     <use style="fill:#8b0000;stroke:#8b0000;" x="311.490178" xlink:href="#m870ff65e3d" y="195.545737"/>
     <use style="fill:#8b0000;stroke:#8b0000;" x="311.492257" xlink:href="#m870ff65e3d" y="195.545739"/>
     <use style="fill:#8b0000;stroke:#8b0000;" x="311.49415" xlink:href="#m870ff65e3d" y="195.545741"/>
     <use style="fill:#8b0000;stroke:#8b0000;" x="311.495874" xlink:href="#m870ff65e3d" y="195.545742"/>
     <use style="fill:#8b0000;stroke:#8b0000;" x="311.497445" xlink:href="#m870ff65e3d" y="195.545744"/>
     <use style="fill:#8b0000;stroke:#8b0000;" x="311.498875" xlink:href="#m870ff65e3d" y="195.545745"/>
     <use style="fill:#8b0000;stroke:#8b0000;" x="311.500177" xlink:href="#m870ff65e3d" y="195.545746"/>
     <use style="fill:#8b0000;stroke:#8b0000;" x="311.501362" xlink:href="#m870ff65e3d" y="195.545746"/>
     <use style="fill:#8b0000;stroke:#8b0000;" x="311.502442" xlink:href="#m870ff65e3d" y="195.545747"/>
     <use style="fill:#8b0000;stroke:#8b0000;" x="311.503426" xlink:href="#m870ff65e3d" y="195.545748"/>
     <use style="fill:#8b0000;stroke:#8b0000;" x="311.504321" xlink:href="#m870ff65e3d" y="195.545748"/>
     <use style="fill:#8b0000;stroke:#8b0000;" x="311.505137" xlink:href="#m870ff65e3d" y="195.545749"/>
     <use style="fill:#8b0000;stroke:#8b0000;" x="311.505879" xlink:href="#m870ff65e3d" y="195.545749"/>
     <use style="fill:#8b0000;stroke:#8b0000;" x="311.506556" xlink:href="#m870ff65e3d" y="195.54575"/>
     <use style="fill:#8b0000;stroke:#8b0000;" x="311.507172" xlink:href="#m870ff65e3d" y="195.54575"/>
     <use style="fill:#8b0000;stroke:#8b0000;" x="311.507733" xlink:href="#m870ff65e3d" y="195.54575"/>
     <use style="fill:#8b0000;stroke:#8b0000;" x="311.508243" xlink:href="#m870ff65e3d" y="195.54575"/>
     <use style="fill:#8b0000;stroke:#8b0000;" x="311.508709" xlink:href="#m870ff65e3d" y="195.545751"/>
     <use style="fill:#8b0000;stroke:#8b0000;" x="311.509132" xlink:href="#m870ff65e3d" y="195.545751"/>
     <use style="fill:#8b0000;stroke:#8b0000;" x="311.509518" xlink:href="#m870ff65e3d" y="195.545751"/>
     <use style="fill:#8b0000;stroke:#8b0000;" x="311.509869" xlink:href="#m870ff65e3d" y="195.545751"/>
     <use style="fill:#8b0000;stroke:#8b0000;" x="311.510189" xlink:href="#m870ff65e3d" y="195.545751"/>
     <use style="fill:#8b0000;stroke:#8b0000;" x="311.51048" xlink:href="#m870ff65e3d" y="195.545752"/>
     <use style="fill:#8b0000;stroke:#8b0000;" x="311.510746" xlink:href="#m870ff65e3d" y="195.545752"/>
     <use style="fill:#8b0000;stroke:#8b0000;" x="311.510987" xlink:href="#m870ff65e3d" y="195.545752"/>
     <use style="fill:#8b0000;stroke:#8b0000;" x="311.511207" xlink:href="#m870ff65e3d" y="195.545752"/>
     <use style="fill:#8b0000;stroke:#8b0000;" x="311.511408" xlink:href="#m870ff65e3d" y="195.545752"/>
     <use style="fill:#8b0000;stroke:#8b0000;" x="311.51159" xlink:href="#m870ff65e3d" y="195.545752"/>
     <use style="fill:#8b0000;stroke:#8b0000;" x="311.511756" xlink:href="#m870ff65e3d" y="195.545752"/>
     <use style="fill:#8b0000;stroke:#8b0000;" x="311.511908" xlink:href="#m870ff65e3d" y="195.545752"/>
     <use style="fill:#8b0000;stroke:#8b0000;" x="311.512045" xlink:href="#m870ff65e3d" y="195.545752"/>
     <use style="fill:#8b0000;stroke:#8b0000;" x="311.512171" xlink:href="#m870ff65e3d" y="195.545752"/>
     <use style="fill:#8b0000;stroke:#8b0000;" x="311.512285" xlink:href="#m870ff65e3d" y="195.545752"/>
     <use style="fill:#8b0000;stroke:#8b0000;" x="311.512389" xlink:href="#m870ff65e3d" y="195.545752"/>
     <use style="fill:#8b0000;stroke:#8b0000;" x="311.512484" xlink:href="#m870ff65e3d" y="195.545752"/>
     <use style="fill:#8b0000;stroke:#8b0000;" x="311.51257" xlink:href="#m870ff65e3d" y="195.545752"/>
     <use style="fill:#8b0000;stroke:#8b0000;" x="311.512649" xlink:href="#m870ff65e3d" y="195.545752"/>
     <use style="fill:#8b0000;stroke:#8b0000;" x="311.512721" xlink:href="#m870ff65e3d" y="195.545753"/>
     <use style="fill:#8b0000;stroke:#8b0000;" x="311.512786" xlink:href="#m870ff65e3d" y="195.545753"/>
     <use style="fill:#8b0000;stroke:#8b0000;" x="311.512845" xlink:href="#m870ff65e3d" y="195.545753"/>
     <use style="fill:#8b0000;stroke:#8b0000;" x="311.512899" xlink:href="#m870ff65e3d" y="195.545753"/>
     <use style="fill:#8b0000;stroke:#8b0000;" x="311.512948" xlink:href="#m870ff65e3d" y="195.545753"/>
     <use style="fill:#8b0000;stroke:#8b0000;" x="311.512993" xlink:href="#m870ff65e3d" y="195.545753"/>
     <use style="fill:#8b0000;stroke:#8b0000;" x="311.513034" xlink:href="#m870ff65e3d" y="195.545753"/>
     <use style="fill:#8b0000;stroke:#8b0000;" x="311.513071" xlink:href="#m870ff65e3d" y="195.545753"/>
     <use style="fill:#8b0000;stroke:#8b0000;" x="311.513105" xlink:href="#m870ff65e3d" y="195.545753"/>
     <use style="fill:#8b0000;stroke:#8b0000;" x="311.513136" xlink:href="#m870ff65e3d" y="195.545753"/>
     <use style="fill:#8b0000;stroke:#8b0000;" x="311.513164" xlink:href="#m870ff65e3d" y="195.545753"/>
    </g>
   </g>
   <g id="matplotlib.axis_1">
    <g id="xtick_1">
     <g id="line2d_1">
      <defs>
       <path d="M 0 0 
L 0 3.5 
" id="md08170859d" style="stroke:#000000;stroke-width:0.8;"/>
      </defs>
      <g>
       <use style="stroke:#000000;stroke-width:0.8;" x="79.480042" xlink:href="#md08170859d" y="260.2"/>
      </g>
     </g>
     <g id="text_1">
      <!-- 0.2 -->
      <defs>
       <path d="M 31.78125 66.40625 
Q 24.171875 66.40625 20.328125 58.90625 
Q 16.5 51.421875 16.5 36.375 
Q 16.5 21.390625 20.328125 13.890625 
Q 24.171875 6.390625 31.78125 6.390625 
Q 39.453125 6.390625 43.28125 13.890625 
Q 47.125 21.390625 47.125 36.375 
Q 47.125 51.421875 43.28125 58.90625 
Q 39.453125 66.40625 31.78125 66.40625 
z
M 31.78125 74.21875 
Q 44.046875 74.21875 50.515625 64.515625 
Q 56.984375 54.828125 56.984375 36.375 
Q 56.984375 17.96875 50.515625 8.265625 
Q 44.046875 -1.421875 31.78125 -1.421875 
Q 19.53125 -1.421875 13.0625 8.265625 
Q 6.59375 17.96875 6.59375 36.375 
Q 6.59375 54.828125 13.0625 64.515625 
Q 19.53125 74.21875 31.78125 74.21875 
z
" id="DejaVuSans-30"/>
       <path d="M 10.6875 12.40625 
L 21 12.40625 
L 21 0 
L 10.6875 0 
z
" id="DejaVuSans-2e"/>
       <path d="M 19.1875 8.296875 
L 53.609375 8.296875 
L 53.609375 0 
L 7.328125 0 
L 7.328125 8.296875 
Q 12.9375 14.109375 22.625 23.890625 
Q 32.328125 33.6875 34.8125 36.53125 
Q 39.546875 41.84375 41.421875 45.53125 
Q 43.3125 49.21875 43.3125 52.78125 
Q 43.3125 58.59375 39.234375 62.25 
Q 35.15625 65.921875 28.609375 65.921875 
Q 23.96875 65.921875 18.8125 64.3125 
Q 13.671875 62.703125 7.8125 59.421875 
L 7.8125 69.390625 
Q 13.765625 71.78125 18.9375 73 
Q 24.125 74.21875 28.421875 74.21875 
Q 39.75 74.21875 46.484375 68.546875 
Q 53.21875 62.890625 53.21875 53.421875 
Q 53.21875 48.921875 51.53125 44.890625 
Q 49.859375 40.875 45.40625 35.40625 
Q 44.1875 33.984375 37.640625 27.21875 
Q 31.109375 20.453125 19.1875 8.296875 
z
" id="DejaVuSans-32"/>
      </defs>
      <g transform="translate(71.52848 274.798437)scale(0.1 -0.1)">
       <use xlink:href="#DejaVuSans-30"/>
       <use x="63.623047" xlink:href="#DejaVuSans-2e"/>
       <use x="95.410156" xlink:href="#DejaVuSans-32"/>
      </g>
     </g>
    </g>
    <g id="xtick_2">
     <g id="line2d_2">
      <g>
       <use style="stroke:#000000;stroke-width:0.8;" x="138.32649" xlink:href="#md08170859d" y="260.2"/>
      </g>
     </g>
     <g id="text_2">
      <!-- 0.4 -->
      <defs>
       <path d="M 37.796875 64.3125 
L 12.890625 25.390625 
L 37.796875 25.390625 
z
M 35.203125 72.90625 
L 47.609375 72.90625 
L 47.609375 25.390625 
L 58.015625 25.390625 
L 58.015625 17.1875 
L 47.609375 17.1875 
L 47.609375 0 
L 37.796875 0 
L 37.796875 17.1875 
L 4.890625 17.1875 
L 4.890625 26.703125 
z
" id="DejaVuSans-34"/>
      </defs>
      <g transform="translate(130.374927 274.798437)scale(0.1 -0.1)">
       <use xlink:href="#DejaVuSans-30"/>
       <use x="63.623047" xlink:href="#DejaVuSans-2e"/>
       <use x="95.410156" xlink:href="#DejaVuSans-34"/>
      </g>
     </g>
    </g>
    <g id="xtick_3">
     <g id="line2d_3">
      <g>
       <use style="stroke:#000000;stroke-width:0.8;" x="197.172937" xlink:href="#md08170859d" y="260.2"/>
      </g>
     </g>
     <g id="text_3">
      <!-- 0.6 -->
      <defs>
       <path d="M 33.015625 40.375 
Q 26.375 40.375 22.484375 35.828125 
Q 18.609375 31.296875 18.609375 23.390625 
Q 18.609375 15.53125 22.484375 10.953125 
Q 26.375 6.390625 33.015625 6.390625 
Q 39.65625 6.390625 43.53125 10.953125 
Q 47.40625 15.53125 47.40625 23.390625 
Q 47.40625 31.296875 43.53125 35.828125 
Q 39.65625 40.375 33.015625 40.375 
z
M 52.59375 71.296875 
L 52.59375 62.3125 
Q 48.875 64.0625 45.09375 64.984375 
Q 41.3125 65.921875 37.59375 65.921875 
Q 27.828125 65.921875 22.671875 59.328125 
Q 17.53125 52.734375 16.796875 39.40625 
Q 19.671875 43.65625 24.015625 45.921875 
Q 28.375 48.1875 33.59375 48.1875 
Q 44.578125 48.1875 50.953125 41.515625 
Q 57.328125 34.859375 57.328125 23.390625 
Q 57.328125 12.15625 50.6875 5.359375 
Q 44.046875 -1.421875 33.015625 -1.421875 
Q 20.359375 -1.421875 13.671875 8.265625 
Q 6.984375 17.96875 6.984375 36.375 
Q 6.984375 53.65625 15.1875 63.9375 
Q 23.390625 74.21875 37.203125 74.21875 
Q 40.921875 74.21875 44.703125 73.484375 
Q 48.484375 72.75 52.59375 71.296875 
z
" id="DejaVuSans-36"/>
      </defs>
      <g transform="translate(189.221375 274.798437)scale(0.1 -0.1)">
       <use xlink:href="#DejaVuSans-30"/>
       <use x="63.623047" xlink:href="#DejaVuSans-2e"/>
       <use x="95.410156" xlink:href="#DejaVuSans-36"/>
      </g>
     </g>
    </g>
    <g id="xtick_4">
     <g id="line2d_4">
      <g>
       <use style="stroke:#000000;stroke-width:0.8;" x="256.019385" xlink:href="#md08170859d" y="260.2"/>
      </g>
     </g>
     <g id="text_4">
      <!-- 0.8 -->
      <defs>
       <path d="M 31.78125 34.625 
Q 24.75 34.625 20.71875 30.859375 
Q 16.703125 27.09375 16.703125 20.515625 
Q 16.703125 13.921875 20.71875 10.15625 
Q 24.75 6.390625 31.78125 6.390625 
Q 38.8125 6.390625 42.859375 10.171875 
Q 46.921875 13.96875 46.921875 20.515625 
Q 46.921875 27.09375 42.890625 30.859375 
Q 38.875 34.625 31.78125 34.625 
z
M 21.921875 38.8125 
Q 15.578125 40.375 12.03125 44.71875 
Q 8.5 49.078125 8.5 55.328125 
Q 8.5 64.0625 14.71875 69.140625 
Q 20.953125 74.21875 31.78125 74.21875 
Q 42.671875 74.21875 48.875 69.140625 
Q 55.078125 64.0625 55.078125 55.328125 
Q 55.078125 49.078125 51.53125 44.71875 
Q 48 40.375 41.703125 38.8125 
Q 48.828125 37.15625 52.796875 32.3125 
Q 56.78125 27.484375 56.78125 20.515625 
Q 56.78125 9.90625 50.3125 4.234375 
Q 43.84375 -1.421875 31.78125 -1.421875 
Q 19.734375 -1.421875 13.25 4.234375 
Q 6.78125 9.90625 6.78125 20.515625 
Q 6.78125 27.484375 10.78125 32.3125 
Q 14.796875 37.15625 21.921875 38.8125 
z
M 18.3125 54.390625 
Q 18.3125 48.734375 21.84375 45.5625 
Q 25.390625 42.390625 31.78125 42.390625 
Q 38.140625 42.390625 41.71875 45.5625 
Q 45.3125 48.734375 45.3125 54.390625 
Q 45.3125 60.0625 41.71875 63.234375 
Q 38.140625 66.40625 31.78125 66.40625 
Q 25.390625 66.40625 21.84375 63.234375 
Q 18.3125 60.0625 18.3125 54.390625 
z
" id="DejaVuSans-38"/>
      </defs>
      <g transform="translate(248.067823 274.798437)scale(0.1 -0.1)">
       <use xlink:href="#DejaVuSans-30"/>
       <use x="63.623047" xlink:href="#DejaVuSans-2e"/>
       <use x="95.410156" xlink:href="#DejaVuSans-38"/>
      </g>
     </g>
    </g>
    <g id="xtick_5">
     <g id="line2d_5">
      <g>
       <use style="stroke:#000000;stroke-width:0.8;" x="314.865833" xlink:href="#md08170859d" y="260.2"/>
      </g>
     </g>
     <g id="text_5">
      <!-- 1.0 -->
      <defs>
       <path d="M 12.40625 8.296875 
L 28.515625 8.296875 
L 28.515625 63.921875 
L 10.984375 60.40625 
L 10.984375 69.390625 
L 28.421875 72.90625 
L 38.28125 72.90625 
L 38.28125 8.296875 
L 54.390625 8.296875 
L 54.390625 0 
L 12.40625 0 
z
" id="DejaVuSans-31"/>
      </defs>
      <g transform="translate(306.91427 274.798437)scale(0.1 -0.1)">
       <use xlink:href="#DejaVuSans-31"/>
       <use x="63.623047" xlink:href="#DejaVuSans-2e"/>
       <use x="95.410156" xlink:href="#DejaVuSans-30"/>
      </g>
     </g>
    </g>
    <g id="xtick_6">
     <g id="line2d_6">
      <g>
       <use style="stroke:#000000;stroke-width:0.8;" x="373.71228" xlink:href="#md08170859d" y="260.2"/>
      </g>
     </g>
     <g id="text_6">
      <!-- 1.2 -->
      <g transform="translate(365.760718 274.798437)scale(0.1 -0.1)">
       <use xlink:href="#DejaVuSans-31"/>
       <use x="63.623047" xlink:href="#DejaVuSans-2e"/>
       <use x="95.410156" xlink:href="#DejaVuSans-32"/>
      </g>
     </g>
    </g>
   </g>
   <g id="matplotlib.axis_2">
    <g id="ytick_1">
     <g id="line2d_7">
      <defs>
       <path d="M 0 0 
L -3.5 0 
" id="mefd66e8916" style="stroke:#000000;stroke-width:0.8;"/>
      </defs>
      <g>
       <use style="stroke:#000000;stroke-width:0.8;" x="32.55" xlink:href="#mefd66e8916" y="220.111464"/>
      </g>
     </g>
     <g id="text_7">
      <!-- −2 -->
      <defs>
       <path d="M 10.59375 35.5 
L 73.1875 35.5 
L 73.1875 27.203125 
L 10.59375 27.203125 
z
" id="DejaVuSans-2212"/>
      </defs>
      <g transform="translate(10.807813 223.910683)scale(0.1 -0.1)">
       <use xlink:href="#DejaVuSans-2212"/>
       <use x="83.789062" xlink:href="#DejaVuSans-32"/>
      </g>
     </g>
    </g>
    <g id="ytick_2">
     <g id="line2d_8">
      <g>
       <use style="stroke:#000000;stroke-width:0.8;" x="32.55" xlink:href="#mefd66e8916" y="170.698457"/>
      </g>
     </g>
     <g id="text_8">
      <!-- 0 -->
      <g transform="translate(19.1875 174.497675)scale(0.1 -0.1)">
       <use xlink:href="#DejaVuSans-30"/>
      </g>
     </g>
    </g>
    <g id="ytick_3">
     <g id="line2d_9">
      <g>
       <use style="stroke:#000000;stroke-width:0.8;" x="32.55" xlink:href="#mefd66e8916" y="121.28545"/>
      </g>
     </g>
     <g id="text_9">
      <!-- 2 -->
      <g transform="translate(19.1875 125.084668)scale(0.1 -0.1)">
       <use xlink:href="#DejaVuSans-32"/>
      </g>
     </g>
    </g>
    <g id="ytick_4">
     <g id="line2d_10">
      <g>
       <use style="stroke:#000000;stroke-width:0.8;" x="32.55" xlink:href="#mefd66e8916" y="71.872443"/>
      </g>
     </g>
     <g id="text_10">
      <!-- 4 -->
      <g transform="translate(19.1875 75.671661)scale(0.1 -0.1)">
       <use xlink:href="#DejaVuSans-34"/>
      </g>
     </g>
    </g>
    <g id="ytick_5">
     <g id="line2d_11">
      <g>
       <use style="stroke:#000000;stroke-width:0.8;" x="32.55" xlink:href="#mefd66e8916" y="22.459436"/>
      </g>
     </g>
     <g id="text_11">
      <!-- 6 -->
      <g transform="translate(19.1875 26.258654)scale(0.1 -0.1)">
       <use xlink:href="#DejaVuSans-36"/>
      </g>
     </g>
    </g>
   </g>
   <g id="line2d_12">
    <path clip-path="url(#p4af469911a)" d="M 50.056818 25.477273 
L 52.999141 56.365425 
L 55.941463 83.03581 
L 58.883785 106.321306 
L 61.826108 126.810903 
L 64.76843 144.932132 
L 67.710752 161.002618 
L 70.653075 175.263457 
L 73.595397 187.90149 
L 76.53772 199.064545 
L 79.480042 208.872104 
L 82.422364 217.422913 
L 85.364687 224.800497 
L 88.307009 231.077217 
L 91.249332 236.317282 
L 94.191654 240.579001 
L 97.133976 243.916488 
L 100.076299 246.380935 
L 103.018621 248.021578 
L 105.960943 248.886415 
L 108.903266 249.022727 
L 111.845588 248.47746 
L 114.787911 247.297473 
L 117.730233 245.529706 
L 120.672555 243.221253 
L 123.614878 240.419387 
L 126.5572 237.171521 
L 129.499523 233.525143 
L 132.441845 229.527701 
L 135.384167 225.226472 
L 138.32649 220.66841 
L 141.268812 215.899973 
L 144.211134 210.966946 
L 147.153457 205.914248 
L 150.095779 200.785744 
L 153.038102 195.624052 
L 155.980424 190.470349 
L 158.922746 185.36419 
L 161.865069 180.343326 
L 164.807391 175.443533 
L 167.749714 170.698457 
L 170.692036 166.139462 
L 173.634358 161.795501 
L 176.576681 157.692995 
L 179.519003 153.855733 
L 182.461325 150.304788 
L 185.403648 147.058445 
L 188.34597 144.132158 
L 191.288293 141.538516 
L 194.230615 139.287233 
L 197.172937 137.385155 
L 200.11526 135.836283 
L 203.057582 134.641823 
L 205.999905 133.800244 
L 208.942227 133.307358 
L 211.884549 133.156418 
L 214.826872 133.338228 
L 217.769194 133.841274 
L 220.711516 134.651861 
L 223.653839 135.754267 
L 226.596161 137.130912 
L 229.538484 138.76253 
L 232.480806 140.628354 
L 235.423128 142.706307 
L 238.365451 144.973202 
L 241.307773 147.404942 
L 244.250095 149.976722 
L 247.192418 152.663243 
L 250.13474 155.438907 
L 253.077063 158.278032 
L 256.019385 161.155045 
L 258.961707 164.044683 
L 261.90403 166.922181 
L 264.846352 169.763457 
L 267.788675 172.545283 
L 270.730997 175.245455 
L 273.673319 177.842942 
L 276.615642 180.318031 
L 279.557964 182.652454 
L 282.500286 184.829506 
L 285.442609 186.834144 
L 288.384931 188.653076 
L 291.327254 190.274833 
L 294.269576 191.68982 
L 297.211898 192.890362 
L 300.154221 193.870726 
L 303.096543 194.62713 
L 306.038866 195.157734 
L 308.981188 195.462623 
L 311.92351 195.543765 
L 314.865833 195.40496 
L 317.808155 195.051779 
L 320.750477 194.49148 
L 323.6928 193.732922 
L 326.635122 192.786463 
L 329.577445 191.663843 
L 332.519767 190.378071 
L 335.462089 188.943286 
L 338.404412 187.374629 
L 341.346734 185.688093 
L 344.289057 183.900383 
L 347.231379 182.028757 
L 350.173701 180.090883 
L 353.116024 178.104678 
L 356.058346 176.088156 
L 359.000668 174.059282 
L 361.942991 172.035814 
L 364.885313 170.035166 
L 367.827636 168.074265 
L 370.769958 166.169417 
L 373.71228 164.336182 
L 376.654603 162.589254 
L 379.596925 160.942351 
L 382.539248 159.408119 
L 385.48157 157.998039 
L 388.423892 156.722348 
L 391.366215 155.589974 
L 394.308537 154.608481 
L 397.250859 153.784024 
L 400.193182 153.121319 
" style="fill:none;stroke:#1f77b4;stroke-linecap:square;stroke-width:1.5;"/>
   </g>
   <g id="patch_3">
    <path d="M 32.55 260.2 
L 32.55 14.3 
" style="fill:none;stroke:#000000;stroke-linecap:square;stroke-linejoin:miter;stroke-width:0.8;"/>
   </g>
   <g id="patch_4">
    <path d="M 417.7 260.2 
L 417.7 14.3 
" style="fill:none;stroke:#000000;stroke-linecap:square;stroke-linejoin:miter;stroke-width:0.8;"/>
   </g>
   <g id="patch_5">
    <path d="M 32.55 260.2 
L 417.7 260.2 
" style="fill:none;stroke:#000000;stroke-linecap:square;stroke-linejoin:miter;stroke-width:0.8;"/>
   </g>
   <g id="patch_6">
    <path d="M 32.55 14.3 
L 417.7 14.3 
" style="fill:none;stroke:#000000;stroke-linecap:square;stroke-linejoin:miter;stroke-width:0.8;"/>
   </g>
   <g id="text_12">
    <!-- f(x=0.98861) = -1.00570 -->
    <defs>
     <path d="M 37.109375 75.984375 
L 37.109375 68.5 
L 28.515625 68.5 
Q 23.6875 68.5 21.796875 66.546875 
Q 19.921875 64.59375 19.921875 59.515625 
L 19.921875 54.6875 
L 34.71875 54.6875 
L 34.71875 47.703125 
L 19.921875 47.703125 
L 19.921875 0 
L 10.890625 0 
L 10.890625 47.703125 
L 2.296875 47.703125 
L 2.296875 54.6875 
L 10.890625 54.6875 
L 10.890625 58.5 
Q 10.890625 67.625 15.140625 71.796875 
Q 19.390625 75.984375 28.609375 75.984375 
z
" id="DejaVuSans-66"/>
     <path d="M 31 75.875 
Q 24.46875 64.65625 21.28125 53.65625 
Q 18.109375 42.671875 18.109375 31.390625 
Q 18.109375 20.125 21.3125 9.0625 
Q 24.515625 -2 31 -13.1875 
L 23.1875 -13.1875 
Q 15.875 -1.703125 12.234375 9.375 
Q 8.59375 20.453125 8.59375 31.390625 
Q 8.59375 42.28125 12.203125 53.3125 
Q 15.828125 64.359375 23.1875 75.875 
z
" id="DejaVuSans-28"/>
     <path d="M 54.890625 54.6875 
L 35.109375 28.078125 
L 55.90625 0 
L 45.3125 0 
L 29.390625 21.484375 
L 13.484375 0 
L 2.875 0 
L 24.125 28.609375 
L 4.6875 54.6875 
L 15.28125 54.6875 
L 29.78125 35.203125 
L 44.28125 54.6875 
z
" id="DejaVuSans-78"/>
     <path d="M 10.59375 45.40625 
L 73.1875 45.40625 
L 73.1875 37.203125 
L 10.59375 37.203125 
z
M 10.59375 25.484375 
L 73.1875 25.484375 
L 73.1875 17.1875 
L 10.59375 17.1875 
z
" id="DejaVuSans-3d"/>
     <path d="M 10.984375 1.515625 
L 10.984375 10.5 
Q 14.703125 8.734375 18.5 7.8125 
Q 22.3125 6.890625 25.984375 6.890625 
Q 35.75 6.890625 40.890625 13.453125 
Q 46.046875 20.015625 46.78125 33.40625 
Q 43.953125 29.203125 39.59375 26.953125 
Q 35.25 24.703125 29.984375 24.703125 
Q 19.046875 24.703125 12.671875 31.3125 
Q 6.296875 37.9375 6.296875 49.421875 
Q 6.296875 60.640625 12.9375 67.421875 
Q 19.578125 74.21875 30.609375 74.21875 
Q 43.265625 74.21875 49.921875 64.515625 
Q 56.59375 54.828125 56.59375 36.375 
Q 56.59375 19.140625 48.40625 8.859375 
Q 40.234375 -1.421875 26.421875 -1.421875 
Q 22.703125 -1.421875 18.890625 -0.6875 
Q 15.09375 0.046875 10.984375 1.515625 
z
M 30.609375 32.421875 
Q 37.25 32.421875 41.125 36.953125 
Q 45.015625 41.5 45.015625 49.421875 
Q 45.015625 57.28125 41.125 61.84375 
Q 37.25 66.40625 30.609375 66.40625 
Q 23.96875 66.40625 20.09375 61.84375 
Q 16.21875 57.28125 16.21875 49.421875 
Q 16.21875 41.5 20.09375 36.953125 
Q 23.96875 32.421875 30.609375 32.421875 
z
" id="DejaVuSans-39"/>
     <path d="M 8.015625 75.875 
L 15.828125 75.875 
Q 23.140625 64.359375 26.78125 53.3125 
Q 30.421875 42.28125 30.421875 31.390625 
Q 30.421875 20.453125 26.78125 9.375 
Q 23.140625 -1.703125 15.828125 -13.1875 
L 8.015625 -13.1875 
Q 14.5 -2 17.703125 9.0625 
Q 20.90625 20.125 20.90625 31.390625 
Q 20.90625 42.671875 17.703125 53.65625 
Q 14.5 64.65625 8.015625 75.875 
z
" id="DejaVuSans-29"/>
     <path id="DejaVuSans-20"/>
     <path d="M 4.890625 31.390625 
L 31.203125 31.390625 
L 31.203125 23.390625 
L 4.890625 23.390625 
z
" id="DejaVuSans-2d"/>
     <path d="M 10.796875 72.90625 
L 49.515625 72.90625 
L 49.515625 64.59375 
L 19.828125 64.59375 
L 19.828125 46.734375 
Q 21.96875 47.46875 24.109375 47.828125 
Q 26.265625 48.1875 28.421875 48.1875 
Q 40.625 48.1875 47.75 41.5 
Q 54.890625 34.8125 54.890625 23.390625 
Q 54.890625 11.625 47.5625 5.09375 
Q 40.234375 -1.421875 26.90625 -1.421875 
Q 22.3125 -1.421875 17.546875 -0.640625 
Q 12.796875 0.140625 7.71875 1.703125 
L 7.71875 11.625 
Q 12.109375 9.234375 16.796875 8.0625 
Q 21.484375 6.890625 26.703125 6.890625 
Q 35.15625 6.890625 40.078125 11.328125 
Q 45.015625 15.765625 45.015625 23.390625 
Q 45.015625 31 40.078125 35.4375 
Q 35.15625 39.890625 26.703125 39.890625 
Q 22.75 39.890625 18.8125 39.015625 
Q 14.890625 38.140625 10.796875 36.28125 
z
" id="DejaVuSans-35"/>
     <path d="M 8.203125 72.90625 
L 55.078125 72.90625 
L 55.078125 68.703125 
L 28.609375 0 
L 18.3125 0 
L 43.21875 64.59375 
L 8.203125 64.59375 
z
" id="DejaVuSans-37"/>
    </defs>
    <g transform="translate(108.903266 59.519191)scale(0.14 -0.14)">
     <use xlink:href="#DejaVuSans-66"/>
     <use x="35.205078" xlink:href="#DejaVuSans-28"/>
     <use x="74.21875" xlink:href="#DejaVuSans-78"/>
     <use x="133.398438" xlink:href="#DejaVuSans-3d"/>
     <use x="217.1875" xlink:href="#DejaVuSans-30"/>
     <use x="280.810547" xlink:href="#DejaVuSans-2e"/>
     <use x="312.597656" xlink:href="#DejaVuSans-39"/>
     <use x="376.220703" xlink:href="#DejaVuSans-38"/>
     <use x="439.84375" xlink:href="#DejaVuSans-38"/>
     <use x="503.466797" xlink:href="#DejaVuSans-36"/>
     <use x="567.089844" xlink:href="#DejaVuSans-31"/>
     <use x="630.712891" xlink:href="#DejaVuSans-29"/>
     <use x="669.726562" xlink:href="#DejaVuSans-20"/>
     <use x="701.513672" xlink:href="#DejaVuSans-3d"/>
     <use x="785.302734" xlink:href="#DejaVuSans-20"/>
     <use x="817.089844" xlink:href="#DejaVuSans-2d"/>
     <use x="853.173828" xlink:href="#DejaVuSans-31"/>
     <use x="916.796875" xlink:href="#DejaVuSans-2e"/>
     <use x="948.583984" xlink:href="#DejaVuSans-30"/>
     <use x="1012.207031" xlink:href="#DejaVuSans-30"/>
     <use x="1075.830078" xlink:href="#DejaVuSans-35"/>
     <use x="1139.453125" xlink:href="#DejaVuSans-37"/>
     <use x="1203.076172" xlink:href="#DejaVuSans-30"/>
    </g>
   </g>
   <g id="text_13">
    <!-- steps = 140 -->
    <defs>
     <path d="M 44.28125 53.078125 
L 44.28125 44.578125 
Q 40.484375 46.53125 36.375 47.5 
Q 32.28125 48.484375 27.875 48.484375 
Q 21.1875 48.484375 17.84375 46.4375 
Q 14.5 44.390625 14.5 40.28125 
Q 14.5 37.15625 16.890625 35.375 
Q 19.28125 33.59375 26.515625 31.984375 
L 29.59375 31.296875 
Q 39.15625 29.25 43.1875 25.515625 
Q 47.21875 21.78125 47.21875 15.09375 
Q 47.21875 7.46875 41.1875 3.015625 
Q 35.15625 -1.421875 24.609375 -1.421875 
Q 20.21875 -1.421875 15.453125 -0.5625 
Q 10.6875 0.296875 5.421875 2 
L 5.421875 11.28125 
Q 10.40625 8.6875 15.234375 7.390625 
Q 20.0625 6.109375 24.8125 6.109375 
Q 31.15625 6.109375 34.5625 8.28125 
Q 37.984375 10.453125 37.984375 14.40625 
Q 37.984375 18.0625 35.515625 20.015625 
Q 33.0625 21.96875 24.703125 23.78125 
L 21.578125 24.515625 
Q 13.234375 26.265625 9.515625 29.90625 
Q 5.8125 33.546875 5.8125 39.890625 
Q 5.8125 47.609375 11.28125 51.796875 
Q 16.75 56 26.8125 56 
Q 31.78125 56 36.171875 55.265625 
Q 40.578125 54.546875 44.28125 53.078125 
z
" id="DejaVuSans-73"/>
     <path d="M 18.3125 70.21875 
L 18.3125 54.6875 
L 36.8125 54.6875 
L 36.8125 47.703125 
L 18.3125 47.703125 
L 18.3125 18.015625 
Q 18.3125 11.328125 20.140625 9.421875 
Q 21.96875 7.515625 27.59375 7.515625 
L 36.8125 7.515625 
L 36.8125 0 
L 27.59375 0 
Q 17.1875 0 13.234375 3.875 
Q 9.28125 7.765625 9.28125 18.015625 
L 9.28125 47.703125 
L 2.6875 47.703125 
L 2.6875 54.6875 
L 9.28125 54.6875 
L 9.28125 70.21875 
z
" id="DejaVuSans-74"/>
     <path d="M 56.203125 29.59375 
L 56.203125 25.203125 
L 14.890625 25.203125 
Q 15.484375 15.921875 20.484375 11.0625 
Q 25.484375 6.203125 34.421875 6.203125 
Q 39.59375 6.203125 44.453125 7.46875 
Q 49.3125 8.734375 54.109375 11.28125 
L 54.109375 2.78125 
Q 49.265625 0.734375 44.1875 -0.34375 
Q 39.109375 -1.421875 33.890625 -1.421875 
Q 20.796875 -1.421875 13.15625 6.1875 
Q 5.515625 13.8125 5.515625 26.8125 
Q 5.515625 40.234375 12.765625 48.109375 
Q 20.015625 56 32.328125 56 
Q 43.359375 56 49.78125 48.890625 
Q 56.203125 41.796875 56.203125 29.59375 
z
M 47.21875 32.234375 
Q 47.125 39.59375 43.09375 43.984375 
Q 39.0625 48.390625 32.421875 48.390625 
Q 24.90625 48.390625 20.390625 44.140625 
Q 15.875 39.890625 15.1875 32.171875 
z
" id="DejaVuSans-65"/>
     <path d="M 18.109375 8.203125 
L 18.109375 -20.796875 
L 9.078125 -20.796875 
L 9.078125 54.6875 
L 18.109375 54.6875 
L 18.109375 46.390625 
Q 20.953125 51.265625 25.265625 53.625 
Q 29.59375 56 35.59375 56 
Q 45.5625 56 51.78125 48.09375 
Q 58.015625 40.1875 58.015625 27.296875 
Q 58.015625 14.40625 51.78125 6.484375 
Q 45.5625 -1.421875 35.59375 -1.421875 
Q 29.59375 -1.421875 25.265625 0.953125 
Q 20.953125 3.328125 18.109375 8.203125 
z
M 48.6875 27.296875 
Q 48.6875 37.203125 44.609375 42.84375 
Q 40.53125 48.484375 33.40625 48.484375 
Q 26.265625 48.484375 22.1875 42.84375 
Q 18.109375 37.203125 18.109375 27.296875 
Q 18.109375 17.390625 22.1875 11.75 
Q 26.265625 6.109375 33.40625 6.109375 
Q 40.53125 6.109375 44.609375 11.75 
Q 48.6875 17.390625 48.6875 27.296875 
z
" id="DejaVuSans-70"/>
    </defs>
    <g transform="translate(108.903266 79.284394)scale(0.14 -0.14)">
     <use xlink:href="#DejaVuSans-73"/>
     <use x="52.099609" xlink:href="#DejaVuSans-74"/>
     <use x="91.308594" xlink:href="#DejaVuSans-65"/>
     <use x="152.832031" xlink:href="#DejaVuSans-70"/>
     <use x="216.308594" xlink:href="#DejaVuSans-73"/>
     <use x="268.408203" xlink:href="#DejaVuSans-20"/>
     <use x="300.195312" xlink:href="#DejaVuSans-3d"/>
     <use x="383.984375" xlink:href="#DejaVuSans-20"/>
     <use x="415.771484" xlink:href="#DejaVuSans-31"/>
     <use x="479.394531" xlink:href="#DejaVuSans-34"/>
     <use x="543.017578" xlink:href="#DejaVuSans-30"/>
    </g>
   </g>
  </g>
 </g>
 <defs>
  <clipPath id="p4af469911a">
   <rect height="245.9" width="385.15" x="32.55" y="14.3"/>
  </clipPath>
 </defs>
</svg>
