<?xml version="1.0" encoding="utf-8" standalone="no"?>
<!DOCTYPE svg PUBLIC "-//W3C//DTD SVG 1.1//EN"
  "http://www.w3.org/Graphics/SVG/1.1/DTD/svg11.dtd">
<!-- Created with matplotlib (http://matplotlib.org/) -->
<svg height="288pt" version="1.1" viewBox="0 0 432 288" width="432pt" xmlns="http://www.w3.org/2000/svg" xmlns:xlink="http://www.w3.org/1999/xlink">
 <defs>
  <style type="text/css">
*{stroke-linecap:butt;stroke-linejoin:round;}
  </style>
 </defs>
 <g id="figure_1">
  <g id="patch_1">
   <path d="M 0 288 
L 432 288 
L 432 0 
L 0 0 
z
" style="fill:#ffffff;"/>
  </g>
  <g id="axes_1">
   <g id="patch_2">
    <path d="M 32.55 260.2 
L 417.7 260.2 
L 417.7 14.3 
L 32.55 14.3 
z
" style="fill:#ffffff;"/>
   </g>
   <g id="PathCollection_1">
    <defs>
     <path d="M 0 1.118034 
C 0.296506 1.118034 0.580908 1.000231 0.790569 0.790569 
C 1.000231 0.580908 1.118034 0.296506 1.118034 0 
C 1.118034 -0.296506 1.000231 -0.580908 0.790569 -0.790569 
C 0.580908 -1.000231 0.296506 -1.118034 0 -1.118034 
C -0.296506 -1.118034 -0.580908 -1.000231 -0.790569 -0.790569 
C -1.000231 -0.580908 -1.118034 -0.296506 -1.118034 0 
C -1.118034 0.296506 -1.000231 0.580908 -0.790569 0.790569 
C -0.580908 1.000231 -0.296506 1.118034 0 1.118034 
z
" id="m6d0336a677" style="stroke:#8b0000;"/>
    </defs>
    <g clip-path="url(#pa9ef2ad49a)">
     <use style="fill:#8b0000;stroke:#8b0000;" x="148.722189" xlink:href="#m6d0336a677" y="202.161353"/>
     <use style="fill:#8b0000;stroke:#8b0000;" x="142.610373" xlink:href="#m6d0336a677" y="212.58269"/>
     <use style="fill:#8b0000;stroke:#8b0000;" x="136.740848" xlink:href="#m6d0336a677" y="222.013404"/>
     <use style="fill:#8b0000;stroke:#8b0000;" x="131.32116" xlink:href="#m6d0336a677" y="229.902397"/>
     <use style="fill:#8b0000;stroke:#8b0000;" x="126.512178" xlink:href="#m6d0336a677" y="236.002697"/>
     <use style="fill:#8b0000;stroke:#8b0000;" x="122.404809" xlink:href="#m6d0336a677" y="240.381335"/>
     <use style="fill:#8b0000;stroke:#8b0000;" x="119.016267" xlink:href="#m6d0336a677" y="243.320351"/>
     <use style="fill:#8b0000;stroke:#8b0000;" x="116.303618" xlink:href="#m6d0336a677" y="245.182352"/>
     <use style="fill:#8b0000;stroke:#8b0000;" x="114.185862" xlink:href="#m6d0336a677" y="246.306846"/>
     <use style="fill:#8b0000;stroke:#8b0000;" x="112.565683" xlink:href="#m6d0336a677" y="246.960307"/>
     <use style="fill:#8b0000;stroke:#8b0000;" x="111.345743" xlink:href="#m6d0336a677" y="247.328766"/>
     <use style="fill:#8b0000;stroke:#8b0000;" x="110.438346" xlink:href="#m6d0336a677" y="247.531773"/>
     <use style="fill:#8b0000;stroke:#8b0000;" x="109.769643" xlink:href="#m6d0336a677" y="247.641687"/>
     <use style="fill:#8b0000;stroke:#8b0000;" x="109.28024" xlink:href="#m6d0336a677" y="247.700426"/>
     <use style="fill:#8b0000;stroke:#8b0000;" x="108.923886" xlink:href="#m6d0336a677" y="247.731518"/>
     <use style="fill:#8b0000;stroke:#8b0000;" x="108.665383" xlink:href="#m6d0336a677" y="247.747859"/>
     <use style="fill:#8b0000;stroke:#8b0000;" x="108.478374" xlink:href="#m6d0336a677" y="247.756403"/>
     <use style="fill:#8b0000;stroke:#8b0000;" x="108.343354" xlink:href="#m6d0336a677" y="247.760855"/>
     <use style="fill:#8b0000;stroke:#8b0000;" x="108.24601" xlink:href="#m6d0336a677" y="247.763167"/>
     <use style="fill:#8b0000;stroke:#8b0000;" x="108.175903" xlink:href="#m6d0336a677" y="247.764367"/>
     <use style="fill:#8b0000;stroke:#8b0000;" x="108.125448" xlink:href="#m6d0336a677" y="247.764988"/>
     <use style="fill:#8b0000;stroke:#8b0000;" x="108.089157" xlink:href="#m6d0336a677" y="247.765309"/>
     <use style="fill:#8b0000;stroke:#8b0000;" x="108.063064" xlink:href="#m6d0336a677" y="247.765475"/>
     <use style="fill:#8b0000;stroke:#8b0000;" x="108.044309" xlink:href="#m6d0336a677" y="247.765561"/>
     <use style="fill:#8b0000;stroke:#8b0000;" x="108.03083" xlink:href="#m6d0336a677" y="247.765605"/>
     <use style="fill:#8b0000;stroke:#8b0000;" x="108.021145" xlink:href="#m6d0336a677" y="247.765628"/>
     <use style="fill:#8b0000;stroke:#8b0000;" x="108.014186" xlink:href="#m6d0336a677" y="247.76564"/>
     <use style="fill:#8b0000;stroke:#8b0000;" x="108.009187" xlink:href="#m6d0336a677" y="247.765646"/>
     <use style="fill:#8b0000;stroke:#8b0000;" x="108.005595" xlink:href="#m6d0336a677" y="247.765649"/>
     <use style="fill:#8b0000;stroke:#8b0000;" x="108.003015" xlink:href="#m6d0336a677" y="247.76565"/>
     <use style="fill:#8b0000;stroke:#8b0000;" x="108.001162" xlink:href="#m6d0336a677" y="247.765651"/>
     <use style="fill:#8b0000;stroke:#8b0000;" x="107.999831" xlink:href="#m6d0336a677" y="247.765652"/>
     <use style="fill:#8b0000;stroke:#8b0000;" x="107.998875" xlink:href="#m6d0336a677" y="247.765652"/>
     <use style="fill:#8b0000;stroke:#8b0000;" x="107.998188" xlink:href="#m6d0336a677" y="247.765652"/>
     <use style="fill:#8b0000;stroke:#8b0000;" x="107.997695" xlink:href="#m6d0336a677" y="247.765652"/>
     <use style="fill:#8b0000;stroke:#8b0000;" x="107.99734" xlink:href="#m6d0336a677" y="247.765652"/>
     <use style="fill:#8b0000;stroke:#8b0000;" x="107.997086" xlink:href="#m6d0336a677" y="247.765652"/>
     <use style="fill:#8b0000;stroke:#8b0000;" x="107.996903" xlink:href="#m6d0336a677" y="247.765652"/>
     <use style="fill:#8b0000;stroke:#8b0000;" x="107.996771" xlink:href="#m6d0336a677" y="247.765652"/>
     <use style="fill:#8b0000;stroke:#8b0000;" x="107.996677" xlink:href="#m6d0336a677" y="247.765652"/>
     <use style="fill:#8b0000;stroke:#8b0000;" x="107.996609" xlink:href="#m6d0336a677" y="247.765652"/>
     <use style="fill:#8b0000;stroke:#8b0000;" x="107.996561" xlink:href="#m6d0336a677" y="247.765652"/>
     <use style="fill:#8b0000;stroke:#8b0000;" x="107.996526" xlink:href="#m6d0336a677" y="247.765652"/>
     <use style="fill:#8b0000;stroke:#8b0000;" x="107.996501" xlink:href="#m6d0336a677" y="247.765652"/>
    </g>
   </g>
   <g id="matplotlib.axis_1">
    <g id="xtick_1">
     <g id="line2d_1">
      <defs>
       <path d="M 0 0 
L 0 3.5 
" id="me87be0e83c" style="stroke:#000000;stroke-width:0.8;"/>
      </defs>
      <g>
       <use style="stroke:#000000;stroke-width:0.8;" x="79.480042" xlink:href="#me87be0e83c" y="260.2"/>
      </g>
     </g>
     <g id="text_1">
      <!-- 0.2 -->
      <defs>
       <path d="M 31.78125 66.40625 
Q 24.171875 66.40625 20.328125 58.90625 
Q 16.5 51.421875 16.5 36.375 
Q 16.5 21.390625 20.328125 13.890625 
Q 24.171875 6.390625 31.78125 6.390625 
Q 39.453125 6.390625 43.28125 13.890625 
Q 47.125 21.390625 47.125 36.375 
Q 47.125 51.421875 43.28125 58.90625 
Q 39.453125 66.40625 31.78125 66.40625 
z
M 31.78125 74.21875 
Q 44.046875 74.21875 50.515625 64.515625 
Q 56.984375 54.828125 56.984375 36.375 
Q 56.984375 17.96875 50.515625 8.265625 
Q 44.046875 -1.421875 31.78125 -1.421875 
Q 19.53125 -1.421875 13.0625 8.265625 
Q 6.59375 17.96875 6.59375 36.375 
Q 6.59375 54.828125 13.0625 64.515625 
Q 19.53125 74.21875 31.78125 74.21875 
z
" id="DejaVuSans-30"/>
       <path d="M 10.6875 12.40625 
L 21 12.40625 
L 21 0 
L 10.6875 0 
z
" id="DejaVuSans-2e"/>
       <path d="M 19.1875 8.296875 
L 53.609375 8.296875 
L 53.609375 0 
L 7.328125 0 
L 7.328125 8.296875 
Q 12.9375 14.109375 22.625 23.890625 
Q 32.328125 33.6875 34.8125 36.53125 
Q 39.546875 41.84375 41.421875 45.53125 
Q 43.3125 49.21875 43.3125 52.78125 
Q 43.3125 58.59375 39.234375 62.25 
Q 35.15625 65.921875 28.609375 65.921875 
Q 23.96875 65.921875 18.8125 64.3125 
Q 13.671875 62.703125 7.8125 59.421875 
L 7.8125 69.390625 
Q 13.765625 71.78125 18.9375 73 
Q 24.125 74.21875 28.421875 74.21875 
Q 39.75 74.21875 46.484375 68.546875 
Q 53.21875 62.890625 53.21875 53.421875 
Q 53.21875 48.921875 51.53125 44.890625 
Q 49.859375 40.875 45.40625 35.40625 
Q 44.1875 33.984375 37.640625 27.21875 
Q 31.109375 20.453125 19.1875 8.296875 
z
" id="DejaVuSans-32"/>
      </defs>
      <g transform="translate(71.52848 274.798437)scale(0.1 -0.1)">
       <use xlink:href="#DejaVuSans-30"/>
       <use x="63.623047" xlink:href="#DejaVuSans-2e"/>
       <use x="95.410156" xlink:href="#DejaVuSans-32"/>
      </g>
     </g>
    </g>
    <g id="xtick_2">
     <g id="line2d_2">
      <g>
       <use style="stroke:#000000;stroke-width:0.8;" x="138.32649" xlink:href="#me87be0e83c" y="260.2"/>
      </g>
     </g>
     <g id="text_2">
      <!-- 0.4 -->
      <defs>
       <path d="M 37.796875 64.3125 
L 12.890625 25.390625 
L 37.796875 25.390625 
z
M 35.203125 72.90625 
L 47.609375 72.90625 
L 47.609375 25.390625 
L 58.015625 25.390625 
L 58.015625 17.1875 
L 47.609375 17.1875 
L 47.609375 0 
L 37.796875 0 
L 37.796875 17.1875 
L 4.890625 17.1875 
L 4.890625 26.703125 
z
" id="DejaVuSans-34"/>
      </defs>
      <g transform="translate(130.374927 274.798437)scale(0.1 -0.1)">
       <use xlink:href="#DejaVuSans-30"/>
       <use x="63.623047" xlink:href="#DejaVuSans-2e"/>
       <use x="95.410156" xlink:href="#DejaVuSans-34"/>
      </g>
     </g>
    </g>
    <g id="xtick_3">
     <g id="line2d_3">
      <g>
       <use style="stroke:#000000;stroke-width:0.8;" x="197.172937" xlink:href="#me87be0e83c" y="260.2"/>
      </g>
     </g>
     <g id="text_3">
      <!-- 0.6 -->
      <defs>
       <path d="M 33.015625 40.375 
Q 26.375 40.375 22.484375 35.828125 
Q 18.609375 31.296875 18.609375 23.390625 
Q 18.609375 15.53125 22.484375 10.953125 
Q 26.375 6.390625 33.015625 6.390625 
Q 39.65625 6.390625 43.53125 10.953125 
Q 47.40625 15.53125 47.40625 23.390625 
Q 47.40625 31.296875 43.53125 35.828125 
Q 39.65625 40.375 33.015625 40.375 
z
M 52.59375 71.296875 
L 52.59375 62.3125 
Q 48.875 64.0625 45.09375 64.984375 
Q 41.3125 65.921875 37.59375 65.921875 
Q 27.828125 65.921875 22.671875 59.328125 
Q 17.53125 52.734375 16.796875 39.40625 
Q 19.671875 43.65625 24.015625 45.921875 
Q 28.375 48.1875 33.59375 48.1875 
Q 44.578125 48.1875 50.953125 41.515625 
Q 57.328125 34.859375 57.328125 23.390625 
Q 57.328125 12.15625 50.6875 5.359375 
Q 44.046875 -1.421875 33.015625 -1.421875 
Q 20.359375 -1.421875 13.671875 8.265625 
Q 6.984375 17.96875 6.984375 36.375 
Q 6.984375 53.65625 15.1875 63.9375 
Q 23.390625 74.21875 37.203125 74.21875 
Q 40.921875 74.21875 44.703125 73.484375 
Q 48.484375 72.75 52.59375 71.296875 
z
" id="DejaVuSans-36"/>
      </defs>
      <g transform="translate(189.221375 274.798437)scale(0.1 -0.1)">
       <use xlink:href="#DejaVuSans-30"/>
       <use x="63.623047" xlink:href="#DejaVuSans-2e"/>
       <use x="95.410156" xlink:href="#DejaVuSans-36"/>
      </g>
     </g>
    </g>
    <g id="xtick_4">
     <g id="line2d_4">
      <g>
       <use style="stroke:#000000;stroke-width:0.8;" x="256.019385" xlink:href="#me87be0e83c" y="260.2"/>
      </g>
     </g>
     <g id="text_4">
      <!-- 0.8 -->
      <defs>
       <path d="M 31.78125 34.625 
Q 24.75 34.625 20.71875 30.859375 
Q 16.703125 27.09375 16.703125 20.515625 
Q 16.703125 13.921875 20.71875 10.15625 
Q 24.75 6.390625 31.78125 6.390625 
Q 38.8125 6.390625 42.859375 10.171875 
Q 46.921875 13.96875 46.921875 20.515625 
Q 46.921875 27.09375 42.890625 30.859375 
Q 38.875 34.625 31.78125 34.625 
z
M 21.921875 38.8125 
Q 15.578125 40.375 12.03125 44.71875 
Q 8.5 49.078125 8.5 55.328125 
Q 8.5 64.0625 14.71875 69.140625 
Q 20.953125 74.21875 31.78125 74.21875 
Q 42.671875 74.21875 48.875 69.140625 
Q 55.078125 64.0625 55.078125 55.328125 
Q 55.078125 49.078125 51.53125 44.71875 
Q 48 40.375 41.703125 38.8125 
Q 48.828125 37.15625 52.796875 32.3125 
Q 56.78125 27.484375 56.78125 20.515625 
Q 56.78125 9.90625 50.3125 4.234375 
Q 43.84375 -1.421875 31.78125 -1.421875 
Q 19.734375 -1.421875 13.25 4.234375 
Q 6.78125 9.90625 6.78125 20.515625 
Q 6.78125 27.484375 10.78125 32.3125 
Q 14.796875 37.15625 21.921875 38.8125 
z
M 18.3125 54.390625 
Q 18.3125 48.734375 21.84375 45.5625 
Q 25.390625 42.390625 31.78125 42.390625 
Q 38.140625 42.390625 41.71875 45.5625 
Q 45.3125 48.734375 45.3125 54.390625 
Q 45.3125 60.0625 41.71875 63.234375 
Q 38.140625 66.40625 31.78125 66.40625 
Q 25.390625 66.40625 21.84375 63.234375 
Q 18.3125 60.0625 18.3125 54.390625 
z
" id="DejaVuSans-38"/>
      </defs>
      <g transform="translate(248.067823 274.798437)scale(0.1 -0.1)">
       <use xlink:href="#DejaVuSans-30"/>
       <use x="63.623047" xlink:href="#DejaVuSans-2e"/>
       <use x="95.410156" xlink:href="#DejaVuSans-38"/>
      </g>
     </g>
    </g>
    <g id="xtick_5">
     <g id="line2d_5">
      <g>
       <use style="stroke:#000000;stroke-width:0.8;" x="314.865833" xlink:href="#me87be0e83c" y="260.2"/>
      </g>
     </g>
     <g id="text_5">
      <!-- 1.0 -->
      <defs>
       <path d="M 12.40625 8.296875 
L 28.515625 8.296875 
L 28.515625 63.921875 
L 10.984375 60.40625 
L 10.984375 69.390625 
L 28.421875 72.90625 
L 38.28125 72.90625 
L 38.28125 8.296875 
L 54.390625 8.296875 
L 54.390625 0 
L 12.40625 0 
z
" id="DejaVuSans-31"/>
      </defs>
      <g transform="translate(306.91427 274.798437)scale(0.1 -0.1)">
       <use xlink:href="#DejaVuSans-31"/>
       <use x="63.623047" xlink:href="#DejaVuSans-2e"/>
       <use x="95.410156" xlink:href="#DejaVuSans-30"/>
      </g>
     </g>
    </g>
    <g id="xtick_6">
     <g id="line2d_6">
      <g>
       <use style="stroke:#000000;stroke-width:0.8;" x="373.71228" xlink:href="#me87be0e83c" y="260.2"/>
      </g>
     </g>
     <g id="text_6">
      <!-- 1.2 -->
      <g transform="translate(365.760718 274.798437)scale(0.1 -0.1)">
       <use xlink:href="#DejaVuSans-31"/>
       <use x="63.623047" xlink:href="#DejaVuSans-2e"/>
       <use x="95.410156" xlink:href="#DejaVuSans-32"/>
      </g>
     </g>
    </g>
   </g>
   <g id="matplotlib.axis_2">
    <g id="ytick_1">
     <g id="line2d_7">
      <defs>
       <path d="M 0 0 
L -3.5 0 
" id="m55b2f708b0" style="stroke:#000000;stroke-width:0.8;"/>
      </defs>
      <g>
       <use style="stroke:#000000;stroke-width:0.8;" x="32.55" xlink:href="#m55b2f708b0" y="218.988549"/>
      </g>
     </g>
     <g id="text_7">
      <!-- −2 -->
      <defs>
       <path d="M 10.59375 35.5 
L 73.1875 35.5 
L 73.1875 27.203125 
L 10.59375 27.203125 
z
" id="DejaVuSans-2212"/>
      </defs>
      <g transform="translate(10.807813 222.787768)scale(0.1 -0.1)">
       <use xlink:href="#DejaVuSans-2212"/>
       <use x="83.789062" xlink:href="#DejaVuSans-32"/>
      </g>
     </g>
    </g>
    <g id="ytick_2">
     <g id="line2d_8">
      <g>
       <use style="stroke:#000000;stroke-width:0.8;" x="32.55" xlink:href="#m55b2f708b0" y="169.860624"/>
      </g>
     </g>
     <g id="text_8">
      <!-- 0 -->
      <g transform="translate(19.1875 173.659842)scale(0.1 -0.1)">
       <use xlink:href="#DejaVuSans-30"/>
      </g>
     </g>
    </g>
    <g id="ytick_3">
     <g id="line2d_9">
      <g>
       <use style="stroke:#000000;stroke-width:0.8;" x="32.55" xlink:href="#m55b2f708b0" y="120.732698"/>
      </g>
     </g>
     <g id="text_9">
      <!-- 2 -->
      <g transform="translate(19.1875 124.531917)scale(0.1 -0.1)">
       <use xlink:href="#DejaVuSans-32"/>
      </g>
     </g>
    </g>
    <g id="ytick_4">
     <g id="line2d_10">
      <g>
       <use style="stroke:#000000;stroke-width:0.8;" x="32.55" xlink:href="#m55b2f708b0" y="71.604772"/>
      </g>
     </g>
     <g id="text_10">
      <!-- 4 -->
      <g transform="translate(19.1875 75.403991)scale(0.1 -0.1)">
       <use xlink:href="#DejaVuSans-34"/>
      </g>
     </g>
    </g>
    <g id="ytick_5">
     <g id="line2d_11">
      <g>
       <use style="stroke:#000000;stroke-width:0.8;" x="32.55" xlink:href="#m55b2f708b0" y="22.476847"/>
      </g>
     </g>
     <g id="text_11">
      <!-- 6 -->
      <g transform="translate(19.1875 26.276065)scale(0.1 -0.1)">
       <use xlink:href="#DejaVuSans-36"/>
      </g>
     </g>
    </g>
   </g>
   <g id="line2d_12">
    <path clip-path="url(#pa9ef2ad49a)" d="M 50.056818 25.477273 
L 52.999141 56.18722 
L 55.941463 82.703735 
L 58.883785 105.854888 
L 61.826108 126.226273 
L 64.76843 144.242954 
L 67.710752 160.220724 
L 70.653075 174.399287 
L 73.595397 186.964406 
L 76.53772 198.063058 
L 79.480042 207.814033 
L 82.422364 216.31551 
L 85.364687 223.65053 
L 88.307009 229.891038 
L 91.249332 235.10087 
L 94.191654 239.338002 
L 97.133976 242.656234 
L 100.076299 245.106463 
L 103.018621 246.737641 
L 105.960943 247.597488 
L 108.903266 247.733013 
L 111.845588 247.190892 
L 114.787911 246.017713 
L 117.730233 244.260145 
L 120.672555 241.96501 
L 123.614878 239.179309 
L 126.5572 235.950181 
L 129.499523 232.324841 
L 132.441845 228.350461 
L 135.384167 224.074047 
L 138.32649 219.542282 
L 141.268812 214.801356 
L 144.211134 209.89679 
L 147.153457 204.873242 
L 150.095779 199.774327 
L 153.038102 194.642414 
L 155.980424 189.518445 
L 158.922746 184.441745 
L 161.865069 179.449848 
L 164.807391 174.578324 
L 167.749714 169.860624 
L 170.692036 165.327931 
L 173.634358 161.009032 
L 176.576681 156.930195 
L 179.519003 153.115072 
L 182.461325 149.584613 
L 185.403648 146.357 
L 188.34597 143.447595 
L 191.288293 140.868917 
L 194.230615 138.630623 
L 197.172937 136.739518 
L 200.11526 135.199582 
L 203.057582 134.012014 
L 205.999905 133.17529 
L 208.942227 132.685247 
L 211.884549 132.535178 
L 214.826872 132.71594 
L 217.769194 133.216083 
L 220.711516 134.021993 
L 223.653839 135.11804 
L 226.596161 136.486742 
L 229.538484 138.108947 
L 232.480806 139.964006 
L 235.423128 142.029971 
L 238.365451 144.283788 
L 241.307773 146.701497 
L 244.250095 149.258441 
L 247.192418 151.929461 
L 250.13474 154.689112 
L 253.077063 157.511857 
L 256.019385 160.372271 
L 258.961707 163.245238 
L 261.90403 166.106135 
L 264.846352 168.931018 
L 267.788675 171.696795 
L 270.730997 174.381389 
L 273.673319 176.96389 
L 276.615642 179.424699 
L 279.557964 181.745654 
L 282.500286 183.910145 
L 285.442609 185.903218 
L 288.384931 187.711657 
L 291.327254 189.324057 
L 294.269576 190.73088 
L 297.211898 191.924496 
L 300.154221 192.899204 
L 303.096543 193.651244 
L 306.038866 194.178787 
L 308.981188 194.481917 
L 311.92351 194.56259 
L 314.865833 194.424587 
L 317.808155 194.073443 
L 320.750477 193.516376 
L 323.6928 192.762195 
L 326.635122 191.821196 
L 329.577445 190.705053 
L 332.519767 189.426699 
L 335.462089 188.000192 
L 338.404412 186.440585 
L 341.346734 184.76378 
L 344.289057 182.986383 
L 347.231379 181.125556 
L 350.173701 179.198862 
L 353.116024 177.224115 
L 356.058346 175.219228 
L 359.000668 173.202059 
L 361.942991 171.190265 
L 364.885313 169.20116 
L 367.827636 167.251572 
L 370.769958 165.357714 
L 373.71228 163.535055 
L 376.654603 161.798205 
L 379.596925 160.160805 
L 382.539248 158.635424 
L 385.48157 157.233479 
L 388.423892 155.965148 
L 391.366215 154.839307 
L 394.308537 153.863477 
L 397.250859 153.043776 
L 400.193182 152.384895 
" style="fill:none;stroke:#1f77b4;stroke-linecap:square;stroke-width:1.5;"/>
   </g>
   <g id="patch_3">
    <path d="M 32.55 260.2 
L 32.55 14.3 
" style="fill:none;stroke:#000000;stroke-linecap:square;stroke-linejoin:miter;stroke-width:0.8;"/>
   </g>
   <g id="patch_4">
    <path d="M 417.7 260.2 
L 417.7 14.3 
" style="fill:none;stroke:#000000;stroke-linecap:square;stroke-linejoin:miter;stroke-width:0.8;"/>
   </g>
   <g id="patch_5">
    <path d="M 32.55 260.2 
L 417.7 260.2 
" style="fill:none;stroke:#000000;stroke-linecap:square;stroke-linejoin:miter;stroke-width:0.8;"/>
   </g>
   <g id="patch_6">
    <path d="M 32.55 14.3 
L 417.7 14.3 
" style="fill:none;stroke:#000000;stroke-linecap:square;stroke-linejoin:miter;stroke-width:0.8;"/>
   </g>
   <g id="text_12">
    <!-- f(x=0.29692) = -3.17152 -->
    <defs>
     <path d="M 37.109375 75.984375 
L 37.109375 68.5 
L 28.515625 68.5 
Q 23.6875 68.5 21.796875 66.546875 
Q 19.921875 64.59375 19.921875 59.515625 
L 19.921875 54.6875 
L 34.71875 54.6875 
L 34.71875 47.703125 
L 19.921875 47.703125 
L 19.921875 0 
L 10.890625 0 
L 10.890625 47.703125 
L 2.296875 47.703125 
L 2.296875 54.6875 
L 10.890625 54.6875 
L 10.890625 58.5 
Q 10.890625 67.625 15.140625 71.796875 
Q 19.390625 75.984375 28.609375 75.984375 
z
" id="DejaVuSans-66"/>
     <path d="M 31 75.875 
Q 24.46875 64.65625 21.28125 53.65625 
Q 18.109375 42.671875 18.109375 31.390625 
Q 18.109375 20.125 21.3125 9.0625 
Q 24.515625 -2 31 -13.1875 
L 23.1875 -13.1875 
Q 15.875 -1.703125 12.234375 9.375 
Q 8.59375 20.453125 8.59375 31.390625 
Q 8.59375 42.28125 12.203125 53.3125 
Q 15.828125 64.359375 23.1875 75.875 
z
" id="DejaVuSans-28"/>
     <path d="M 54.890625 54.6875 
L 35.109375 28.078125 
L 55.90625 0 
L 45.3125 0 
L 29.390625 21.484375 
L 13.484375 0 
L 2.875 0 
L 24.125 28.609375 
L 4.6875 54.6875 
L 15.28125 54.6875 
L 29.78125 35.203125 
L 44.28125 54.6875 
z
" id="DejaVuSans-78"/>
     <path d="M 10.59375 45.40625 
L 73.1875 45.40625 
L 73.1875 37.203125 
L 10.59375 37.203125 
z
M 10.59375 25.484375 
L 73.1875 25.484375 
L 73.1875 17.1875 
L 10.59375 17.1875 
z
" id="DejaVuSans-3d"/>
     <path d="M 10.984375 1.515625 
L 10.984375 10.5 
Q 14.703125 8.734375 18.5 7.8125 
Q 22.3125 6.890625 25.984375 6.890625 
Q 35.75 6.890625 40.890625 13.453125 
Q 46.046875 20.015625 46.78125 33.40625 
Q 43.953125 29.203125 39.59375 26.953125 
Q 35.25 24.703125 29.984375 24.703125 
Q 19.046875 24.703125 12.671875 31.3125 
Q 6.296875 37.9375 6.296875 49.421875 
Q 6.296875 60.640625 12.9375 67.421875 
Q 19.578125 74.21875 30.609375 74.21875 
Q 43.265625 74.21875 49.921875 64.515625 
Q 56.59375 54.828125 56.59375 36.375 
Q 56.59375 19.140625 48.40625 8.859375 
Q 40.234375 -1.421875 26.421875 -1.421875 
Q 22.703125 -1.421875 18.890625 -0.6875 
Q 15.09375 0.046875 10.984375 1.515625 
z
M 30.609375 32.421875 
Q 37.25 32.421875 41.125 36.953125 
Q 45.015625 41.5 45.015625 49.421875 
Q 45.015625 57.28125 41.125 61.84375 
Q 37.25 66.40625 30.609375 66.40625 
Q 23.96875 66.40625 20.09375 61.84375 
Q 16.21875 57.28125 16.21875 49.421875 
Q 16.21875 41.5 20.09375 36.953125 
Q 23.96875 32.421875 30.609375 32.421875 
z
" id="DejaVuSans-39"/>
     <path d="M 8.015625 75.875 
L 15.828125 75.875 
Q 23.140625 64.359375 26.78125 53.3125 
Q 30.421875 42.28125 30.421875 31.390625 
Q 30.421875 20.453125 26.78125 9.375 
Q 23.140625 -1.703125 15.828125 -13.1875 
L 8.015625 -13.1875 
Q 14.5 -2 17.703125 9.0625 
Q 20.90625 20.125 20.90625 31.390625 
Q 20.90625 42.671875 17.703125 53.65625 
Q 14.5 64.65625 8.015625 75.875 
z
" id="DejaVuSans-29"/>
     <path id="DejaVuSans-20"/>
     <path d="M 4.890625 31.390625 
L 31.203125 31.390625 
L 31.203125 23.390625 
L 4.890625 23.390625 
z
" id="DejaVuSans-2d"/>
     <path d="M 40.578125 39.3125 
Q 47.65625 37.796875 51.625 33 
Q 55.609375 28.21875 55.609375 21.1875 
Q 55.609375 10.40625 48.1875 4.484375 
Q 40.765625 -1.421875 27.09375 -1.421875 
Q 22.515625 -1.421875 17.65625 -0.515625 
Q 12.796875 0.390625 7.625 2.203125 
L 7.625 11.71875 
Q 11.71875 9.328125 16.59375 8.109375 
Q 21.484375 6.890625 26.8125 6.890625 
Q 36.078125 6.890625 40.9375 10.546875 
Q 45.796875 14.203125 45.796875 21.1875 
Q 45.796875 27.640625 41.28125 31.265625 
Q 36.765625 34.90625 28.71875 34.90625 
L 20.21875 34.90625 
L 20.21875 43.015625 
L 29.109375 43.015625 
Q 36.375 43.015625 40.234375 45.921875 
Q 44.09375 48.828125 44.09375 54.296875 
Q 44.09375 59.90625 40.109375 62.90625 
Q 36.140625 65.921875 28.71875 65.921875 
Q 24.65625 65.921875 20.015625 65.03125 
Q 15.375 64.15625 9.8125 62.3125 
L 9.8125 71.09375 
Q 15.4375 72.65625 20.34375 73.4375 
Q 25.25 74.21875 29.59375 74.21875 
Q 40.828125 74.21875 47.359375 69.109375 
Q 53.90625 64.015625 53.90625 55.328125 
Q 53.90625 49.265625 50.4375 45.09375 
Q 46.96875 40.921875 40.578125 39.3125 
z
" id="DejaVuSans-33"/>
     <path d="M 8.203125 72.90625 
L 55.078125 72.90625 
L 55.078125 68.703125 
L 28.609375 0 
L 18.3125 0 
L 43.21875 64.59375 
L 8.203125 64.59375 
z
" id="DejaVuSans-37"/>
     <path d="M 10.796875 72.90625 
L 49.515625 72.90625 
L 49.515625 64.59375 
L 19.828125 64.59375 
L 19.828125 46.734375 
Q 21.96875 47.46875 24.109375 47.828125 
Q 26.265625 48.1875 28.421875 48.1875 
Q 40.625 48.1875 47.75 41.5 
Q 54.890625 34.8125 54.890625 23.390625 
Q 54.890625 11.625 47.5625 5.09375 
Q 40.234375 -1.421875 26.90625 -1.421875 
Q 22.3125 -1.421875 17.546875 -0.640625 
Q 12.796875 0.140625 7.71875 1.703125 
L 7.71875 11.625 
Q 12.109375 9.234375 16.796875 8.0625 
Q 21.484375 6.890625 26.703125 6.890625 
Q 35.15625 6.890625 40.078125 11.328125 
Q 45.015625 15.765625 45.015625 23.390625 
Q 45.015625 31 40.078125 35.4375 
Q 35.15625 39.890625 26.703125 39.890625 
Q 22.75 39.890625 18.8125 39.015625 
Q 14.890625 38.140625 10.796875 36.28125 
z
" id="DejaVuSans-35"/>
    </defs>
    <g transform="translate(108.903266 59.322791)scale(0.14 -0.14)">
     <use xlink:href="#DejaVuSans-66"/>
     <use x="35.205078" xlink:href="#DejaVuSans-28"/>
     <use x="74.21875" xlink:href="#DejaVuSans-78"/>
     <use x="133.398438" xlink:href="#DejaVuSans-3d"/>
     <use x="217.1875" xlink:href="#DejaVuSans-30"/>
     <use x="280.810547" xlink:href="#DejaVuSans-2e"/>
     <use x="312.597656" xlink:href="#DejaVuSans-32"/>
     <use x="376.220703" xlink:href="#DejaVuSans-39"/>
     <use x="439.84375" xlink:href="#DejaVuSans-36"/>
     <use x="503.466797" xlink:href="#DejaVuSans-39"/>
     <use x="567.089844" xlink:href="#DejaVuSans-32"/>
     <use x="630.712891" xlink:href="#DejaVuSans-29"/>
     <use x="669.726562" xlink:href="#DejaVuSans-20"/>
     <use x="701.513672" xlink:href="#DejaVuSans-3d"/>
     <use x="785.302734" xlink:href="#DejaVuSans-20"/>
     <use x="817.089844" xlink:href="#DejaVuSans-2d"/>
     <use x="853.173828" xlink:href="#DejaVuSans-33"/>
     <use x="916.796875" xlink:href="#DejaVuSans-2e"/>
     <use x="948.583984" xlink:href="#DejaVuSans-31"/>
     <use x="1012.207031" xlink:href="#DejaVuSans-37"/>
     <use x="1075.830078" xlink:href="#DejaVuSans-31"/>
     <use x="1139.453125" xlink:href="#DejaVuSans-35"/>
     <use x="1203.076172" xlink:href="#DejaVuSans-32"/>
    </g>
   </g>
   <g id="text_13">
    <!-- steps = 44 -->
    <defs>
     <path d="M 44.28125 53.078125 
L 44.28125 44.578125 
Q 40.484375 46.53125 36.375 47.5 
Q 32.28125 48.484375 27.875 48.484375 
Q 21.1875 48.484375 17.84375 46.4375 
Q 14.5 44.390625 14.5 40.28125 
Q 14.5 37.15625 16.890625 35.375 
Q 19.28125 33.59375 26.515625 31.984375 
L 29.59375 31.296875 
Q 39.15625 29.25 43.1875 25.515625 
Q 47.21875 21.78125 47.21875 15.09375 
Q 47.21875 7.46875 41.1875 3.015625 
Q 35.15625 -1.421875 24.609375 -1.421875 
Q 20.21875 -1.421875 15.453125 -0.5625 
Q 10.6875 0.296875 5.421875 2 
L 5.421875 11.28125 
Q 10.40625 8.6875 15.234375 7.390625 
Q 20.0625 6.109375 24.8125 6.109375 
Q 31.15625 6.109375 34.5625 8.28125 
Q 37.984375 10.453125 37.984375 14.40625 
Q 37.984375 18.0625 35.515625 20.015625 
Q 33.0625 21.96875 24.703125 23.78125 
L 21.578125 24.515625 
Q 13.234375 26.265625 9.515625 29.90625 
Q 5.8125 33.546875 5.8125 39.890625 
Q 5.8125 47.609375 11.28125 51.796875 
Q 16.75 56 26.8125 56 
Q 31.78125 56 36.171875 55.265625 
Q 40.578125 54.546875 44.28125 53.078125 
z
" id="DejaVuSans-73"/>
     <path d="M 18.3125 70.21875 
L 18.3125 54.6875 
L 36.8125 54.6875 
L 36.8125 47.703125 
L 18.3125 47.703125 
L 18.3125 18.015625 
Q 18.3125 11.328125 20.140625 9.421875 
Q 21.96875 7.515625 27.59375 7.515625 
L 36.8125 7.515625 
L 36.8125 0 
L 27.59375 0 
Q 17.1875 0 13.234375 3.875 
Q 9.28125 7.765625 9.28125 18.015625 
L 9.28125 47.703125 
L 2.6875 47.703125 
L 2.6875 54.6875 
L 9.28125 54.6875 
L 9.28125 70.21875 
z
" id="DejaVuSans-74"/>
     <path d="M 56.203125 29.59375 
L 56.203125 25.203125 
L 14.890625 25.203125 
Q 15.484375 15.921875 20.484375 11.0625 
Q 25.484375 6.203125 34.421875 6.203125 
Q 39.59375 6.203125 44.453125 7.46875 
Q 49.3125 8.734375 54.109375 11.28125 
L 54.109375 2.78125 
Q 49.265625 0.734375 44.1875 -0.34375 
Q 39.109375 -1.421875 33.890625 -1.421875 
Q 20.796875 -1.421875 13.15625 6.1875 
Q 5.515625 13.8125 5.515625 26.8125 
Q 5.515625 40.234375 12.765625 48.109375 
Q 20.015625 56 32.328125 56 
Q 43.359375 56 49.78125 48.890625 
Q 56.203125 41.796875 56.203125 29.59375 
z
M 47.21875 32.234375 
Q 47.125 39.59375 43.09375 43.984375 
Q 39.0625 48.390625 32.421875 48.390625 
Q 24.90625 48.390625 20.390625 44.140625 
Q 15.875 39.890625 15.1875 32.171875 
z
" id="DejaVuSans-65"/>
     <path d="M 18.109375 8.203125 
L 18.109375 -20.796875 
L 9.078125 -20.796875 
L 9.078125 54.6875 
L 18.109375 54.6875 
L 18.109375 46.390625 
Q 20.953125 51.265625 25.265625 53.625 
Q 29.59375 56 35.59375 56 
Q 45.5625 56 51.78125 48.09375 
Q 58.015625 40.1875 58.015625 27.296875 
Q 58.015625 14.40625 51.78125 6.484375 
Q 45.5625 -1.421875 35.59375 -1.421875 
Q 29.59375 -1.421875 25.265625 0.953125 
Q 20.953125 3.328125 18.109375 8.203125 
z
M 48.6875 27.296875 
Q 48.6875 37.203125 44.609375 42.84375 
Q 40.53125 48.484375 33.40625 48.484375 
Q 26.265625 48.484375 22.1875 42.84375 
Q 18.109375 37.203125 18.109375 27.296875 
Q 18.109375 17.390625 22.1875 11.75 
Q 26.265625 6.109375 33.40625 6.109375 
Q 40.53125 6.109375 44.609375 11.75 
Q 48.6875 17.390625 48.6875 27.296875 
z
" id="DejaVuSans-70"/>
    </defs>
    <g transform="translate(108.903266 78.973961)scale(0.14 -0.14)">
     <use xlink:href="#DejaVuSans-73"/>
     <use x="52.099609" xlink:href="#DejaVuSans-74"/>
     <use x="91.308594" xlink:href="#DejaVuSans-65"/>
     <use x="152.832031" xlink:href="#DejaVuSans-70"/>
     <use x="216.308594" xlink:href="#DejaVuSans-73"/>
     <use x="268.408203" xlink:href="#DejaVuSans-20"/>
     <use x="300.195312" xlink:href="#DejaVuSans-3d"/>
     <use x="383.984375" xlink:href="#DejaVuSans-20"/>
     <use x="415.771484" xlink:href="#DejaVuSans-34"/>
     <use x="479.394531" xlink:href="#DejaVuSans-34"/>
    </g>
   </g>
  </g>
 </g>
 <defs>
  <clipPath id="pa9ef2ad49a">
   <rect height="245.9" width="385.15" x="32.55" y="14.3"/>
  </clipPath>
 </defs>
</svg>
